<svg xmlns="http://www.w3.org/2000/svg" viewBox="0 0 500 500"><g id="freepik--Floor--inject-32"><ellipse id="freepik--floor--inject-32" cx="250" cy="349.8" rx="242.95" ry="141.68" style="fill:#fafafa"></ellipse></g><g id="freepik--Shadows--inject-32"><path id="freepik--Shadow--inject-32" d="M180.15,360.71,20.86,452.61c-1.75,1-1.75,2.65,0,3.66l23.4,13.48a7,7,0,0,0,6.34,0l159.29-91.91c1.75-1,1.75-2.65,0-3.66L186.48,360.7A7,7,0,0,0,180.15,360.71Z" style="fill:#e0e0e0"></path><ellipse id="freepik--shadow--inject-32" cx="379.59" cy="400.61" rx="70.57" ry="40.75" style="fill:#e0e0e0"></ellipse></g><g id="freepik--Screen--inject-32"><g id="freepik--Window--inject-32"><path d="M212,74.44c-1.63-.94-3.88-.81-6.36.62l-.71.42L171.72,94.65a1.42,1.42,0,0,0-.23.14,5,5,0,0,0-2,3.71,5.08,5.08,0,0,1-2.37,3.91l-39.57,22.84-.09,0a1.51,1.51,0,0,0-.65-1.35l-2.28-1.32a1.56,1.56,0,0,0-1.56.16l-2.22,1.28-33.95,19.6a13.3,13.3,0,0,0-1.45,1l-.68.61a16,16,0,0,0-5,10.76V458c0,2.27.79,3.86,2.08,4.6l2.3,1.33c1.29.75,3.07.64,5-.5l120.72-69.7A15.82,15.82,0,0,0,217,381.4V81.59c0-2.86-1-4.87-2.64-5.82Z" style="fill:#BA68C8"></path><path d="M89.78,462.49v.59l-.68.39c-2,1.14-3.74,1.25-5,.51l-2.3-1.33c-1.29-.75-2.08-2.34-2.08-4.61V156a14.85,14.85,0,0,1,2.46-7.62L84.87,150a14.45,14.45,0,0,0-2.39,7.37v302a5.52,5.52,0,0,0,1,3.44A3,3,0,0,0,85.91,464a6,6,0,0,0,2.94-.92Z" style="opacity:0.30000000000000004"></path><path d="M173.13,97.5a4.18,4.18,0,0,0-.83,2.31,5.07,5.07,0,0,1-.88,2.65l-2.74-1.58a4.54,4.54,0,0,0,.83-2.39,4.8,4.8,0,0,1,.89-2.57Z" style="opacity:0.30000000000000004"></path><path d="M85.91,463.94a3,3,0,0,1-2.45-1.14,5.52,5.52,0,0,1-1-3.44v-302A15.49,15.49,0,0,1,87.33,147l.21-.19.45-.4a9.83,9.83,0,0,1,1.37-.94l34-19.61,2.22-1.27a1.49,1.49,0,0,1,.74-.24c.64,0,.71.75.71,1.07a1.82,1.82,0,0,0,1.76,2.05,2.68,2.68,0,0,0,1.37-.42l39.57-22.84a5.56,5.56,0,0,0,2.62-4.36,4.51,4.51,0,0,1,1.77-3.29,1.18,1.18,0,0,1,.19-.11l33.21-19.17.71-.42a7.69,7.69,0,0,1,3.76-1.16c2.78,0,4.51,2.28,4.51,5.93V381.4a15.22,15.22,0,0,1-6.88,11.93L88.85,463A6,6,0,0,1,85.91,463.94Z" style="fill:#fafafa"></path><path d="M211.94,76.17h0c2.51,0,4,2,4,5.42V381.4a14.89,14.89,0,0,1-6.62,11.49L88.59,462.59a5.56,5.56,0,0,1-2.68.85c-1.83,0-2.92-1.53-2.92-4.08v-302a14.92,14.92,0,0,1,4.67-10l.23-.22.39-.35a11.26,11.26,0,0,1,1.33-.91l34-19.61,2.21-1.27a1.06,1.06,0,0,1,.49-.17c.2,0,.2.51.2.56a2.31,2.31,0,0,0,2.27,2.55,3.21,3.21,0,0,0,1.62-.48l39.57-22.84a6.11,6.11,0,0,0,2.88-4.8,4,4,0,0,1,1.55-2.88l.15-.09,33.22-19.17.7-.41a7.28,7.28,0,0,1,3.51-1.09m0-1a8.14,8.14,0,0,0-4,1.22l-.71.42L174,96a1.35,1.35,0,0,0-.22.14,5,5,0,0,0-2,3.7,5.1,5.1,0,0,1-2.36,3.92l-39.58,22.84a2.19,2.19,0,0,1-1.11.35c-.75,0-1.25-.56-1.25-1.54s-.5-1.58-1.22-1.58a2,2,0,0,0-1,.31l-2.21,1.27L89.11,145a11.37,11.37,0,0,0-1.46,1l-.67.61a16,16,0,0,0-5,10.75v302c0,3.22,1.61,5.09,3.94,5.09a6.55,6.55,0,0,0,3.2-1l120.72-69.7A15.82,15.82,0,0,0,217,381.4V81.59c0-4.07-2.05-6.43-5-6.43Z" style="fill:#BA68C8"></path></g></g><g id="freepik--Robot--inject-32"><g id="freepik--robot--inject-32"><path d="M230.75,259a4.52,4.52,0,0,0-1.75-.09,10.5,10.5,0,0,0-7.6,5.7c-.8,1.9-.37,3.42.94,4.07a2.52,2.52,0,0,0,.33.14c16.05,6.76,41.16,6.09,64.43-16.72l-8.4-8.58C261.31,260.52,243.22,262.7,230.75,259Z" style="fill:#263238"></path><path d="M305.11,249.35a2.49,2.49,0,0,1-.89,2.23A14.77,14.77,0,0,1,287.06,253a2.5,2.5,0,0,1,2.51-4.33,9.85,9.85,0,0,0,11.46-.94,2.51,2.51,0,0,1,4.08,1.62Z" style="fill:#263238"></path><circle cx="282.9" cy="247.76" r="11.54" style="fill:#BA68C8"></circle><path d="M289.25,238.13c1.69,1.27,3.88,7.17-1,11.83-5.68,5.38-15.93,2.27-16.7-4a11.54,11.54,0,1,0,17.74-7.83Z" style="opacity:0.2"></path><path d="M274.43,241.84a2.1,2.1,0,0,0-.22.3,6.52,6.52,0,0,0-.89,1.93,3.94,3.94,0,0,0-.13,2.35,1.69,1.69,0,0,0,1.92,1.17c.77-.24,1.1-1.12,1.35-1.88a30.19,30.19,0,0,1,2.55-5.65.76.76,0,0,0,.14-.59c-.09-.26-.43-.32-.71-.31C276.79,239.27,275.51,240.59,274.43,241.84Z" style="fill:#fff;opacity:0.30000000000000004"></path><path d="M295.12,229.26a2.5,2.5,0,0,1-1.91,2.73,9.85,9.85,0,0,0-7.71,8.54,2.5,2.5,0,0,1-5-.63,14.77,14.77,0,0,1,11.55-12.78,2.44,2.44,0,0,1,3,2.14Z" style="fill:#263238"></path><path d="M114.82,247.73c0,43,18.91,132.78,63.6,132.78S242,290.68,242,247.73Z" style="fill:#BA68C8"></path><path d="M114.82,247.73c0,43,18.91,132.78,63.6,132.78S242,290.68,242,247.73Z" style="fill:#fff;opacity:0.8"></path><path d="M242,247.73c-1.8,25.89-8.91,43.48-20.13,49.7-4.7,2.6-11.3,2.6-17,0-9.55-4.44-16.06-15.12-17.07-20.22l-2.45.49c1.13,5.73,8.07,17.17,18.46,22a28.17,28.17,0,0,0,10.67,2.19,17.57,17.57,0,0,0,8.59-2.22c7.7-4.27,13.56-13.34,17.28-26.37a217.41,217.41,0,0,0,1.7-25.52Z" style="fill:#BA68C8"></path><path d="M222.39,272c0,44.9-7.41,78.48-22.07,100.36a51.47,51.47,0,0,0,5.33-4.88c12.45-22.17,18.74-54.08,18.74-95.48Z" style="fill:#BA68C8"></path><path d="M174.21,362.41c-19.41-17.58-23.1-69-17.62-80.19V247.73H114.82c0,43,18.91,132.78,63.6,132.78,15,0,27.1-10.14,36.55-25.23C215,355.29,193.61,380,174.21,362.41Z" style="fill:#BA68C8;opacity:0.2"></path><path d="M223.39,273.7c-24.84,14.34-65.11,14.34-89.95,0-12.42-7.17-18.62-16.57-18.62-26s6.2-18.79,18.62-26c24.84-14.35,65.11-14.34,89.95,0,12.42,7.17,18.63,16.56,18.63,26S235.81,266.53,223.39,273.7Z" style="fill:#BA68C8"></path><path d="M223.39,273.7c-24.84,14.34-65.11,14.34-89.95,0-12.42-7.17-18.62-16.57-18.62-26s6.2-18.79,18.62-26c24.84-14.35,65.11-14.34,89.95,0,12.42,7.17,18.63,16.56,18.63,26S235.81,266.53,223.39,273.7Z" style="fill:#fff;opacity:0.6000000000000001"></path><path d="M224.08,255.74a30.85,30.85,0,0,0,9.26-26.54,48.94,48.94,0,0,0-10-7.43c-24.84-14.34-65.11-14.34-89.95,0-12.42,7.17-18.62,16.56-18.62,26s6.2,18.8,18.62,26c21.17,12.21,53.53,14,78,5.41-25,7.66-57.45.83-60.21-12.7C166.23,272.72,204.47,275.3,224.08,255.74Z" style="fill:#BA68C8;opacity:0.30000000000000004"></path><path d="M116.31,275.28a23,23,0,0,0,23,39.8c2.94-1.7,4.76-5.34,4.76-10.52,0-10.37-7.27-23-16.24-28.15C123.32,273.82,119.25,273.58,116.31,275.28Z" style="fill:#455a64"></path><path d="M126.61,312.4c-11.76,1.07-20.24-8.35-21.6-20.11a23,23,0,0,0,34.28,22.79c2.94-1.7,4.76-5.34,4.76-10.52a27,27,0,0,0-.88-6.55C143.16,304.58,139.2,311.25,126.61,312.4Z" style="fill:#37474f"></path><path d="M114.45,295.37c-3.6-2.07-6.51-.39-6.51,3.76a14.36,14.36,0,0,0,6.51,11.27c3.59,2.08,6.5.39,6.5-3.76A14.39,14.39,0,0,0,114.45,295.37Z" style="fill:#263238"></path><path d="M110.28,297.78a14.4,14.4,0,0,0,6.51,11.27,5.49,5.49,0,0,0,3.27.86,5.52,5.52,0,0,0,.89-3.27,14.39,14.39,0,0,0-6.5-11.27,5.59,5.59,0,0,0-3.28-.86A5.59,5.59,0,0,0,110.28,297.78Z" style="fill:#BA68C8"></path><path d="M110.57,300.14a14.59,14.59,0,0,0,6.22,8.91,5.49,5.49,0,0,0,3.27.86,5.52,5.52,0,0,0,.89-3.27,11.34,11.34,0,0,0-.53-3.28C118.4,307,111.61,303.67,110.57,300.14Z" style="opacity:0.1"></path><path d="M118.9,307.72a4.5,4.5,0,0,0,.3-1.73,10.49,10.49,0,0,0-4.75-8.22c-1.79-1-3.35-.78-4.15.44a1.92,1.92,0,0,0-.18.31c-8.63,15.13-11,40.14,8.9,66l9.52-7.31C113.69,337.87,113.69,319.65,118.9,307.72Z" style="fill:#263238"></path><path d="M119.54,382.69a2.52,2.52,0,0,1-2.11-1.15,14.77,14.77,0,0,1,.65-17.21,2.5,2.5,0,0,1,4,3,9.86,9.86,0,0,0-.44,11.5,2.5,2.5,0,0,1-2.1,3.85Z" style="fill:#263238"></path><circle cx="123.78" cy="360.83" r="11.54" transform="translate(-232.44 224.34) rotate(-50.1)" style="fill:#BA68C8"></circle><path d="M132.58,368.29c-1.46,1.52-7.58,3-11.63-2.45-4.65-6.28-.34-16.09,6-16.1a11.54,11.54,0,1,0,5.65,18.55Z" style="opacity:0.2"></path><path d="M130.67,353.13a2.27,2.27,0,0,0-.28-.26,7.11,7.11,0,0,0-1.8-1.11,4,4,0,0,0-2.32-.41,1.7,1.7,0,0,0-1.4,1.77c.15.79,1,1.22,1.71,1.56a30.87,30.87,0,0,1,5.31,3.21.75.75,0,0,0,.57.21c.27-.06.37-.39.38-.67C132.94,355.78,131.78,354.35,130.67,353.13Z" style="fill:#fff;opacity:0.30000000000000004"></path><path d="M140.68,375.18A2.5,2.5,0,0,1,138.2,373a9.85,9.85,0,0,0-7.56-8.68,2.5,2.5,0,0,1,1.22-4.85,14.76,14.76,0,0,1,11.31,13,2.49,2.49,0,0,1-2.21,2.75Z" style="fill:#263238"></path><path d="M229.72,228.16c0-7.58-5-15.16-15-20.94-20-11.57-52.51-11.57-72.55,0-10,5.78-15,13.36-15,20.94v9.39c0,7.58,5,15.16,15,20.94,20,11.57,52.52,11.57,72.55,0,10-5.78,15-13.36,15-20.94Z" style="fill:#37474f"></path><path d="M186.47,266.79c-12.34.25-28.38-5.37-24.3-19.86V200.07a64.9,64.9,0,0,0-20,7.15c-10,5.78-15,13.36-15,20.94v9.39c0,7.58,5,15.16,15,20.94C154.21,265.46,170.81,268.22,186.47,266.79Z" style="fill:#263238"></path><path d="M214.69,249.11c-20,11.57-52.51,11.56-72.55,0-10-5.79-15-13.37-15-21s5-15.16,15-20.94c20-11.57,52.52-11.57,72.55,0,10,5.78,15,13.36,15,20.94S224.71,243.32,214.69,249.11Z" style="fill:#263238"></path><path d="M247.45,242l-2.22-2c2.14-2.37,4.6-6,4.15-10-.34-2.94-2.29-5.66-5.81-8.08a56.25,56.25,0,0,0-13-6.71c-.28-1.16-.85-3-1-3.5a57.61,57.61,0,0,1,15.71,7.74c4.25,2.93,6.64,6.37,7.08,10.2C252.94,234.73,250,239.16,247.45,242Z" style="fill:#263238"></path><path d="M248.36,238.17c-2.9-2.27-4.83-1-8.7,3.72s-2.78,6.64-.38,8.53,5,.73,8.06-3.21C250.74,242.78,251.81,240.88,248.36,238.17Z" style="fill:#BA68C8"></path><path d="M241.7,241.4a14.07,14.07,0,0,0-2.61,3.3,3.2,3.2,0,0,0-.3,2.67,3,3,0,0,0,.78,1,3.7,3.7,0,0,0,2.36,1.06.77.77,0,0,0,.45-.1.73.73,0,0,0,.26-.56c.12-.93-.13-1.87,0-2.8.27-2.36,2.75-4.09,2.77-6.46a.81.81,0,0,0-.07-.38c-.26-.48-1-.19-1.39,0a3.2,3.2,0,0,0-.47.43c-.26.27-.53.54-.79.82Z" style="fill:#fff;opacity:0.30000000000000004"></path><path d="M235.86,225.82a57.45,57.45,0,1,0-114.89,0c0,8.48,5.61,17,16.83,23.45,22.43,13,58.8,13,81.24,0C230.26,242.79,235.86,234.31,235.86,225.82Z" style="fill:#BA68C8"></path><path d="M235.86,225.82a57.45,57.45,0,1,0-114.89,0c0,8.48,5.61,17,16.83,23.45,22.43,13,58.8,13,81.24,0C230.26,242.79,235.86,234.31,235.86,225.82Z" style="fill:#fff;opacity:0.8"></path><path d="M228.32,242.25c-29.88,18.41-69.32,16.46-70.21-3.09-.61-13.34-7.5-24.47-16.47-29.63.91-21,14.85-37.65,29.92-40.73h0a57.44,57.44,0,0,0-50.58,57c0,8.48,5.61,17,16.83,23.45,22.43,13,58.8,13,81.24,0a46.31,46.31,0,0,0,6.88-4.81l2.31-2.12Z" style="fill:#BA68C8;opacity:0.30000000000000004"></path><path d="M234.12,211.77a57.26,57.26,0,0,0-15.24-26.72c0,6-3.93,12-11.84,16.53-9.32,5.38-22,7.59-34.17,6.63A10.52,10.52,0,0,0,161.61,217c-.88,5.44-1.42,10.71-1.73,15.4a10.39,10.39,0,0,0,9.3,11.08c17.16,1.66,35.4-1.33,48.63-9C228.68,228.21,234.12,220,234.12,211.77Z" style="fill:#455a64"></path><path d="M183.62,229.55a2.59,2.59,0,0,1-.48,0,2.5,2.5,0,0,1-2-2.93,11.35,11.35,0,0,1,20.55-4.18,2.5,2.5,0,0,1-4.15,2.8,6.35,6.35,0,0,0-11.49,2.33A2.5,2.5,0,0,1,183.62,229.55Z" style="fill:#BA68C8"></path><path d="M183.62,229.55a2.59,2.59,0,0,1-.48,0,2.5,2.5,0,0,1-2-2.93,11.35,11.35,0,0,1,20.55-4.18,2.5,2.5,0,0,1-4.15,2.8,6.35,6.35,0,0,0-11.49,2.33A2.5,2.5,0,0,1,183.62,229.55Z" style="fill:#fff;opacity:0.30000000000000004"></path><path d="M229.61,199.76a11.32,11.32,0,0,0-6.83,9.3,2.5,2.5,0,0,0,2.24,2.73,1.93,1.93,0,0,0,.48,0,2.5,2.5,0,0,0,2.25-2.24,6.34,6.34,0,0,1,3.95-5.23Q230.76,202,229.61,199.76Z" style="fill:#BA68C8"></path><path d="M229.61,199.76a11.32,11.32,0,0,0-6.83,9.3,2.5,2.5,0,0,0,2.24,2.73,1.93,1.93,0,0,0,.48,0,2.5,2.5,0,0,0,2.25-2.24,6.34,6.34,0,0,1,3.95-5.23Q230.76,202,229.61,199.76Z" style="fill:#fff;opacity:0.30000000000000004"></path><g style="opacity:0.1"><path d="M207.38,201.38a119.42,119.42,0,0,1,11.73,32.32,42.57,42.57,0,0,0,6.31-4.69c-2.32-8.78-6.32-20.6-12.87-31.39A31.76,31.76,0,0,1,207.38,201.38Z" style="fill:#fff"></path><path d="M202.76,203.72a54.53,54.53,0,0,1-11.35,3.47,252.5,252.5,0,0,1,4,35.19,76,76,0,0,0,16.46-4.91A207.8,207.8,0,0,0,202.76,203.72Z" style="fill:#fff"></path></g><path d="M106.47,199.53a4.95,4.95,0,1,1-7,0A5,5,0,0,1,106.47,199.53Z" style="fill:#BA68C8"></path><path d="M106.47,199.53a4.95,4.95,0,1,1-8,1.44c0,.12,0,.25.08.37.46,1.45,2.48,2.09,4.5,1.44s3.25-2.3,2.82-3.74A3.83,3.83,0,0,1,106.47,199.53Z" style="opacity:0.30000000000000004"></path><path d="M105.76,204.07a2.76,2.76,0,0,0-1.74,1.75.87.87,0,0,0,.14.86l21,21,2.47-2.47-21-21A.86.86,0,0,0,105.76,204.07Z" style="fill:#263238"></path><path d="M99.8,199.83a.74.74,0,0,0-.15.79c.2.29.65.2,1,.1a19,19,0,0,1,3.78-.38,1.65,1.65,0,0,0,.73-.15.5.5,0,0,0,.11-.73,2,2,0,0,0-.68-.57,3.54,3.54,0,0,0-2.07-.45,3.91,3.91,0,0,0-1.8.55A3.31,3.31,0,0,0,99.8,199.83Z" style="fill:#fff;opacity:0.30000000000000004"></path><path d="M126.3,210.61a23,23,0,0,0,23,39.8c2.94-1.7,4.76-5.34,4.76-10.52,0-10.36-7.27-23-16.24-28.14C133.31,209.16,129.24,208.91,126.3,210.61Z" style="fill:#455a64"></path><path d="M136.6,247.73c-11.76,1.07-20.24-8.35-21.6-20.11a23,23,0,0,0,34.28,22.79c2.94-1.7,4.76-5.34,4.76-10.52a26.87,26.87,0,0,0-.87-6.54C153.15,239.92,149.19,246.58,136.6,247.73Z" style="fill:#37474f"></path><path d="M124.44,230.71c-3.6-2.08-6.51-.4-6.51,3.75a14.36,14.36,0,0,0,6.51,11.27c3.59,2.08,6.5.4,6.5-3.75A14.38,14.38,0,0,0,124.44,230.71Z" style="fill:#263238"></path><path d="M120.27,233.11a14.39,14.39,0,0,0,6.51,11.27,5.49,5.49,0,0,0,3.27.86,5.46,5.46,0,0,0,.89-3.26,14.38,14.38,0,0,0-6.5-11.27,5.52,5.52,0,0,0-3.28-.86A5.53,5.53,0,0,0,120.27,233.11Z" style="fill:#BA68C8"></path><path d="M120.56,235.47a14.56,14.56,0,0,0,6.22,8.91,5.49,5.49,0,0,0,3.27.86,5.46,5.46,0,0,0,.89-3.26,11.35,11.35,0,0,0-.53-3.29C128.39,242.31,121.6,239,120.56,235.47Z" style="opacity:0.1"></path><path d="M196.3,154.2a23.31,23.31,0,0,0-23.53,0l-12.39,7.16a59,59,0,0,0-29.44,51h0a1,1,0,0,0,.59.82,3.14,3.14,0,0,0,2.83,0,1,1,0,0,0,.58-.82h0a55,55,0,0,1,27.44-47.51l12.39-7.16A19.53,19.53,0,0,1,204,173.47s0,.92,0,.93c1.91.93,4,2.2,4,2.2v-2A23.31,23.31,0,0,0,196.3,154.2Z" style="fill:#263238"></path><path d="M131.49,215.14a14.37,14.37,0,0,0-8.47-2.22c-.49.41-1,.83-1.41,1.27a8.4,8.4,0,0,1,2.38-.34,14.26,14.26,0,0,1,7,2.15c8.83,5.1,16,17.53,16,27.71,0,3.94-1.08,7-3,8.94.6-.16,1.21-.37,1.81-.59a14.47,14.47,0,0,0,2.23-8.35C148,233.21,140.59,220.39,131.49,215.14Z" style="fill:#BA68C8"></path><g style="opacity:0.30000000000000004"><path d="M131.49,215.14a14.37,14.37,0,0,0-8.47-2.22c-.49.41-1,.83-1.41,1.27a8.4,8.4,0,0,1,2.38-.34,14.26,14.26,0,0,1,7,2.15c8.83,5.1,16,17.53,16,27.71,0,3.94-1.08,7-3,8.94.6-.16,1.21-.37,1.81-.59a14.47,14.47,0,0,0,2.23-8.35C148,233.21,140.59,220.39,131.49,215.14Z" style="fill:#fff"></path></g></g></g><g id="freepik--Character--inject-32"><g id="freepik--Cushion--inject-32"><path d="M417.31,302.74c4.71-1.72,10.14,2.83,19.22,4.71,16.9,3.5,25.37,8.45,34.46,14.81s11.37,4.31,14.81,8.84-1.91,8.23-2.88,16.16c-1.64,13.36-5.45,23-10.3,29.67-8.56,11.72-5.31,17.52-10.26,18.72-5.28,1.29-6.05-3.32-15.14-4.41-21.49-2.59-31.25-7.3-43.71-18.36-4.86-4.31-9.24-2.72-11.39-7.55-1.07-2.41,2.25-4.71,3.53-13.47,2.13-14.55,7.75-29.14,14.67-37.74C413.34,310.37,412.51,304.49,417.31,302.74Z" style="fill:#BA68C8"></path><path d="M482.65,340.93c-2.63,6.91-.59,12.61-6.33,25.55-5.51,12.42-10.67,16.84-11.93,22.1-1,4.38-3.35,6.89-5.17,2.55S457.64,373,463,359.86c6.21-15.13,11-21.54,14.62-24.45C483.32,330.84,484.72,335.49,482.65,340.93Z" style="opacity:0.2"></path><path d="M423.79,386c6.29,2.46,13.64,4.08,23.43,5.26a21.93,21.93,0,0,1,9.39,3.32c-3.66-3-5.11-7.73-11-8.21C441.36,386,431.63,387.85,423.79,386Zm-31.05-19.54c2.3,3.47,6.33,2.5,10.77,6.44a78.45,78.45,0,0,0,12.57,9.38c-5.37-4.26-6.45-9.82-10.58-12C400.53,367.54,396.65,369.43,392.74,366.44Z" style="opacity:0.2"></path><path d="M427,312.66c12.06-.8,25.09,2.19,35.28,9a9.43,9.43,0,0,1,3.81,6.14,9.24,9.24,0,0,1-2.78,8.47c-2.31,2.23-6.27,3.24-9.19,3.6-6.16.77-10.07.11-17.8,2a18.41,18.41,0,0,0-7.6,4.13c-3.26,3.09-5.48,6.21-8.36,8.84-3.95,3.63-12.38,4.6-15.93,2.49-3.79-2.25-5.63-6.61-4.39-13C402.83,330.13,410.87,315,427,312.66Z" style="fill:#fff;opacity:0.05"></path></g><g id="freepik--cushion--inject-32"><path d="M358.51,292.21c-3.75-1.47-8.21,2.07-15.54,3.4-13.65,2.48-24,7.06-31.44,12s-9.23,3.24-12.08,6.81,1.37,6.65,2,13c1,10.77,3.91,18.62,7.68,24.05,6.64,9.59,3.91,14.18,7.87,15.25,4.21,1.14,4.93-2.55,12.25-3.24,17.32-1.65,28.71-6,38.94-14.65,4-3.37,7.49-2,9.31-5.84.91-1.92-1.72-3.83-2.57-10.89-1.42-11.75-5.65-23.58-11-30.63C361.54,298.43,362.33,293.72,358.51,292.21Z" style="fill:#BA68C8"></path><path d="M358.51,292.21c-3.75-1.47-8.21,2.07-15.54,3.4-13.65,2.48-24,7.06-31.44,12s-9.23,3.24-12.08,6.81,1.37,6.65,2,13c1,10.77,3.91,18.62,7.68,24.05,6.64,9.59,3.91,14.18,7.87,15.25,4.21,1.14,4.93-2.55,12.25-3.24,17.32-1.65,28.71-6,38.94-14.65,4-3.37,7.49-2,9.31-5.84.91-1.92-1.72-3.83-2.57-10.89-1.42-11.75-5.65-23.58-11-30.63C361.54,298.43,362.33,293.72,358.51,292.21Z" style="opacity:0.30000000000000004"></path><path d="M301.79,322.37c2,5.61.22,10.15,4.57,20.66,4.18,10.09,8.24,13.74,9.14,18,.76,3.54,2.56,5.6,4.11,2.15s1.63-14.54-2.44-25.21c-4.69-12.28-8.42-17.53-11.26-19.94C301.45,314.25,300.23,318,301.79,322.37Z" style="opacity:0.2"></path><path d="M330.63,359.61c-4.73.27-6,4-9,6.38a17.65,17.65,0,0,1,7.61-2.48c7.89-.76,13.83-1.91,18.93-3.76C341.85,361.09,334.06,359.42,330.63,359.61Zm36-12.93c-3.37,1.7-4.34,6.15-8.75,9.46a62.59,62.59,0,0,0,10.29-7.28c3.65-3.08,6.87-2.22,8.79-5C373.77,346.22,370.7,344.62,366.65,346.68Z" style="opacity:0.2"></path><path d="M350.51,300c-9.68-.88-22.17,1.08-30.49,6.37-1.58,1.09-4.33,3.79-4.68,5.8A7.44,7.44,0,0,0,317.4,319c1.82,1.83,5,2.73,7.32,3.08,4.93.73,9.64-.51,16.13.72a19.39,19.39,0,0,1,7.6,3.91c2.56,2.54,4.29,5.09,6.55,7.27,3.1,3,9.86,3.94,12.75,2.32,3.09-1.74,4.66-5.21,3.79-10.36C369.6,314.52,363.44,302.16,350.51,300Z" style="fill:#BA68C8;opacity:0.30000000000000004"></path></g><g id="freepik--character--inject-32"><g id="freepik--Bottom--inject-32"><path d="M359.93,413.45l-9.7-17.5-20.31,12.16,21.95,25.66s12.16-.69,14.23-6.46S362.93,415.54,359.93,413.45Z" style="fill:#f28f8f"></path><path d="M371.12,422a9.61,9.61,0,0,1,2.41,2.9c.69,1.13.21,6.44.8,8.94s1.11,3.18,2.15,6.33c1.14,3.49,3.42,6.73.28,15.41s-7.72,12.68-11.51,14.66a9.69,9.69,0,0,1-4.5.87s-4.75-2.05-3.88-4.88S371.12,422,371.12,422Z" style="fill:#263238"></path><path d="M349.44,430.67c.09.92,1.3,2.37,1.78,3.14,1.62,2.57,2.26,6,2.72,8.95,2.21,14.07-3.66,20.9,3.6,26.48,2.11,1.47,6.64,1.3,13.9-7.17,3.71-4.32,6.14-13.46,5-17.7s-2.91-7.05-3.64-10.31,0-9.23-1.64-12.07a13,13,0,0,0-4.18-3.95c-1.29-.87-2.74-3-4.07-3.78s-2-1.75-2.94-.81l1.47,2c2.29,3.5.18,4.85,0,6.65a28.52,28.52,0,0,0,.65,5.78c-1.64-2.27-2.26-4.23-4.18-4s-2.14.15-5,2.58S349.36,429.86,349.44,430.67Z" style="fill:#BA68C8"></path><path d="M349.44,430.67c.09.92,1.3,2.37,1.78,3.14,1.62,2.57,2.26,6,2.72,8.95,2.21,14.07-3.66,20.9,3.6,26.48,2.11,1.47,6.64,1.3,13.9-7.17,3.71-4.32,6.14-13.46,5-17.7s-2.91-7.05-3.64-10.31,0-9.23-1.64-12.07a13,13,0,0,0-4.18-3.95c-1.29-.87-2.74-3-4.07-3.78s-2-1.75-2.94-.81l1.47,2c2.29,3.5.18,4.85,0,6.65a28.52,28.52,0,0,0,.65,5.78c-1.64-2.27-2.26-4.23-4.18-4s-2.14.15-5,2.58S349.36,429.86,349.44,430.67Z" style="opacity:0.4"></path><path d="M371.44,462.07c3.71-4.32,6.14-13.46,5-17.7a37.37,37.37,0,0,0-1.42-4.13c0,.29.12.58.15.82.06.55.1,1.09.13,1.64a12.55,12.55,0,0,1-1,6.3c-.87,1.7-2.89,6-5.24,6-1.33,0-2.39-1.36-2.84-2.87-.18-.64-.46-2.34-.46-2.34a20.52,20.52,0,0,0-6.21,2.2c-3.51,2.09-3.41,2.6-3.41,2.6a8.85,8.85,0,0,1,0,3,7.42,7.42,0,0,1-1.4,2.92,4.87,4.87,0,0,1-.9.65c0,3.22.71,5.79,3.76,8.13C359.65,470.71,364.18,470.54,371.44,462.07Z" style="opacity:0.30000000000000004"></path><path d="M353.94,442.76a47.22,47.22,0,0,1,.36,11.18c1.11,3.63,2.24,3.58,2.48,1.74s-1.87-9.64-3.41-16.07C353.6,440.68,353.79,441.74,353.94,442.76Z" style="fill:#37474f"></path><path d="M363.47,420.8c.28-1.73,1.23-4.42.28-6.05-.33-.17-.63-.34-.88-.49-1.43-.91-2-1.75-2.94-.81l1.47,2c2.29,3.5.18,4.85,0,6.65a28.52,28.52,0,0,0,.65,5.78c1.14,6.12,2.34,8.2,2.74,13.95s-.92,9.54-.12,9.9,2.45-.21,3-4.78-1.16-12.36-2.41-16.08S363.06,423.23,363.47,420.8Z" style="fill:#37474f"></path><path d="M366.12,450.16a.57.57,0,0,1-.3.15c-4.05.64-6.24,1.55-9.39,4.93a.59.59,0,0,1-.81,0,.58.58,0,0,1,0-.81c3.33-3.57,5.74-4.6,10.05-5.28a.57.57,0,0,1,.65.48A.57.57,0,0,1,366.12,450.16Z" style="fill:#ebebeb"></path><path d="M365.62,445.36a.54.54,0,0,1-.3.15,15.38,15.38,0,0,0-9.9,5.4.58.58,0,0,1-.83,0,.59.59,0,0,1,0-.83c3.53-3.74,6.09-4.93,10.54-5.74a.59.59,0,0,1,.51,1Z" style="fill:#ebebeb"></path><path d="M366,440.12a.65.65,0,0,1-.32.16c-4.63.85-7.38,2.14-11.07,6.06a.64.64,0,0,1-.91,0,.65.65,0,0,1,0-.91c3.88-4.12,6.87-5.55,11.78-6.45a.64.64,0,0,1,.55,1.11Z" style="fill:#ebebeb"></path><path d="M365.41,435.6a.73.73,0,0,1-.32.15c-4.54.83-7.2,2.08-10.82,5.93a.65.65,0,0,1-.9,0,.64.64,0,0,1,0-.9c3.8-4,6.71-5.42,11.51-6.3a.62.62,0,0,1,.74.51A.65.65,0,0,1,365.41,435.6Z" style="fill:#ebebeb"></path><path d="M364,431.15a.65.65,0,0,1-.32.16c-4.54.83-7.2,2.07-10.82,5.93a.64.64,0,0,1-.9,0,.62.62,0,0,1,0-.89c3.8-4.05,6.7-5.43,11.51-6.31a.64.64,0,0,1,.55,1.09Z" style="fill:#ebebeb"></path><path d="M377.14,351.56s-32.22-6.38-57.88-1.93c-18.62,3.23-16.92,18.35-13.58,27.66,6.59,18.41,36.89,47.4,36.89,47.4s14-6.07,17-15.32l-7.69-16.24L375,399.72l2.55-3.3Z" style="fill:#455a64"></path><path d="M337.06,419.18c3.32,3.41,5.51,5.51,5.51,5.51s14-6.07,17-15.32l-3.13-6.62Z" style="fill:#37474f"></path><path d="M347.68,379.23a162.42,162.42,0,0,1,10,15.56l-5.83-1.66c-7-15.3-8.46-19.78-19.08-26.72C332.8,366.41,340.35,369,347.68,379.23Z" style="fill:#37474f"></path><polygon points="350.89 416.12 338.99 425.84 332.26 430.06 339.24 444.92 361.58 434.23 350.89 416.12" style="fill:#f28f8f"></polygon><path d="M305,437.63c-5.09,2-8.23,4-10.59,7.1s-3.07,6.19-.83,9.91,6.34,8.1,11.21,7.82,7.88-1.5,12.4-4Z" style="fill:#263238"></path><path d="M345.68,441.94c.07,1.52-6.36,4.57-13,7.75-7.16,3.42-8.92,5.65-14.77,8.52-6.68,3.29-9.22,3.48-14.4,2s-11.58-8.86-7.13-15.69c3.63-5.56,8.34-7.09,15.48-9a135.43,135.43,0,0,0,16.7-5.39c5.16-2,9.4-5.6,10.47-4.36a39.88,39.88,0,0,0-5.11,4.6c-.27.46-.77,1.4.55.85a3,3,0,0,1,2.13-.2c.6.3,2.72,3.51,3.4,5.12.4.94,1.75,4.07,1,5.41-.28.52-2.23,1.93-1.58,2.31a3.76,3.76,0,0,0,2-.26c.47-.19,1-.32,1.51-.49S344.5,442.49,345.68,441.94Z" style="fill:#BA68C8"></path><path d="M345.68,441.94c.07,1.52-6.36,4.57-13,7.75-7.16,3.42-8.92,5.65-14.77,8.52-6.68,3.29-9.22,3.48-14.4,2s-11.58-8.86-7.13-15.69c3.63-5.56,8.34-7.09,15.48-9a135.43,135.43,0,0,0,16.7-5.39c5.16-2,9.4-5.6,10.47-4.36a39.88,39.88,0,0,0-5.11,4.6c-.27.46-.77,1.4.55.85a3,3,0,0,1,2.13-.2c.6.3,2.72,3.51,3.4,5.12.4.94,1.75,4.07,1,5.41-.28.52-2.23,1.93-1.58,2.31a3.76,3.76,0,0,0,2-.26c.47-.19,1-.32,1.51-.49S344.5,442.49,345.68,441.94Z" style="opacity:0.4"></path><path d="M320.16,457.11c-1,.48-7,3.3-8.92,1.61-2.07-1.83,2.8-4.75,2.8-4.75s.74-4.57-4.78-11.3c-1,.74-4.94.7-4.89-1.65s6.74-5.22,6.83-5.26c-6.83,1.83-11.33,3.4-14.86,8.8-4.45,6.83,1.94,14.25,7.13,15.69s7.72,1.25,14.4-2C318.54,457.88,319.58,457.45,320.16,457.11Z" style="opacity:0.30000000000000004"></path><path d="M313.39,453.51c-2.53.85-.8,3.15,2.91,2.4,5.55-1.12,10.16-4.27,16.34-6.22,6.68-3.18,13.49-6.15,13.05-7.84-1.2.45-3.75,1.51-3.75,1.51-.5.22-1.79.7-1.79.7-5.07,2.18-10.67,5.7-16.15,7.18C319.18,452.55,315.92,452.67,313.39,453.51Z" style="fill:#37474f"></path><path d="M309.63,443.53c2.31-1.34,2.72-2.48,7.26-4.57s12.21-6.54,16.95-9.3a59.18,59.18,0,0,0,5.15-3.82c-.79-.89-3.68-.06-6.57,1.76s-4.66,3-7.53,4.48c-5.57,3.35-11.92,5.61-15.1,7.66S307.31,444.87,309.63,443.53Z" style="fill:#37474f"></path><path d="M309.29,442.92a.63.63,0,0,0,.13.2,20.23,20.23,0,0,1,4.33,11.21.67.67,0,0,0,.63.62.55.55,0,0,0,.52-.64c-.71-7.67-4.51-11.84-4.72-12.06a.53.53,0,0,0-.81,0A.66.66,0,0,0,309.29,442.92Z" style="fill:#f0f0f0"></path><path d="M313.78,439.64a.52.52,0,0,0,.11.19,27.59,27.59,0,0,1,5.37,13.22.66.66,0,0,0,.65.61.56.56,0,0,0,.49-.67,28.47,28.47,0,0,0-5.71-14,.55.55,0,0,0-.82-.06A.65.65,0,0,0,313.78,439.64Z" style="fill:#f0f0f0"></path><path d="M323.67,452.58a.64.64,0,0,0,.53.41.56.56,0,0,0,.56-.61c-.27-8.11-5.49-15.72-5.74-16a.53.53,0,0,0-.81,0,.7.7,0,0,0,.05.9c.05.06,5.1,7.5,5.34,15.05A.77.77,0,0,0,323.67,452.58Z" style="fill:#f0f0f0"></path><path d="M327.82,449.93a.63.63,0,0,0,.52.4.54.54,0,0,0,.57-.59,23.9,23.9,0,0,0-6.05-15.17.54.54,0,0,0-.81,0,.7.7,0,0,0,.1.9,23,23,0,0,1,5.61,14.15A.64.64,0,0,0,327.82,449.93Z" style="fill:#f0f0f0"></path><path d="M333.2,447.66a.65.65,0,0,0,.52.4.54.54,0,0,0,.57-.58c0-8.44-6-15-6.23-15.23a.53.53,0,0,0-.81,0,.68.68,0,0,0,.08.9c.06.06,5.78,6.37,5.81,14.21A.72.72,0,0,0,333.2,447.66Z" style="fill:#ebebeb"></path><path d="M375.12,351.18l66.75,12.23s6.63,25,.94,39.82-20.59,19.5-27.72,20c-10.2.79-22-2.36-22-2.36a56.69,56.69,0,0,1-11.84,7c-6,2.37-32.07,13.3-32.07,13.3s-10.59-3.42-9.86-16.35l30.87-32.16Z" style="fill:#455a64"></path><path d="M398.56,412.22s-3.94,5.72-16.72,11.14c-6.78,2.88-28.49,13.19-36.56,15.66a14.2,14.2,0,0,0,3.85,2.17s26.1-10.93,32.07-13.3a56.69,56.69,0,0,0,11.84-7C398.65,416,398.56,412.22,398.56,412.22Z" style="fill:#37474f"></path><path d="M406.7,418.47c6.38,1,23.58-2.14,29.16-14.26,5.47-11.86,3.63-26,2.41-38.2l2.06.49,2.38.55c1.58,7.48,4.47,24.83.1,36.18-5.69,14.79-20.59,19.5-27.72,20-10.2.79-22-2.36-22-2.36l3.39-5.25A43.67,43.67,0,0,0,406.7,418.47Z" style="fill:#37474f"></path><path d="M365.87,397.11s2.51-2.7,5-5.67,6.6-8.57,17.08-8.17,30.62,2.22,30.62,2.22-21-3.58-28.26-4.79-12.09-.36-16.23,3.3-11.51,12.18-11.51,12.18Z" style="fill:#37474f"></path><path d="M381.21,382.4a20.87,20.87,0,0,1-4.9-14.54s-2.51,9.56,1.51,16.51Z" style="fill:#37474f"></path></g><g id="freepik--Top--inject-32"><path d="M386.57,279.59c-8,1.47-14.59,3.52-19.41,11.88-4.56,7.93-23.63,41.21-23.63,41.21l22.15,11.62,16.2-27.82Z" style="fill:#BA68C8"></path><path d="M386.57,279.59c-8,1.47-14.59,3.52-19.41,11.88-4.56,7.93-23.63,41.21-23.63,41.21l22.15,11.62,16.2-27.82Z" style="fill:#fff;opacity:0.55"></path><g id="freepik--Chest--inject-32"><path d="M375.32,308.94c2.75-22.77,11-28.61,15.16-29.89L407,277.3c4.9,1,25.41,9.28,31.09,11.25,3.65,1.27,5.23,9,6,21.2.64,9.89.74,18.17.41,31.83-.27,11.45-.55,24.5-4.05,40.42-26.38,5.46-55.55-6.59-68.87-32.37.74-3.16,1.07-7.13,1.64-15S374.58,315.11,375.32,308.94Z" style="fill:#263238"></path><path d="M440.13,289.08l-17.65-8s-2.23,5.18-7,15.13-5,14.46-5.4,31.82,0,54.87-2,61.91c7.65,1.06,33-.76,37.62-3.58,0,0,.42-28.41,1.07-46.15S448.82,294.1,440.13,289.08Z" style="fill:#BA68C8"></path><path d="M440.13,289.08l-17.65-8s-2.23,5.18-7,15.13-5,14.46-5.4,31.82,0,54.87-2,61.91c7.65,1.06,33-.76,37.62-3.58,0,0,.42-28.41,1.07-46.15S448.82,294.1,440.13,289.08Z" style="fill:#fff;opacity:0.35000000000000003"></path><path d="M399.52,279.59c-7,2.74-12.17,10.54-13.83,21.33s-3.31,32.79-4.47,40.93S375.56,362,375.56,362c-3.18-2-6.56-9-6.7-14,1.72-5,2-7.38,2.73-14.17s2.51-22.46,3.53-30.74,4-18.56,11.45-23.55a80.12,80.12,0,0,1,12.87-1.87Z" style="fill:#BA68C8"></path><path d="M399.52,279.59c-7,2.74-12.17,10.54-13.83,21.33s-3.31,32.79-4.47,40.93S375.56,362,375.56,362c-3.18-2-6.56-9-6.7-14,1.72-5,2-7.38,2.73-14.17s2.51-22.46,3.53-30.74,4-18.56,11.45-23.55a80.12,80.12,0,0,1,12.87-1.87Z" style="fill:#fff;opacity:0.35000000000000003"></path><path d="M384.93,307.15c1-7.94,5.48-22.15,14.08-25a6.9,6.9,0,0,0,.51-2.52l-.08-4.12a35.29,35.29,0,0,0-7.33,3.58c-3.71,2.4-10.12,10.06-11.77,16.25C384.06,292.13,385.54,297.27,384.93,307.15Z" style="fill:#BA68C8"></path><path d="M384.93,307.15c1-7.94,5.48-22.15,14.08-25a6.9,6.9,0,0,0,.51-2.52l-.08-4.12a35.29,35.29,0,0,0-7.33,3.58c-3.71,2.4-10.12,10.06-11.77,16.25C384.06,292.13,385.54,297.27,384.93,307.15Z" style="fill:#fff;opacity:0.55"></path><g id="freepik--Head--inject-32"><path d="M421.56,271.63c1.46-5.44,7.51-10.69,10.45-15.28,2.83-4.42,4.59-7.9,4.74-12.29.08-2.61-1.22-6.27-3.07-7.19,3.13-9.41-3.66-14.56-7.41-15.84a41.41,41.41,0,0,1-5.17-2c-2-1.07-2.31-2.79-3.86-4.38-2.66-2.73-7.53-3.25-9.74.3-1.69-2.67-4.31-2.86-7.4-2.38a5.18,5.18,0,0,0-4.5,5.45c-3.82-2.64-7.79-.14-8.39,2.2-.44,1.73-.21,3.24-1.5,4.7-1.46,1.64-3.89,1.38-4.5-.12-.65,2.45.14,4.44,2.85,4.56a5.64,5.64,0,0,0-1.15,4.68,5.18,5.18,0,0,0,4.32,4,9.08,9.08,0,0,0,.84,3.91,8.91,8.91,0,0,0,2.91,3.16c3.89,2.33,8.35,3.39,12.66,4.72l5.12,1.57c.3.1,1.87.34,2,.63Z" style="fill:#263238"></path><path d="M428.94,265.11c-4.11,2-6.5-.81-6.5-.81l-.63,11.19,0,9.11s-11,11.8-26,11.09c-.76-3.36.33-9.27,2.75-12.16l.37-8.63a54,54,0,0,1-6.56-.92,11.51,11.51,0,0,1-8.41-9.6,50,50,0,0,1,1.2-18.86,16.24,16.24,0,0,0,.66-4.54c0-4.07.92-6.35,2.28-9.64,5.14-3.39,16.74-3.5,26.44,3.73-1.77,6,.15,11.09,4.38,13.85-.36,1.63-1,5.79,1.76,6,2,.13,2.33-2.31,4.54-4.29s7-2.11,8.48,1.26C435.76,256.56,433.44,263,428.94,265.11Z" style="fill:#f28f8f"></path><path d="M398.87,274.9c6.95-.16,12.25-.42,16.3-5.06a43.09,43.09,0,0,0,4.92-7.77s-1.28,6-3.92,9.95c-2,3-6.53,5.26-17.4,5.17Z" style="fill:#b16668"></path><path d="M403.44,247.9a1.95,1.95,0,1,0,2.19-1.76A2,2,0,0,0,403.44,247.9Z" style="fill:#263238"></path><path d="M405.6,242.05l3.71,3a2.49,2.49,0,0,0-.4-3.43A2.32,2.32,0,0,0,405.6,242.05Z" style="fill:#263238"></path><path d="M387.61,240.75l4.74-.61a2.29,2.29,0,0,0-2.59-2.1A2.51,2.51,0,0,0,387.61,240.75Z" style="fill:#263238"></path><path d="M387.66,245.44a1.95,1.95,0,1,0,2.18-1.76A2,2,0,0,0,387.66,245.44Z" style="fill:#263238"></path><path d="M389.36,253.06l6.28,3.92,3.92-12.84C397.2,242.9,393.14,248.48,389.36,253.06Z" style="fill:#b16668"></path><path d="M403.16,261.18l-8.29.58a4.08,4.08,0,0,0,4.33,4A4.35,4.35,0,0,0,403.16,261.18Z" style="fill:#b16668"></path><path d="M402,262.35a4.1,4.1,0,0,1,1,.16,4.31,4.31,0,0,1-3.8,3.23,3.86,3.86,0,0,1-1.32-.15A3.81,3.81,0,0,1,402,262.35Z" style="fill:#ffa8a7"></path></g><path d="M410.76,312.45c1.92-15.58,8.45-16.39,10-11.27,5.67-8.49,5.92-15.78,5.83-18.69-1.55-2.68-2.76-4.93-3.28-5.94-.68-1.33-1.46-1.06-1.46-1.06l0,4s-.91,4.54-5.57,10.27C412.78,293.92,411.58,299.3,410.76,312.45Z" style="fill:#BA68C8"></path><path d="M410.76,312.45c1.92-15.58,8.45-16.39,10-11.27,5.67-8.49,5.92-15.78,5.83-18.69-1.55-2.68-2.76-4.93-3.28-5.94-.68-1.33-1.46-1.06-1.46-1.06l0,4s-.91,4.54-5.57,10.27C412.78,293.92,411.58,299.3,410.76,312.45Z" style="fill:#fff;opacity:0.55"></path></g><g id="freepik--Tablet--inject-32"><path d="M333,316.78h0l1.55-1.46v0a1.84,1.84,0,0,1,1.65-.25l19.16,4.46a6.43,6.43,0,0,1,4.08,3.51l14,35.83a1.63,1.63,0,0,1-.16,1.86h0l-1.61,1.51v0a1.81,1.81,0,0,1-1.67.27l-19.16-4.46a6.43,6.43,0,0,1-4.08-3.51l-14-35.82A1.6,1.6,0,0,1,333,316.78Z" style="fill:#455a64"></path><path d="M355.76,322a6.26,6.26,0,0,1,2.14,2.59l14,35.81a1.74,1.74,0,0,1-.1,1.83l1.51-1.41h0a1.65,1.65,0,0,0,.16-1.87l-14-35.82a6.14,6.14,0,0,0-2-2.45Z" style="fill:#455a64"></path><path d="M371.94,360.36l-14-35.83a6.45,6.45,0,0,0-4.08-3.51l-19.16-4.46c-1.64-.37-2.47.59-1.86,2.16l14,35.82a6.43,6.43,0,0,0,4.08,3.51l19.16,4.46C371.72,362.89,372.55,361.92,371.94,360.36Z" style="fill:#263238"></path><path d="M358.18,332.15l-2.63-6.7a1.22,1.22,0,0,0-.76-.66l-3.31-.76c-.31-.07-.46.11-.35.4l2.63,6.71a1.19,1.19,0,0,0,.76.66l3.31.76C358.14,332.63,358.29,332.45,358.18,332.15Z" style="fill:#455a64"></path><path d="M355.46,327.08a3.06,3.06,0,0,0-1.95-1.62c-.79-.18-1.21.25-.92,1a3,3,0,0,0,1.94,1.62C355.32,328.22,355.74,327.79,355.46,327.08Z" style="fill:#263238"></path><path d="M356.74,330.47a3.05,3.05,0,0,0-1.94-1.63c-.8-.18-1.21.25-.93,1a3,3,0,0,0,1.94,1.62C356.6,331.61,357,331.18,356.74,330.47Z" style="fill:#263238"></path><path d="M337.35,339.61c-1.86-2.08-1.74-2.4-1-3.65a7.17,7.17,0,0,1,5.46-3.59c2-.16,4-.42,5.08,0s.44,2.66-2.08,3.53c-4,1.36-3.83,2.46-3.83,2.46a51.52,51.52,0,0,1,5.16-1.5c1.5-.25,4.33.17,6.08.25s2.33,2.27-.5,3.35l3.2.16c2.25.11,3.12,1.2,1.54,2.75a3.21,3.21,0,0,1-1.91,1s2.35-.26,2.48.52c.38,2.22-1,3-5.6,4.86-4.38,1.81-5,4.35-4,5.93,0,0-1.94-.86-3.68-1.8-1.28-.69-2.39-1.51-2.06-3.42,0,0-2.58.33-2.91-1.25a8.31,8.31,0,0,1,.25-3.49,2.86,2.86,0,0,1-1.72-2.5,4.61,4.61,0,0,1,.64-2.91Z" style="fill:#f28f8f"></path><path d="M351.72,340.46a14.69,14.69,0,0,0-2.89,0,9.45,9.45,0,0,0-2.68,1.18,33,33,0,0,0-4.69,3.22,33.91,33.91,0,0,0,5.1-2.49A14.86,14.86,0,0,1,349,341.1C349.82,340.86,350.81,340.74,351.72,340.46Z" style="fill:#b16668"></path><path d="M354.55,344.34a6.34,6.34,0,0,0-3.11.25,16.76,16.76,0,0,0-2.84,1.25,29.16,29.16,0,0,0-5.07,3.47,60.6,60.6,0,0,0,5.47-2.73A16.25,16.25,0,0,1,354.55,344.34Z" style="fill:#b16668"></path></g><path d="M385,364.21c-6.23-1.39-9.17-1.33-16.28-4.75a39.53,39.53,0,0,1-7-3.94,15.81,15.81,0,0,1-4.58-5.39,4.94,4.94,0,0,0-.63-1.15,11.14,11.14,0,0,0-.93-.89,8.55,8.55,0,0,1-1.72-1.73,13.84,13.84,0,0,1-1.07-2.39,11,11,0,0,0-.47-1.12,7.29,7.29,0,0,0-.73-1,10,10,0,0,1-1.85-2.67,1.71,1.71,0,0,1,.17-1.62s-1-.93-1.37-1.27a10,10,0,0,1-1.27-1.55A1.05,1.05,0,0,1,347,334a.76.76,0,0,1,.25-.36c1.67-1.59,3.94-.72,5.85.19,4.95,2.38,10.5,5.94,12.83,7.14s4.67,1.84,4.47.45-3.12-5-3.51-9.26c-.19-2.12,1.64-4.52,3.36-2.09,3.31,4.69,3.39,3.73,7.52,8,2.73,2.84,4.39,6.72,8.77,7.84s32,3.5,32,3.5l8.78-33.63s4.16-20.77,12.75-26.72c8.87,4,13.67,10.57,14.22,15.07,1,7.89-.89,14.85-5.63,33.16-4,15.53-7.91,25.22-10.85,30.73-3.65,6.82-6,6-20.77,3.73C406.23,370.07,391.26,365.6,385,364.21Z" style="fill:#f28f8f"></path><path d="M418.6,349.43c5.8-.78,12.54,2,12.54,2a22.91,22.91,0,0,0-12-3.76Z" style="fill:#b16668"></path><path d="M350,337.83c1,1,2.1,1.88,3.18,2.75s2.2,1.73,3.29,2.59c.55.43,1.08.89,1.66,1.3s1.15.79,1.74,1.15c1.19.73,2.39,1.41,3.62,2l-1.72-1.18c-.57-.38-1.15-.77-1.71-1.17s-1.14-.79-1.68-1.22-1.08-.87-1.63-1.3c-1.1-.87-2.22-1.7-3.36-2.5Z" style="fill:#b16668"></path><path d="M352.22,342.69a17.42,17.42,0,0,0,2.15,2.53c.78.76,1.59,1.48,2.42,2.17s1.67,1.35,2.54,2a25.81,25.81,0,0,0,2.7,1.74c-.84-.68-1.65-1.38-2.48-2.07L357.08,347l-2.47-2.06C353.8,344.22,353,343.46,352.22,342.69Z" style="fill:#b16668"></path><path d="M406,348.26c2.74,3.25,1.85,18.28,0,21.94a110.69,110.69,0,0,0,26.68,4.41c3.32.06,5-2.11,8-9.1s9.27-24.81,12-37.8,4.24-22.28,1.37-28.15-8-8.22-13.91-10.48c-3.82,2.21-9.79,8.64-13.57,24.72l-8.42,35Z" style="fill:#BA68C8"></path><path d="M406,348.26c2.74,3.25,1.85,18.28,0,21.94a110.69,110.69,0,0,0,26.68,4.41c3.32.06,5-2.11,8-9.1s9.27-24.81,12-37.8,4.24-22.28,1.37-28.15-8-8.22-13.91-10.48c-3.82,2.21-9.79,8.64-13.57,24.72l-8.42,35Z" style="fill:#fff;opacity:0.55"></path><path d="M418.14,348.81a35.33,35.33,0,0,1,12,4.63s-2.61-5.54-11.47-7Z" style="fill:#BA68C8;opacity:0.35000000000000003"></path></g></g></g><g id="freepik--Text--inject-32"><path d="M276,148.12V130.47a1.73,1.73,0,0,1,1-1.48l.75-.44q1-.59,1,.3v6.81l3.07-1.77v-6.81a1.71,1.71,0,0,1,1-1.48l.73-.43c.69-.4,1-.31,1,.28v17.66a1.73,1.73,0,0,1-1,1.48l-.73.42c-.7.4-1,.31-1-.28v-7.2l-3.07,1.77v7.2a1.7,1.7,0,0,1-1,1.47l-.75.44C276.36,148.81,276,148.71,276,148.12Z" style="fill:#455a64"></path><path d="M287.14,141.7V128.93a1.77,1.77,0,0,1,1.07-1.5l.5-.29c.72-.42,1.08-.33,1.08.26v12.77a1.76,1.76,0,0,1-1.08,1.5l-.5.29C287.5,142.38,287.14,142.29,287.14,141.7Zm.12-16.07V124c0-.59.4-1.12,1.2-1.58s1.26-.43,1.26.16v1.65c0,.59-.4,1.12-1.2,1.58S287.26,126.22,287.26,125.63Z" style="fill:#455a64"></path><path d="M292,138.88v-2.54a1.71,1.71,0,0,1,1-1.48l.59-.34c.69-.41,1-.31,1,.28v2.54a1.73,1.73,0,0,1-1,1.48l-.59.34C292.37,139.56,292,139.47,292,138.88Zm.55-5.82c-.13-.07-.19-.26-.19-.57V121a1.73,1.73,0,0,1,1-1.49l.82-.47a1.16,1.16,0,0,1,.76-.23c.19,0,.28.16.28.4l-.91,12.11a2.19,2.19,0,0,1-.22.82,1.8,1.8,0,0,1-.7.59l-.14.09C293,133.05,292.7,133.12,292.58,133.06Z" style="fill:#455a64"></path><path d="M276,174.18V156.53a1.74,1.74,0,0,1,1-1.49l.75-.43c.68-.39,1-.29,1,.29v6.82l3.07-1.77v-6.82a1.72,1.72,0,0,1,1-1.48l.73-.42c.69-.4,1-.31,1,.28v17.65a1.74,1.74,0,0,1-1,1.49l-.73.42c-.7.4-1,.31-1-.28v-7.2l-3.07,1.77v7.2a1.7,1.7,0,0,1-1,1.47l-.75.43C276.36,174.86,276,174.77,276,174.18Z" style="fill:#455a64"></path><path d="M287.73,166.55c-.62-.92-.93-2.59-.93-5a17.06,17.06,0,0,1,.92-6,6.48,6.48,0,0,1,2.73-3.49c1.21-.69,2.12-.58,2.74.33s.93,2.57.93,5a17.22,17.22,0,0,1-.93,6.07,6.48,6.48,0,0,1-2.74,3.5C289.26,167.58,288.35,167.47,287.73,166.55Zm3.48-4.28a18.2,18.2,0,0,0,.23-3.39,13.9,13.9,0,0,0-.23-3.13c-.15-.54-.39-.71-.74-.51a2,2,0,0,0-.76,1.38,18,18,0,0,0-.23,3.38,14.07,14.07,0,0,0,.23,3.14c.15.55.4.72.76.51A2,2,0,0,0,291.21,162.27Z" style="fill:#455a64"></path><path d="M297.56,162.49q-.18,0-.21-.33l-1.9-11.72c0-.11,0-.24,0-.41,0-.48.37-.93,1.1-1.35s1.27-.54,1.29-.16l.46,6.54.18,3,.07,0c.07-1.11.17-2.23.29-3.37l.75-7.1a1,1,0,0,1,.28-.59,2.47,2.47,0,0,1,.65-.53l.47-.27a1.28,1.28,0,0,1,.64-.22.25.25,0,0,1,.29.26l.75,6.29c.09.67.18,1.67.27,3l.07,0c0-.27,0-.54.06-.83s0-.54,0-.76l.09-1.57.49-7.09c0-.41.43-.83,1.2-1.28s1.09-.39,1.09.09c0,.17,0,.31,0,.42l-1.86,13.91a1.3,1.3,0,0,1-.74,1l-.57.33a.89.89,0,0,1-.56.18c-.1,0-.17-.14-.19-.32l-1.13-6.61c0-.44-.06-.78-.07-1,0-.54-.05-.87-.07-1l-.08,0c0,.48-.06.85-.07,1.09,0,.59,0,1-.07,1.12l-1.11,7.9a1.1,1.1,0,0,1-.2.55,1.77,1.77,0,0,1-.53.45l-.6.34A.85.85,0,0,1,297.56,162.49Z" style="fill:#455a64"></path><path d="M310.18,148.11q0-7.47,3.87-9.71a3.5,3.5,0,0,1,1.24-.46,1.59,1.59,0,0,1,1,.14.79.79,0,0,1,.38.73,6,6,0,0,1-.28,1.45c-.19.64-.36,1-.53,1.11a.42.42,0,0,1-.34,0,4.76,4.76,0,0,0-.58-.07,1.25,1.25,0,0,0-.59.19,2.65,2.65,0,0,0-1.09,1.6,12.41,12.41,0,0,0-.36,3.43,9.1,9.1,0,0,0,.34,3,.66.66,0,0,0,1.06.37,3,3,0,0,0,.59-.48,6.1,6.1,0,0,0,.45-.54l.23-.3a3.16,3.16,0,0,1,.32-.38c.18-.1.36.06.53.48a3,3,0,0,1,.26,1.17,2.36,2.36,0,0,1-.45,1.22,7.35,7.35,0,0,1-1.08,1.32,6.19,6.19,0,0,1-1.15.91Q310.17,155.5,310.18,148.11Z" style="fill:#455a64"></path><path d="M318.64,149.46a4.65,4.65,0,0,1-.63-2.81,8.07,8.07,0,0,1,4.17-7.54v-.44a1.82,1.82,0,0,0-.26-1.16c-.17-.18-.45-.16-.83.06a2.71,2.71,0,0,0-.7.55c-.2.22-.43.49-.68.82a1.68,1.68,0,0,1-.38.44c-.12.07-.25,0-.39-.19a2.77,2.77,0,0,1-.38-.73,2.25,2.25,0,0,1-.16-.75,2.29,2.29,0,0,1,.42-1.14,7.14,7.14,0,0,1,1.09-1.31,7.87,7.87,0,0,1,1.37-1c1.25-.71,2.15-.81,2.71-.29a4.11,4.11,0,0,1,.84,3v5c0,.84,0,1.48.05,1.9s.06.89.11,1.4a3.25,3.25,0,0,1,.06.57c0,.3-.25.66-.73,1.08a7.7,7.7,0,0,1-1.28,1c-.19.11-.33.08-.4-.09a4.52,4.52,0,0,1-.24-.94,7.11,7.11,0,0,1-.74,1.53,3.5,3.5,0,0,1-1.2,1.19C319.67,150,319.07,150,318.64,149.46Zm3.15-3.86a3.43,3.43,0,0,0,.39-.89v-3.23a3.71,3.71,0,0,0-1.79,3.49,2,2,0,0,0,.23,1.1c.16.21.37.24.65.08A1.54,1.54,0,0,0,321.79,145.6Z" style="fill:#455a64"></path><path d="M327.29,144.58v-8.8c0-1.31,0-2.22-.09-2.74s-.09-.84-.09-1a1.81,1.81,0,0,1,.75-1.17,7.87,7.87,0,0,1,1.31-1c.22-.13.37-.11.44.05a2.06,2.06,0,0,1,.16.69c0,.31.05.55.08.72a9.73,9.73,0,0,1,1-2.08,3.93,3.93,0,0,1,1.35-1.37c.66-.38,1.16-.35,1.5.11a4.56,4.56,0,0,1,.51,2.56v10a1.74,1.74,0,0,1-1,1.48l-.61.35c-.69.4-1,.31-1-.28v-9a2.23,2.23,0,0,0-.14-1c-.1-.17-.27-.19-.52,0a2.6,2.6,0,0,0-.89,1.4V143a1.36,1.36,0,0,1-.26.8,2.15,2.15,0,0,1-.77.67l-.62.36C327.63,145.26,327.29,145.17,327.29,144.58Z" style="fill:#455a64"></path><path d="M339.31,137.64V120a1.74,1.74,0,0,1,1-1.51l.75-.43c.68-.39,1-.29,1,.32V136a1.72,1.72,0,0,1-1,1.5l-.75.44C339.65,138.35,339.31,138.24,339.31,137.64Z" style="fill:#455a64"></path><path d="M347.33,133V113.92a1.74,1.74,0,0,1,1-1.49l.61-.35c.69-.4,1-.3,1,.28v7.15a8.9,8.9,0,0,1,1-1.9,3.87,3.87,0,0,1,1.28-1.27c.66-.38,1.16-.34,1.5.11a4.44,4.44,0,0,1,.52,2.56v10a1.71,1.71,0,0,1-1,1.48l-.6.35c-.7.4-1,.31-1-.28v-9a2,2,0,0,0-.16-1c-.11-.17-.29-.18-.54,0a2.5,2.5,0,0,0-.88,1.39v9.57a1.76,1.76,0,0,1-1,1.49l-.61.35C347.68,133.69,347.33,133.59,347.33,133Z" style="fill:#455a64"></path><path d="M357.15,126.52c-.66-.86-1-2.5-1-4.9a16.64,16.64,0,0,1,1-6.37,6.72,6.72,0,0,1,2.75-3.32c1.17-.67,2-.53,2.55.44a11.57,11.57,0,0,1,.78,5.06,3.8,3.8,0,0,1-.36,1.19,2.59,2.59,0,0,1-.55,1l-3.4,2a2.79,2.79,0,0,0,.41,1.76c.25.25.59.25,1,0a3.59,3.59,0,0,0,.72-.58c.21-.24.42-.49.62-.77a3.08,3.08,0,0,1,.38-.45c.12-.07.25,0,.4.17a2.26,2.26,0,0,1,.38.69,2.2,2.2,0,0,1,.15.7,2.41,2.41,0,0,1-.48,1.34,7.39,7.39,0,0,1-1.14,1.31,6.56,6.56,0,0,1-1.16.88C358.83,127.42,357.81,127.38,357.15,126.52Zm3.66-8.52a11.06,11.06,0,0,0-.22-2.68c-.14-.47-.38-.62-.72-.42a1.9,1.9,0,0,0-.74,1.22,15.1,15.1,0,0,0-.33,3Z" style="fill:#455a64"></path><path d="M365,119.64V103.7a1.79,1.79,0,0,1,1.08-1.51l.5-.29c.72-.41,1.07-.32,1.07.27v16a1.46,1.46,0,0,0,.1.64q.11.17.33,0a1.2,1.2,0,0,0,.2-.17,1.12,1.12,0,0,1,.2-.17c.15-.09.28.08.38.51a6,6,0,0,1,.14,1.23,2,2,0,0,1-.53,1.28,4.28,4.28,0,0,1-1.16,1Q365,123.84,365,119.64Z" style="fill:#455a64"></path><path d="M370.35,125.34V111c0-.85,0-1.48,0-1.89s-.07-.88-.12-1.38a5,5,0,0,1-.05-.55c0-.29.24-.66.72-1.08a7.72,7.72,0,0,1,1.29-1c.23-.14.4-.09.49.15a5.8,5.8,0,0,1,.24,1.11,7.06,7.06,0,0,1,.77-1.84,3.26,3.26,0,0,1,1.13-1.19,1.09,1.09,0,0,1,1.39.07,3.86,3.86,0,0,1,.95,2,17.74,17.74,0,0,1,.35,3.87,19.1,19.1,0,0,1-.79,5.9,5.49,5.49,0,0,1-2.2,3.19,1.23,1.23,0,0,1-1.47.05v5.38a1.76,1.76,0,0,1-1.08,1.5l-.5.29C370.71,126,370.35,125.93,370.35,125.34Zm4.18-11.2a16.56,16.56,0,0,0,.25-3.38,13.38,13.38,0,0,0-.22-3c-.14-.57-.37-.76-.68-.58a2.64,2.64,0,0,0-.87,1.61v6.82a.74.74,0,0,0,.73,0A2.13,2.13,0,0,0,374.53,114.14Z" style="fill:#455a64"></path><path d="M388.68,96.09q0,.1,0,.51l-3,20.24a1.74,1.74,0,0,1-1,1.15l-.35.2c-.67.39-1,.39-1,0a3.16,3.16,0,0,1,.06-.52l1-6.38a.69.69,0,0,1-.42.11q-.15,0-.21-.33l-2.08-10.28a4.55,4.55,0,0,1-.07-.56c0-.42.3-.81.9-1.15l.77-.45a1.39,1.39,0,0,1,.63-.24c.15,0,.24.11.28.35l.66,5.22c.07.62.17,1.59.29,2.92l.07,0c.06-.68.1-1.12.13-1.32q.11-1.38.18-2l.71-6.06a1.65,1.65,0,0,1,.95-1.13l.52-.3C388.33,95.68,388.68,95.68,388.68,96.09Z" style="fill:#455a64"></path><path d="M390.74,107.07c-.62-.92-.93-2.58-.93-5a17.31,17.31,0,0,1,.92-6,6.54,6.54,0,0,1,2.73-3.48c1.21-.7,2.12-.59,2.75.32s.93,2.57.93,5a17.26,17.26,0,0,1-.93,6.07,6.54,6.54,0,0,1-2.75,3.5C392.27,108.11,391.36,108,390.74,107.07Zm3.49-4.27a19.41,19.41,0,0,0,.22-3.4,14.7,14.7,0,0,0-.22-3.12q-.23-.81-.75-.51a1.93,1.93,0,0,0-.76,1.37,18.33,18.33,0,0,0-.22,3.39,14.32,14.32,0,0,0,.22,3.14c.15.55.4.72.76.51A2,2,0,0,0,394.23,102.8Z" style="fill:#455a64"></path><path d="M399.55,103a4.27,4.27,0,0,1-.53-2.55v-10a1.71,1.71,0,0,1,1-1.48l.61-.35c.69-.4,1-.31,1,.28v9.1a2.11,2.11,0,0,0,.14,1c.09.18.27.19.52,0a2.64,2.64,0,0,0,.89-1.4v-9.6a1.42,1.42,0,0,1,.26-.81,2.29,2.29,0,0,1,.76-.66l.63-.36c.68-.4,1-.3,1,.29v8.8q0,2,.09,2.76c.06.54.09.87.09,1,0,.33-.25.71-.75,1.15a8.16,8.16,0,0,1-1.31,1c-.22.13-.37.12-.45,0a2.38,2.38,0,0,1-.15-.7c0-.3-.05-.54-.08-.71a10.28,10.28,0,0,1-1,2.06,3.72,3.72,0,0,1-1.3,1.34C400.42,103.43,399.9,103.4,399.55,103Z" style="fill:#455a64"></path><path d="M409.24,91.79c-.14,0-.21-.21-.21-.5a10.88,10.88,0,0,1,.26-2.33,19.16,19.16,0,0,1,.76-2.48l.4-1c.33-.8.57-1.42.72-1.88a3.81,3.81,0,0,0,.23-1.15q0-1.55-1.17-.87a2.37,2.37,0,0,0-.64.55q-.29.34-.57.75a1.65,1.65,0,0,1-.35.45c-.15.09-.32.05-.49-.14a2.61,2.61,0,0,1-.45-.72,2.06,2.06,0,0,1-.18-.75,2.78,2.78,0,0,1,.47-1.46,7.58,7.58,0,0,1,1.18-1.45,7.4,7.4,0,0,1,1.39-1.08c1.1-.63,2-.73,2.63-.29s1,1.4,1,2.87a9.67,9.67,0,0,1-.2,2,10.38,10.38,0,0,1-.51,1.65c-.19.48-.46,1.08-.81,1.79a21,21,0,0,0-.95,2.18,8.09,8.09,0,0,0-.45,2,1.71,1.71,0,0,1-.28.74,2.27,2.27,0,0,1-.67.55l-.41.24A1,1,0,0,1,409.24,91.79Zm-.44,5.73V95a1.79,1.79,0,0,1,1.08-1.51l.57-.33c.71-.41,1.07-.32,1.07.27v2.53a1.79,1.79,0,0,1-1.07,1.51l-.57.33C409.16,98.19,408.8,98.11,408.8,97.52Z" style="fill:#455a64"></path></g></svg>