<svg xmlns="http://www.w3.org/2000/svg" viewBox="0 0 500 500"><g id="freepik--background-complete--inject-33"><circle cx="362.08" cy="129.39" r="43.84" transform="translate(-0.92 256.18) rotate(-38.92)" style="fill:#ebebeb"></circle><path d="M375.43,171.14a43.84,43.84,0,1,1-.49-83.66,38,38,0,1,0,18.38,11.14,43.86,43.86,0,0,1-17.89,72.52Z" style="fill:#dbdbdb;opacity:0.5"></path><path d="M345.38,125.62a6.17,6.17,0,1,1-7.76-4A6.17,6.17,0,0,1,345.38,125.62Z" style="fill:#c7c7c7"></path><path d="M385.26,112.87a6.17,6.17,0,1,1-7.76-4A6.19,6.19,0,0,1,385.26,112.87Z" style="fill:#c7c7c7"></path><path d="M367.73,116.51A9.3,9.3,0,0,1,350,122.18Z" style="fill:#c7c7c7"></path><path d="M367.55,122.69a9.31,9.31,0,0,1-13.81,4.41,11.14,11.14,0,0,1,13.81-4.41Z" style="fill:#dbdbdb"></path><circle cx="99.26" cy="206.89" r="31.57" transform="translate(-122.71 265.05) rotate(-79.05)" style="fill:#ebebeb"></circle><path d="M91.25,237.43a31.57,31.57,0,1,1,32-51.05,27.41,27.41,0,1,0,6.87,13.87,31.58,31.58,0,0,1-38.89,37.18Z" style="fill:#dbdbdb;opacity:0.5"></path><path d="M119.73,205.8a4.44,4.44,0,1,1-3.17-5.43A4.43,4.43,0,0,1,119.73,205.8Z" style="fill:#c7c7c7"></path><path d="M90.56,198.15a4.44,4.44,0,1,1-3.17-5.43A4.43,4.43,0,0,1,90.56,198.15Z" style="fill:#c7c7c7"></path><path d="M93.56,196.94a10,10,0,0,0,1.57,5.41,7.72,7.72,0,0,0,4.43,2.92,7.5,7.5,0,0,0,5.28-.29,11,11,0,0,0,4.22-3.77,8.5,8.5,0,0,1-3.68,4.79,7.21,7.21,0,0,1-3,1,9.17,9.17,0,0,1-3.18-.31,9.84,9.84,0,0,1-2.88-1.35,7.2,7.2,0,0,1-2.13-2.4A8,8,0,0,1,93.56,196.94Z" style="fill:#c7c7c7"></path></g><g id="freepik--Shadow--inject-33"><ellipse cx="250" cy="435.87" rx="197.04" ry="24.77" style="fill:#ebebeb"></ellipse></g><g id="freepik--Floor--inject-33"><polygon points="37.43 396.76 90.58 396.51 143.72 396.43 250 396.26 356.28 396.43 409.42 396.51 462.57 396.76 409.42 397 356.28 397.09 250 397.26 143.72 397.09 90.58 397 37.43 396.76" style="fill:#263238"></polygon></g><g id="freepik--smiley-faces--inject-33"><circle cx="393.24" cy="218.66" r="58.51" transform="translate(-39.43 342.11) rotate(-45)" style="fill:#FFC727"></circle><path d="M373.48,273.73a58.52,58.52,0,1,1,67.42-89,50.81,50.81,0,1,0,10.42,26.72,58.54,58.54,0,0,1-77.84,62.31Z" style="opacity:0.1"></path><path d="M363.1,195.54a8.93,8.93,0,0,1,3.89-5.73,8.55,8.55,0,0,1,3.47-1.35,8,8,0,0,1,7,2.5,8.28,8.28,0,0,1,1.82,3.25,8.9,8.9,0,0,1-.64,6.9,11.76,11.76,0,0,0-.94-6.31,7.11,7.11,0,0,0-9.84-3.53A11.69,11.69,0,0,0,363.1,195.54Z" style="fill:#263238"></path><path d="M415.7,214.41a8.94,8.94,0,0,1,3.89-5.73,8.39,8.39,0,0,1,3.48-1.35,8,8,0,0,1,3.79.39,8.16,8.16,0,0,1,3.17,2.1,8.46,8.46,0,0,1,1.83,3.26,9,9,0,0,1-.65,6.9,11.84,11.84,0,0,0-.93-6.31,7.12,7.12,0,0,0-9.85-3.53A11.76,11.76,0,0,0,415.7,214.41Z" style="fill:#263238"></path><path d="M386.31,201.22a15.28,15.28,0,0,0,1.74,8.53,12,12,0,0,0,6.5,5.06,11.62,11.62,0,0,0,8.21.15,16.82,16.82,0,0,0,6.92-5.36,13.22,13.22,0,0,1-6.24,6.9,11.45,11.45,0,0,1-4.79,1.19,14.31,14.31,0,0,1-4.83-.85,15.19,15.19,0,0,1-4.27-2.41,11.42,11.42,0,0,1-3-3.91A12.44,12.44,0,0,1,386.31,201.22Z" style="fill:#263238"></path><circle cx="87.54" cy="306.21" r="45.12" transform="translate(-15.3 4.79) rotate(-2.88)" style="fill:#FFC727"></circle><path d="M100.51,349.43a45.12,45.12,0,1,1,1-86.11,39.19,39.19,0,1,0,18.7,11.81,45.14,45.14,0,0,1-19.75,74.3Z" style="opacity:0.1"></path><path d="M59,308.08a6.73,6.73,0,0,1-.31-5.38,6.44,6.44,0,0,1,1.55-2.48,6.34,6.34,0,0,1,2.58-1.53,6.23,6.23,0,0,1,3-.13,6.51,6.51,0,0,1,2.66,1.23,6.71,6.71,0,0,1,2.67,4.68,9.42,9.42,0,0,0-3.52-3.37,5.61,5.61,0,0,0-4.24-.49,5.55,5.55,0,0,0-3.28,2.72A9.37,9.37,0,0,0,59,308.08Z" style="fill:#263238"></path><path d="M111.7,289.64a6.35,6.35,0,1,1-7.91-4.26A6.35,6.35,0,0,1,111.7,289.64Z" style="fill:#263238"></path><path d="M75.69,302.14s2.87,3.87,9.75,3.25c0,0-1,12.95-9.11,9.9S75.69,302.14,75.69,302.14Z" style="fill:#dd6a57"></path><path d="M73.19,298.32a14.09,14.09,0,0,0,5.91,5.47,11,11,0,0,0,7.62.28A10.63,10.63,0,0,0,93,299.75,15.46,15.46,0,0,0,95.27,292a12.26,12.26,0,0,1-1,8.56,10.57,10.57,0,0,1-3,3.47,13.18,13.18,0,0,1-4.1,2,13.84,13.84,0,0,1-4.5.49,10.44,10.44,0,0,1-4.36-1.32A11.48,11.48,0,0,1,73.19,298.32Z" style="fill:#263238"></path><path d="M77.9,311.86a12.29,12.29,0,0,1,.76-3.6,12,12,0,0,1,1.7-3.27,12,12,0,0,1-.76,3.61A11.82,11.82,0,0,1,77.9,311.86Z" style="fill:#263238"></path></g><g id="freepik--Character--inject-33"><path d="M221,430.67c-38.57,0-70-39.16-70-87.29s31.38-87.31,70-87.31S291,295.24,291,343.38,259.59,430.67,221,430.67Zm0-167.6c-34.71,0-63,36-63,80.31s28.24,80.29,63,80.29,62.94-36,62.94-80.29S255.73,263.07,221,263.07Z" style="fill:#263238"></path><path d="M226.54,420.76c-34.12,0-61.88-34.71-61.88-77.38S192.42,266,226.54,266s61.88,34.71,61.88,77.39S260.66,420.76,226.54,420.76Zm0-149.77c-31.36,0-56.88,32.47-56.88,72.39s25.52,72.38,56.88,72.38,56.88-32.47,56.88-72.38S257.9,271,226.54,271Z" style="fill:#c7c7c7"></path><rect x="124.01" y="239.62" width="103.36" height="39.9" style="fill:#a6a6a6"></rect><path d="M210.62,375.52H124v-5h86.61a14.22,14.22,0,0,0,14.2-14.21V162.74A19.23,19.23,0,0,1,244,143.53H255.7v5H244a14.23,14.23,0,0,0-14.21,14.21V356.31A19.23,19.23,0,0,1,210.62,375.52Z" style="fill:#c7c7c7"></path><path d="M126.51,402.53h-5v-165a17.32,17.32,0,0,1,17.3-17.3h88.51v5H138.81a12.32,12.32,0,0,0-12.3,12.3Z" style="fill:#c7c7c7"></path><ellipse cx="224.16" cy="343.37" rx="10.03" ry="12.65" style="fill:#c7c7c7"></ellipse><ellipse cx="227.37" cy="343.37" rx="10.03" ry="12.65" style="fill:#dbdbdb"></ellipse><rect x="227.37" y="340.88" width="90.85" height="5" style="fill:#c7c7c7"></rect><ellipse cx="122.15" cy="416.61" rx="13.05" ry="16.46" style="fill:#c7c7c7"></ellipse><ellipse cx="126.33" cy="416.61" rx="13.05" ry="16.46" style="fill:#dbdbdb"></ellipse><rect x="240.21" y="140.88" width="30.98" height="9.94" style="fill:#263238"></rect><rect x="229.91" y="163.82" width="88.31" height="95.76" style="fill:#263238"></rect><rect x="101.35" y="407.89" width="115.99" height="14.96" style="fill:#263238"></rect><path d="M254.1,93c2.92-4.71,9-6.76,15.24-6.64s14,1.8,16.38,11.32c1.93,7.74.75,15.81,2.34,24.53s15.69,28.23.95,41.46c-13.23,11.89-44.93,8.51-49.27-10.53-3.44-15.09,13-32.41,13.9-38.78S250.9,98.17,254.1,93Z" style="fill:#263238"></path><path d="M252.91,102.07a33.14,33.14,0,0,1-.38,13.33,12.58,12.58,0,0,1-1.37,3.21c-.58,1-1.21,2-1.84,2.92-1.27,1.9-2.54,3.79-3.7,5.72a44.91,44.91,0,0,0-5.35,12.19,33.65,33.65,0,0,0-.66,13.11,28.66,28.66,0,0,1-1-6.59,30.92,30.92,0,0,1,.63-6.7,39.59,39.59,0,0,1,5.18-12.59c1.19-2,2.5-3.86,3.79-5.75a22.83,22.83,0,0,0,3.27-5.77,27.2,27.2,0,0,0,1.21-6.46A52.23,52.23,0,0,0,252.91,102.07Z" style="fill:#263238"></path><path d="M286.46,104.34c.67,4.46,1.17,9,2.08,13.34a53.05,53.05,0,0,0,1.74,6.46c.73,2.08,1.78,4.11,2.72,6.18s1.84,4.17,2.6,6.33a37,37,0,0,1,1.65,6.65,23.21,23.21,0,0,1-.13,6.86,16.69,16.69,0,0,1-2.89,6.29,17.59,17.59,0,0,0,2.24-6.38,22.62,22.62,0,0,0-.24-6.62,55.34,55.34,0,0,0-4.46-12.64c-.91-2.07-2-4.09-2.69-6.31a42.74,42.74,0,0,1-1.55-6.65A105.71,105.71,0,0,1,286.46,104.34Z" style="fill:#263238"></path><path d="M85.48,407.12c2.67.9,79.21,1.05,82.14-.79,1.11-.69,1.78-11.84,2.21-25.33.09-2.91.17-5.92.23-9a375.5,375.5,0,0,1,3.58-40.9l-51.2-.25-2.17,40.91.21,9s-29.33,13.06-32.32,15.42S82.81,406.22,85.48,407.12Z" style="fill:#eb9481"></path><path d="M169.61,387.06c-.43,10.63-1.05,18.69-2,19.27-2.92,1.84-79.47,1.69-82.14.79s-.29-8.58,2.68-10.94c1.32-1,7.7-4.14,14.45-7.29h0S96,394.27,98.42,395C111.34,399.07,155.54,390.09,169.61,387.06Z" style="fill:#FFC727"></path><path d="M275.72,193.73H247.88l-7.68,10.1s-80.87,13.3-98.06,35.47C122.4,264.75,115.89,368,115.89,368h56.65s7.94-91.72,13.72-99.29,85.8-9,101.27-20.54,3.57-54.43,3.57-54.43Z" style="fill:#455a64"></path><path d="M170.24,358.9a46.86,46.86,0,0,0-5-.35l-5-.18c-3.41-.13-6.81-.15-10.22-.2-6.8-.1-13.61-.18-20.42-.15-1.91,0-3.82,0-5.73,0s-3.83,0-5.73.25c-.08,0-.12.14,0,.16a92.28,92.28,0,0,0,10,.54c3.4.1,6.81.19,10.21.26q10.22.18,20.43.23c1.91,0,3.82,0,5.73-.05a52.27,52.27,0,0,0,5.73-.22C170.36,359.21,170.45,358.93,170.24,358.9Z" style="fill:#263238"></path><path d="M283.28,240.82c-11.73,4.82-24.19,7.64-36.67,9.74s-25.23,3.47-37.85,5.13c-6.33.83-12.78,1.54-18.93,3.31a21.19,21.19,0,0,0-7.67,3.47c-2.24,1.84-3.24,4.5-3.85,7.25-1.46,6.51-2.53,13.14-3.66,19.72s-2.2,13.41-3.2,20.14c-2,13.53-3.76,27.1-5.5,40.67-.21,1.64-.4,3.28-.59,4.92,0,.17.24.24.27.06,2-13.35,3.79-26.73,5.8-40.08s4.18-26.69,6.68-40c.56-2.95.89-6.14,2.15-8.89s3.65-4.33,6.38-5.39c6-2.34,12.43-3.14,18.72-4,12.44-1.74,24.94-3.06,37.33-5.1a198.65,198.65,0,0,0,36.36-9.17c1.44-.52,2.86-1.08,4.28-1.65C283.42,240.93,283.38,240.78,283.28,240.82Z" style="fill:#263238"></path><path d="M128.44,414.61c2.67.9,79.22,1.05,82.14-.79,1.11-.69,1.78-11.84,2.21-25.33.09-2.91.17-5.92.23-9,.43-19.84.42-40.9.42-40.9l-51.2-.25,1,40.91.21,9s-29.33,13.05-32.32,15.42S125.77,413.71,128.44,414.61Z" style="fill:#eb9481"></path><path d="M213.44,338.61s0,21.06-.42,40.9c-.06,3.06-.14,6.07-.23,9-.06,2.09-.14,4.11-.22,6.06-.43,10.63-1,18.69-2,19.27-2.92,1.84-79.47,1.69-82.14.79s-.29-8.58,2.68-10.94c1.32-1,7.7-4.14,14.45-7.29h0c8.63-4,17.85-8.13,17.85-8.13l-.21-9-1-40.91Z" style="fill:#eb9481"></path><path d="M212.57,394.55c-.43,10.63-1,18.69-2,19.27-2.92,1.84-79.47,1.69-82.14.79s-.29-8.58,2.68-10.94c1.32-1,7.7-4.14,14.45-7.29h0s-6.67,5.38-4.21,6.15C154.3,406.56,198.5,397.58,212.57,394.55Z" style="fill:#FFC727"></path><path d="M163.63,388.47h0s0,0,0-.08c0-2.74-.74-15.05-.76-16.46a.08.08,0,0,0-.16,0c0,1.38.2,13.58.46,16.22-5.48,2.16-10.87,4.49-16.23,6.92q-4,1.83-8,3.76a47.94,47.94,0,0,0-6.65,3.6,9.64,9.64,0,0,0-4.15,5.68c0,.11.14.19.19.08a10.46,10.46,0,0,1,4.3-4.7A60.74,60.74,0,0,1,139,400c5.15-2.61,10.33-5.15,15.6-7.48,2.95-1.31,5.89-2.66,8.86-3.94a.18.18,0,0,0,.1-.07S163.61,388.5,163.63,388.47Z" style="fill:#263238"></path><path d="M159.81,375.47l57.63,0s-6.51-96.34,3.56-103.81c12.88-9.55,52.62-8,75.19-23.64,18.33-12.71,5.47-54.34,5.47-54.34h-51s-6.39,7.79-7.58,12.37c0,0-57.5,16.81-72.18,35.43C151.24,266.47,159.81,375.47,159.81,375.47Z" style="fill:#455a64"></path><path d="M240.94,207.32A317.15,317.15,0,0,0,203.77,220a133.28,133.28,0,0,0-17.21,8.78c-5.42,3.32-10.88,7-14.95,12a42.42,42.42,0,0,0-7.75,16.11,142.44,142.44,0,0,0-3.4,19.33,384,384,0,0,0-2.71,42.88c-.09,7.18,0,14.35.12,21.53s.34,14.47.91,21.68c.14,1.78.23,3.56.36,5.33a.08.08,0,1,0,.15,0c.14-14.2-.34-28.4-.31-42.6a414.83,414.83,0,0,1,2-42.45c.71-6.78,1.55-13.59,2.88-20.28,1.17-5.91,2.87-11.83,6-17,3.31-5.46,8.24-9.5,13.49-13a132.43,132.43,0,0,1,16.85-9.44c11.69-5.54,23.93-9.69,36.23-13.61,1.54-.49,3.07-1,4.61-1.53A.19.19,0,0,0,240.94,207.32Z" style="fill:#263238"></path><path d="M248.92,207.33c-.8-.21-1.56-.51-2.37-.66s-1.63-.27-2.44-.37c-1.59-.21-3.19-.39-4.79-.54-3.27-.31-6.54-.33-9.82-.54-.1,0-.09.15,0,.15,3.29.22,6.57.81,9.83,1.29,1.59.23,3.17.48,4.75.73.81.13,1.62.27,2.44.37s1.55.06,2.33.14C249.19,207.93,249.22,207.41,248.92,207.33Z" style="fill:#263238"></path><path d="M253.51,194.53c-1.09,1.58-2.11,3.21-3.17,4.82-.52.78-1,1.57-1.55,2.36a17.24,17.24,0,0,1-1.45,2c-1,1.09-3.09,1.8-3.61-.1a3.6,3.6,0,0,1,.33-2.34c.33-.78.7-1.55,1.09-2.31.92-1.79,2-3.47,3-5.19a.09.09,0,0,0-.14-.1,27.06,27.06,0,0,0-3.59,4.9c-.91,1.54-2.15,3.38-1.71,5.26a2.57,2.57,0,0,0,3.66,1.7c1.69-.78,2.54-2.82,3.43-4.33,1.3-2.2,2.65-4.38,3.9-6.61C253.79,194.51,253.6,194.41,253.51,194.53Z" style="fill:#263238"></path><path d="M292.64,219.36c-1.14-.3-2.37-.36-3.54-.58s-2.37-.44-3.54-.73a45.61,45.61,0,0,1-6.56-2.12,15.54,15.54,0,0,1-5-3.23A11,11,0,0,1,271.2,207c-.26-1.22-.42-2.47-.58-3.7a7.48,7.48,0,0,1,.24-3.76l0,0,.08-.22c0-.11-.12-.15-.18-.07a5.62,5.62,0,0,0-.86,3c0,1.2,0,2.42.12,3.62a13.65,13.65,0,0,0,2,6.69c2.66,3.85,7.61,5.52,12,6.5a35.17,35.17,0,0,0,4.31.7c.73.08,1.47.09,2.2.11a11.13,11.13,0,0,0,2.16,0C292.92,219.81,292.87,219.42,292.64,219.36Z" style="fill:#263238"></path><path d="M298.92,203.13c-.4-1.89-.82-3.77-1.24-5.65,0-.1-.16,0-.14,0,2.73,13.66,5.63,29.87-3.23,41.92-4.08,5.55-10.21,8.31-16.53,10.15-7,2-14.11,3.51-21.17,5.16-7.21,1.67-14.41,3.44-21.45,5.76-6.06,2-12.57,4.17-17.59,8.37a19.69,19.69,0,0,0-5.46,7.26,31.88,31.88,0,0,0-2.24,9.4c-.38,3.53-.49,7.09-.64,10.63q-.27,6.09-.43,12.17-.65,24.18.27,48.37.1,3,.27,5.92a.26.26,0,1,0,.51,0c-.52-16.18-.84-32.34-.53-48.53.15-8,.4-16,.82-23.94.36-6.77,1.19-14,6-19.08,4.55-4.85,11.16-7.2,17.22-9.29a220.76,220.76,0,0,1,21.39-5.94c7.19-1.68,14.42-3.2,21.56-5.11,6.13-1.65,12.38-3.9,16.88-8.74C302.76,231.66,301.64,216,298.92,203.13Z" style="fill:#263238"></path><path d="M214.44,367.11a46.89,46.89,0,0,0-5-.2c-1.66,0-3.32,0-5,0-3.4,0-6.81.05-10.21.1-6.81.11-13.61.23-20.42.46-1.91.07-3.82.1-5.72.21s-3.84.14-5.72.42c-.08,0-.12.14,0,.15a95.13,95.13,0,0,0,10,.25c3.41,0,6.81,0,10.22,0q10.2-.12,20.42-.37c1.91-.05,3.82-.14,5.72-.22a51.83,51.83,0,0,0,5.72-.39C214.57,367.41,214.65,367.13,214.44,367.11Z" style="fill:#263238"></path><path d="M267.86,146.2a89.1,89.1,0,0,1-44.33-10.48c-5.57-3.2-28.63-48.92-27.81-52.17.94-3.69,19.49-1.72,26.39,4,.72.6,14,31.69,15.66,32.72,3,1.88,18.72,9.33,25.42,12.85C274.35,139,278,145.79,267.86,146.2Z" style="fill:#eb9481"></path><path d="M268.81,147.63c-6.52,1-19.95-.28-19.95-.28l-4.18-24.26s19.83,7.9,28.54,15.69C276.71,141.9,275.39,146.64,268.81,147.63Z" style="fill:#dbdbdb"></path><path d="M248.72,130.44a8.11,8.11,0,0,1-.83-1.89,7.58,7.58,0,0,1-.35-2,8.11,8.11,0,0,1,.83,1.89A7.58,7.58,0,0,1,248.72,130.44Z" style="fill:#fff"></path><path d="M268,140.59a8.11,8.11,0,0,1,1.89-.83,7.64,7.64,0,0,1,2-.35,7.35,7.35,0,0,1-1.89.83A7.58,7.58,0,0,1,268,140.59Z" style="fill:#fff"></path><path d="M257.79,136.49a7.31,7.31,0,0,1-.75,1.92,7.5,7.5,0,0,1-1.19,1.69,7.67,7.67,0,0,1,.75-1.92A7.5,7.5,0,0,1,257.79,136.49Z" style="fill:#fff"></path><path d="M268.81,147.63c-6.52,1-19.95-.28-19.95-.28l-.87-5.07,23.45-5c.63.49,1.23,1,1.78,1.48C276.71,141.9,275.39,146.64,268.81,147.63Z" style="fill:#c7c7c7"></path><path d="M252.11,146.62c-.38-3.64-.82-7.27-1.42-10.89-.29-1.8-.62-3.6-1-5.39s-.89-3.55-1.21-5.35c0-.1-.18-.06-.16,0,.42,1.77.6,3.62.93,5.41s.63,3.6.94,5.4c.6,3.6,1.21,7.2,1.74,10.81C252,146.76,252.12,146.72,252.11,146.62Z" style="fill:#263238"></path><path d="M241.73,200.65s22.1,8,65.59,9.32c0,0-10.58-55.7-22.45-71.77-5.4-7.31-11.55-7-17.16-3.35-1.4.91-19.54,19.13-21.69,26-1.91,6,2.32,13.49,2.32,13.49Z" style="fill:#dbdbdb"></path><path d="M287.83,185a7.35,7.35,0,0,1-.83-1.89,7.2,7.2,0,0,1-.35-2,8.11,8.11,0,0,1,.83,1.89A8,8,0,0,1,287.83,185Z" style="fill:#fff"></path><path d="M272,159.84a7.14,7.14,0,0,1-.83-1.88,7.65,7.65,0,0,1-.36-2,7.14,7.14,0,0,1,.83,1.88A7.65,7.65,0,0,1,272,159.84Z" style="fill:#fff"></path><path d="M300,207.58a7.87,7.87,0,0,1-.83-1.88,7.64,7.64,0,0,1-.35-2,7.14,7.14,0,0,1,.83,1.88A7.64,7.64,0,0,1,300,207.58Z" style="fill:#fff"></path><path d="M260.66,187.41a8.11,8.11,0,0,1-.83-1.89,7.58,7.58,0,0,1-.35-2,8.11,8.11,0,0,1,.83,1.89A7.64,7.64,0,0,1,260.66,187.41Z" style="fill:#fff"></path><path d="M280,138.6a7.52,7.52,0,0,1-.84-1.88,8.07,8.07,0,0,1-.35-2,7.14,7.14,0,0,1,.83,1.88A8.16,8.16,0,0,1,280,138.6Z" style="fill:#fff"></path><path d="M271.67,180.06a8.11,8.11,0,0,1,1.89-.83,7.58,7.58,0,0,1,2-.35,8.11,8.11,0,0,1-1.89.83A7.58,7.58,0,0,1,271.67,180.06Z" style="fill:#fff"></path><path d="M251.29,166.72a8.11,8.11,0,0,1,1.89-.83,8,8,0,0,1,2-.35,7.35,7.35,0,0,1-1.89.83A7.58,7.58,0,0,1,251.29,166.72Z" style="fill:#fff"></path><path d="M268,140.59a8.11,8.11,0,0,1,1.89-.83,7.64,7.64,0,0,1,2-.35,7.35,7.35,0,0,1-1.89.83A7.58,7.58,0,0,1,268,140.59Z" style="fill:#fff"></path><path d="M260,201a7.35,7.35,0,0,1,1.89-.83,7.58,7.58,0,0,1,2-.36,7.35,7.35,0,0,1-1.89.83A7.58,7.58,0,0,1,260,201Z" style="fill:#fff"></path><path d="M289,156.86a7.87,7.87,0,0,1,1.88-.83,8.07,8.07,0,0,1,2-.35,7.14,7.14,0,0,1-1.88.83A7.71,7.71,0,0,1,289,156.86Z" style="fill:#fff"></path><path d="M288,198.37a7.35,7.35,0,0,1,1.89-.83,7.58,7.58,0,0,1,2-.35A8.11,8.11,0,0,1,290,198,8,8,0,0,1,288,198.37Z" style="fill:#fff"></path><path d="M277.94,192.05a8.42,8.42,0,0,1-3.61-1.93,7.31,7.31,0,0,1,1.92.75A7.78,7.78,0,0,1,277.94,192.05Z" style="fill:#fff"></path><path d="M251.74,179.63a7.9,7.9,0,0,1-1.93-.75,7.67,7.67,0,0,1-1.68-1.19,7.82,7.82,0,0,1,1.92.75A7.5,7.5,0,0,1,251.74,179.63Z" style="fill:#fff"></path><path d="M283.65,167.44a8,8,0,0,1-1.92-.74,7.67,7.67,0,0,1-1.68-1.19,7.59,7.59,0,0,1,1.92.75A7.73,7.73,0,0,1,283.65,167.44Z" style="fill:#fff"></path><path d="M264.38,152.52a7.59,7.59,0,0,1-1.92-.75,7.49,7.49,0,0,1-1.68-1.18,7.57,7.57,0,0,1,1.92.74A7.67,7.67,0,0,1,264.38,152.52Z" style="fill:#fff"></path><path d="M301.27,190.11a7.59,7.59,0,0,1-1.92-.75,8,8,0,0,1-1.68-1.18,7.57,7.57,0,0,1,1.92.74A7.23,7.23,0,0,1,301.27,190.11Z" style="fill:#fff"></path><path d="M296.12,169.86a8.31,8.31,0,0,1-1.93,3.6,8,8,0,0,1,.74-1.92A7.87,7.87,0,0,1,296.12,169.86Z" style="fill:#fff"></path><path d="M265.25,169.12a7.82,7.82,0,0,1-.75,1.92,7.5,7.5,0,0,1-1.19,1.69,7.31,7.31,0,0,1,.75-1.92A7.5,7.5,0,0,1,265.25,169.12Z" style="fill:#fff"></path><path d="M250.66,194.28a7.31,7.31,0,0,1-.75,1.92,7.78,7.78,0,0,1-1.18,1.69,8.42,8.42,0,0,1,1.93-3.61Z" style="fill:#fff"></path><path d="M279.62,202a7.31,7.31,0,0,1-.75,1.92,7.78,7.78,0,0,1-1.18,1.69,7.42,7.42,0,0,1,.74-1.92A7.83,7.83,0,0,1,279.62,202Z" style="fill:#fff"></path><path d="M283,146.2a7.59,7.59,0,0,1-.75,1.92,8,8,0,0,1-1.18,1.68,8,8,0,0,1,.74-1.92A8.41,8.41,0,0,1,283,146.2Z" style="fill:#fff"></path><path d="M252.53,153.22a7.67,7.67,0,0,1-.75,1.92,7.5,7.5,0,0,1-1.19,1.69,8.58,8.58,0,0,1,1.94-3.61Z" style="fill:#fff"></path><path d="M277.77,134.69c-.19,1.19-5.24,9.12-10.58,9.22-1.74,0-2.34-9.45-2.34-9.45l-.2-.69-2.85-9.66,11-8.16,1.6-1.09s.61,2.69,1.33,6.06c0,.15.07.31.1.48s.09.36.13.54l.33,1.53c.08.39.16.76.23,1.18s.15.81.23,1.22A64,64,0,0,1,277.77,134.69Z" style="fill:#eb9481"></path><path d="M275.75,120.92a20.2,20.2,0,0,1-11.1,12.85l-2.85-9.66,11-8.16,1.6-1.09S275,117.55,275.75,120.92Z" style="fill:#263238"></path><path d="M255.85,88.82s14-6.82,22.29,1.27.65,20.59.65,20.59,3-15.6-4.72-19.7S255.85,88.82,255.85,88.82Z" style="fill:#FFC727"></path><path d="M247.14,109.11c-1.46,17.62,8.92,20.48,12.72,20.8,3.45.28,15.23.81,18.51-16.56s-4.45-23.62-12.31-24.69S248.61,91.5,247.14,109.11Z" style="fill:#eb9481"></path><path d="M251.77,106.33c.42,0,.8-.12,1.21-.18a2,2,0,0,0,1.2-.42.62.62,0,0,0,0-.76,1.53,1.53,0,0,0-1.51-.46,2.25,2.25,0,0,0-1.48.72A.67.67,0,0,0,251.77,106.33Z" style="fill:#263238"></path><path d="M263.88,107.41a11.19,11.19,0,0,1-1.17-.32,2,2,0,0,1-1.14-.56.63.63,0,0,1,.05-.77,1.56,1.56,0,0,1,1.55-.27,2.3,2.3,0,0,1,1.39.9A.67.67,0,0,1,263.88,107.41Z" style="fill:#263238"></path><path d="M261.06,111.14s.09.06.08.11c-.14,1.2-.1,2.59.95,3.08,0,0,0,.08,0,.07C260.77,114.1,260.73,112.25,261.06,111.14Z" style="fill:#263238"></path><path d="M262.23,110c1.94,0,1.77,3.89,0,3.88S260.61,110,262.23,110Z" style="fill:#263238"></path><path d="M263,110.21c.32.24.64.64,1.05.7s.84-.32,1.17-.7c0,0,.06,0,.06.05,0,.74-.34,1.49-1.14,1.57s-1.23-.61-1.38-1.37C262.72,110.32,262.85,110.12,263,110.21Z" style="fill:#263238"></path><path d="M254.14,110.63s-.1.05-.1.1c0,1.21-.21,2.59-1.32,2.94,0,0,0,.08,0,.07C254.07,113.61,254.33,111.77,254.14,110.63Z" style="fill:#263238"></path><path d="M253.11,109.33c-1.93-.21-2.22,3.66-.44,3.86S254.73,109.52,253.11,109.33Z" style="fill:#263238"></path><path d="M252.29,109.53c-.33.18-.66.53-1,.53s-.71-.45-1-.87c0,0-.06,0-.06,0-.08.74.1,1.53.8,1.73s1.17-.42,1.4-1.15C252.5,109.67,252.42,109.45,252.29,109.53Z" style="fill:#263238"></path><path d="M260,121c-.29.28-.57.67-1,.71a3.21,3.21,0,0,1-1.29-.3,0,0,0,0,0-.06.06,1.63,1.63,0,0,0,1.53.65,1.26,1.26,0,0,0,1-1.06C260.12,121,260,121,260,121Z" style="fill:#263238"></path><path d="M255.21,116.38s-.35,1.78-.4,2.63c0,.08.2.13.48.16,0,0,0,0,0,0a4,4,0,0,0,4-1.28c.06-.07,0-.17-.12-.12a6,6,0,0,1-3.73.84c-.05-.23.7-3,.56-3a7.07,7.07,0,0,0-1.94.32c.62-3.73,1.84-7.33,2.4-11a.12.12,0,0,0-.22-.07,61,61,0,0,0-3.09,11.8C253.08,117,254.86,116.51,255.21,116.38Z" style="fill:#263238"></path><path d="M255.44,118.77a5,5,0,0,0,1.75,1.77,2.2,2.2,0,0,0,1.32.25c1-.13,1.13-1,1.06-1.78a6,6,0,0,0-.28-1.22A6.32,6.32,0,0,1,255.44,118.77Z" style="fill:#263238"></path><path d="M257.19,120.54a2.2,2.2,0,0,0,1.32.25c1-.13,1.13-1,1.06-1.78A2.28,2.28,0,0,0,257.19,120.54Z" style="fill:#ff9bbc"></path><path d="M277.57,114.52a7.18,7.18,0,0,1-4-5.85,18.61,18.61,0,0,1-7.6-6.16c.11.36.95,2.95,1.41,4.26-11-2.09-14.42-10.55-14.42-10.55a19.06,19.06,0,0,0-4.83,7s-.06-6.77,3.43-11.3c4.28-5.54,18.67-7,25.3.26C284,100,277.57,114.52,277.57,114.52Z" style="fill:#263238"></path><path d="M259,104.92a20.32,20.32,0,0,0,5.66,2.09s0,0,0,0a17.36,17.36,0,0,1-8.09-4.92,16.71,16.71,0,0,1-2.37-3.34,11.17,11.17,0,0,1-1.45-4.21.09.09,0,0,0-.17,0,13.2,13.2,0,0,0,.86,4.35,12.21,12.21,0,0,0,2.44,3.66,14.13,14.13,0,0,0,3.12,2.37" style="fill:#263238"></path><path d="M277.86,119.84a4.2,4.2,0,0,1-.82.22,2.93,2.93,0,0,1-.83,0,2.55,2.55,0,0,1-1-.32,2.77,2.77,0,0,1-.67-.52,3.48,3.48,0,0,1-.68-1l1-4.72s3.85-5.53,6.35-4.17S280.79,118.74,277.86,119.84Z" style="fill:#eb9481"></path><path d="M280.27,111.64a0,0,0,0,1,0,.07c-2.06.85-3.14,2.76-3.89,4.75a1.65,1.65,0,0,1,2.47-.46c.05,0,0,.12-.06.11a1.83,1.83,0,0,0-2,.65,8.92,8.92,0,0,0-1,1.64c-.1.18-.43.08-.36-.13l0,0C275.42,115.59,277.45,111.91,280.27,111.64Z" style="fill:#263238"></path><path d="M277.61,119.1a.82.82,0,1,1-.65-1A.82.82,0,0,1,277.61,119.1Z" style="fill:#fff"></path><path d="M279.29,117.86a.58.58,0,1,1-.46-.68A.57.57,0,0,1,279.29,117.86Z" style="fill:#fff"></path><circle cx="178.17" cy="142.67" r="67.17" style="fill:#FFC727"></circle><path d="M178.16,209.84A67.17,67.17,0,1,1,216.49,87.51a58.37,58.37,0,1,0,21.62,24.84,67.17,67.17,0,0,1-60,97.49Z" style="opacity:0.1"></path><circle cx="146.09" cy="129.39" r="9.46" style="fill:#263238"></circle><circle cx="210.24" cy="129.39" r="9.46" style="fill:#263238"></circle><path d="M192.42,126.52a14.25,14.25,0,1,1-28.5,0Z" style="fill:#263238"></path><path d="M189.27,135.45a14.25,14.25,0,0,1-22.21,0,17.06,17.06,0,0,1,22.21,0Z" style="fill:#dd6a57"></path><path d="M288.55,150.2c2.93,19.55,6.45,46.49-2.9,51.26-15.38,7.84-40.31,11.36-50.94,13.64-3.8.82-8.06-26.2-4.1-27.45,5.15-1.64,38-7.29,38.85-9.7.47-1.36,3.07-14.13,6.85-31.22C280.26,128.9,287.61,143.91,288.55,150.2Z" style="fill:#eb9481"></path><path d="M236.06,214.72c-10.18,2.84-22.69,7-34.22,3.93a5.9,5.9,0,0,1-3.26-2.08c-5.19-1.28-6.14-4.12-6.14-4.12-4.47-2.67-5.05-5.71-5.05-5.71s-6.08-1.57-5.74-5.4c.37-4.3,8.84-1.25,14.52-2.42,13-2.68,30.76-10.13,34.44-11.27Z" style="fill:#eb9481"></path><path d="M211.78,205.7a86.4,86.4,0,0,1-11.53,1.7,86.12,86.12,0,0,1-12.74-.75.11.11,0,0,0,0,.21,45.26,45.26,0,0,0,24.34-1C212,205.81,212,205.66,211.78,205.7Z" style="fill:#263238"></path><path d="M214.54,213.32c-3.78.48-10.43,1.29-22.08-1,0,0-.06,0,0,.07a40.52,40.52,0,0,0,22.12,1.1C214.79,213.45,214.79,213.29,214.54,213.32Z" style="fill:#263238"></path><path d="M215.94,217.44c-6.46.58-10.6.13-17.33-.89,0,0-.06.06,0,.07,7.53,2,10.48,1.82,17.4,1C216.23,217.63,216.2,217.42,215.94,217.44Z" style="fill:#263238"></path><path d="M211.64,194.7c1.56-1,1-1.85-2.26-2.13s-16.59,1.39-16.78-3.3,18.6-6.77,24.05-5.88,14,4.26,14,4.26C227,188.78,218.63,192.37,211.64,194.7Z" style="fill:#eb9481"></path><path d="M294.45,170.74l-23.23-9.54s1.86-12.48,3.87-19.25c2.65-8.95,6.6-10.06,11.37.34C289.65,149.25,294.45,170.74,294.45,170.74Z" style="fill:#dbdbdb"></path><path d="M272,159.84a5.93,5.93,0,0,1-.43-.78h0c.05-.28.1-.6.16-.92A6.86,6.86,0,0,1,272,159.84Z" style="fill:#fff"></path><path d="M280,138.61a8.11,8.11,0,0,1-.83-1.89,12.17,12.17,0,0,1-.32-1.48l.22-.13a7.93,7.93,0,0,1,.58,1.46A7.72,7.72,0,0,1,280,138.61Z" style="fill:#fff"></path><path d="M291,156.52a7.83,7.83,0,0,1-2,.34,7.8,7.8,0,0,1,1.87-.83C290.89,156.2,290.93,156.36,291,156.52Z" style="fill:#fff"></path><path d="M283,146.2a7.59,7.59,0,0,1-.75,1.92,8,8,0,0,1-1.18,1.68,8,8,0,0,1,.74-1.92A8.41,8.41,0,0,1,283,146.2Z" style="fill:#fff"></path><path d="M274.05,162.37a30,30,0,0,0-2.78-1.23c.26-1.47.54-2.92.77-4.39.12-.73.23-1.47.33-2.2s.27-1.73.36-2.45a.08.08,0,1,0-.15,0c-.21.92-.35,1.61-.53,2.41-.13.56-.24,1.13-.34,1.7l0-.45c0-.81-.14-1.61-.13-2.43a.08.08,0,0,0-.16,0c0,.82-.05,1.63,0,2.44a12.73,12.73,0,0,0,.08,1.85c-.23,1.23-.49,2.49-.65,3.71a27.85,27.85,0,0,0,3.24,1.16C274.07,162.47,274.09,162.39,274.05,162.37Z" style="fill:#263238"></path><path d="M293,167.57c-3.29-1.63-6.59-3.2-10-4.62q-2.54-1.06-5.08-2.06c-1.71-.66-3.48-1.14-5.17-1.83-.09,0-.15.12-.05.15,1.72.59,3.38,1.43,5.06,2.11s3.39,1.38,5.07,2.09c3.37,1.41,6.74,2.82,10.08,4.3C293,167.76,293.09,167.61,293,167.57Z" style="fill:#263238"></path><path d="M294.79,171c-.34-3.28-3.88-16.54-5.21-19.61,0,0-.07,0-.06,0,.63,3.26,4.06,16,4.88,19.15-.06,0-2.69-1-3.44-1.25-.11,0-.16.09-.06.14A28.26,28.26,0,0,0,294.79,171Z" style="fill:#263238"></path><path d="M226.65,89.47c-2.35-3.55-4.06-10-6.56-11.91a3.61,3.61,0,0,0-4.32-.26s.28-3.5-2.28-4.9c-1.31-.71-3.61.76-3.61.76a4.35,4.35,0,0,0-2.25-3.92c-1.87-.87-3.9.73-3.9.73s-1.15-2.74-3.35-3c-4.45-.57-13.64,14.62-9.46,20.35,2,2.67,4-1.16,4-1.16s-1.61,6.22,1.48,8.19,5.43-3.16,5.43-3.16-1.5,6,1.9,7.77,5-3.75,5-3.75.24,4.76,3.15,5.48c4.8,1.2,3.59-8.27,6.4-11.13L224.91,91Z" style="fill:#eb9481"></path><path d="M223.71,83.54c2.51,3.17,9,1.57,11.8,4.26,3.85,3.64-3.5,6-10.6,3.21l-5.14-3.12Z" style="fill:#eb9481"></path><path d="M203.37,70.18a0,0,0,0,0-.07-.07,30.78,30.78,0,0,0-8.53,16.22c0,.19.28.33.35.12A63.28,63.28,0,0,1,203.37,70.18Z" style="fill:#263238"></path><path d="M209.89,73.06s0-.12-.11-.07a28.83,28.83,0,0,0-8.2,18.27c0,.24.22.46.25.19C202.37,86.8,206.51,77.7,209.89,73.06Z" style="fill:#263238"></path><path d="M208.88,95.69c.52-6.71,3.14-12.58,6.7-18.22,0-.08-.06-.13-.12-.08-2.49,2.28-4.38,6.12-5.61,9.22a17.84,17.84,0,0,0-1.21,9.07C208.66,95.8,208.87,95.84,208.88,95.69Z" style="fill:#263238"></path><rect x="214.91" y="239.62" width="103.51" height="39.9" style="fill:#a6a6a6"></rect><path d="M301.51,375.52h-86.6v-5h86.6a14.23,14.23,0,0,0,14.21-14.21V162.74a19.23,19.23,0,0,1,19.2-19.21h11.67v5H334.92a14.22,14.22,0,0,0-14.2,14.21V356.31A19.23,19.23,0,0,1,301.51,375.52Z" style="fill:#c7c7c7"></path><path d="M217.41,402.53h-5v-165a17.31,17.31,0,0,1,17.29-17.3h88.52v5H229.7a12.31,12.31,0,0,0-12.29,12.3Z" style="fill:#c7c7c7"></path><rect x="331.11" y="140.88" width="30.98" height="9.94" style="fill:#263238"></rect><path d="M312.9,430.67c-38.57,0-69.95-39.16-69.95-87.29s31.38-87.31,69.95-87.31,69.94,39.17,69.94,87.31S351.46,430.67,312.9,430.67Zm0-167.6c-34.71,0-62.95,36-62.95,80.31s28.24,80.29,62.95,80.29,62.94-36,62.94-80.29S347.6,263.07,312.9,263.07Z" style="fill:#263238"></path><path d="M318.41,420.76c-34.12,0-61.88-34.71-61.88-77.38S284.29,266,318.41,266s61.89,34.71,61.89,77.39S352.54,420.76,318.41,420.76Zm0-149.77c-31.36,0-56.88,32.47-56.88,72.39s25.52,72.38,56.88,72.38,56.89-32.47,56.89-72.38S349.78,271,318.41,271Z" style="fill:#c7c7c7"></path><ellipse cx="316.05" cy="343.37" rx="10.03" ry="12.65" style="fill:#c7c7c7"></ellipse><ellipse cx="319.26" cy="343.37" rx="10.03" ry="12.65" style="fill:#dbdbdb"></ellipse><ellipse cx="216.32" cy="416.61" rx="13.05" ry="16.46" style="fill:#c7c7c7"></ellipse><ellipse cx="220.5" cy="416.61" rx="13.05" ry="16.46" style="fill:#dbdbdb"></ellipse></g><g id="freepik--Plant--inject-33"><path d="M412.53,314.38a45.82,45.82,0,0,0,.89,17.57,49.11,49.11,0,0,0,2.69,7.76c1.4,3.22,2.86,6.36,2.51,9.88-.34.22.83.19.86-.16,9.4-5.35,21.46-6.33,28.69-15.08,3.43-4.14,5.16-9.39,6-14.65.89-5.72,1.13-12.05-.34-17.69-1.25-4.77-4-9.36-8.51-11.7-4.63-2.41-10.69-2.21-15.55-.69C419.24,292.88,414,304.21,412.53,314.38Z" style="fill:#FFC727"></path><path d="M407.71,384c1.28-4.28,2.56-8.55,3.88-12.82,2.58-8.35,5.26-16.68,8.23-24.9q2.65-7.39,5.62-14.64a87.76,87.76,0,0,0-1.12-9.09c-.79-3.64-1.93-7.16-3-10.73-.07-.22.29-.33.38-.12,2.11,4.91,4.86,11.2,4.93,17,2.3-5.47,4.75-10.87,7.39-16.17a69,69,0,0,0-.41-13.47.16.16,0,1,1,.31-.06,47.15,47.15,0,0,1,.92,11.88c2-4,4.15-7.93,6.42-11.81.2-.35.69,0,.51.36-3.54,6.8-6.81,13.74-9.89,20.78a45.23,45.23,0,0,1,14.74-8.54c.23-.08.41.26.17.36a53.66,53.66,0,0,0-15.94,10.55q-3.32,7.74-6.32,15.58c5.89-5.76,13.93-9.55,21.72-11.59.27-.07.33.34.08.41-9,2.72-16,7.83-22.86,14q-1.2,3.18-2.34,6.36-4.36,12.09-8.3,24.31-1.89,5.87-3.73,11.74c-1.31,4.21-2.34,8.67-4.05,12.74-.17.38-.86.3-.78-.17A124.09,124.09,0,0,1,407.71,384Z" style="fill:#263238"></path><path d="M423.3,306.15a23.3,23.3,0,0,1,3.38,8.44c0,.07-.1.12-.13,0a73.65,73.65,0,0,0-3.67-8.28C422.74,306.08,423.14,305.9,423.3,306.15Z" style="fill:#263238"></path><path d="M440.07,325.73a25,25,0,0,1,8.43-2.84c.08,0,.13.1.05.14-1.36.56-2.78,1-4.16,1.48s-2.72,1.17-4.11,1.66A.24.24,0,0,1,440.07,325.73Z" style="fill:#263238"></path><path d="M444.79,302.17a17,17,0,0,1,2.72-1.67.14.14,0,0,1,.15.24,17,17,0,0,1-2.67,1.73C444.81,302.57,444.62,302.29,444.79,302.17Z" style="fill:#263238"></path><path d="M380.84,346.3c6.77,2,13.58,3.87,20.35,5.86.58.17,12-21.76,7.89-33.06-3.82-10.45-12.57-18.28-23-21.83-4.83-1.64-10.77-3-15.88-1.9-4.54,1-7.75,4.72-9.22,9-2,5.8-1.34,12.72-.25,18.65a32.6,32.6,0,0,0,6.66,15.22C371,342.51,375.57,344.74,380.84,346.3Z" style="fill:#FFC727"></path><path d="M371,325.46a91.21,91.21,0,0,0,13.27,5.23,55,55,0,0,1,8.86,3.2c-2.86-6.37-6-12.61-9.32-18.8-4.38-1.26-9-3.24-12.27-6.33a.19.19,0,0,1,.24-.29c3.61,2.55,7.59,4.08,11.58,5.81q-1.35-2.5-2.74-5c-.26-.46.38-.92.69-.47A142.82,142.82,0,0,1,391,325a74.65,74.65,0,0,0,.7-14.8.1.1,0,0,1,.19,0,49.36,49.36,0,0,1-.16,16.27c2.37,4.73,4.53,9.59,6.48,14.5.77-2.95,1.77-5.86,2.44-8.83a40.26,40.26,0,0,0,1-13,.1.1,0,0,1,.2,0A45.93,45.93,0,0,1,398.94,343c1.13,3,2.21,5.93,3.2,8.91a177.47,177.47,0,0,1,9,47,.29.29,0,0,1-.57,0,232.47,232.47,0,0,0-10.09-46.42c-2-5.9-4.22-11.63-6.7-17.25-4-1.19-8-2.79-11.91-4.15s-7.76-2.86-11-5.38A.14.14,0,0,1,371,325.46Z" style="fill:#263238"></path><path d="M364.72,319.09c4.14,1.47,8.06,3.53,12.2,5,.19.07.08.37-.12.33-4.37-.9-8.72-2.25-12.24-5.12C364.42,319.22,364.57,319,364.72,319.09Z" style="fill:#263238"></path><path d="M398.52,310.16c0-.22.27-.35.34-.12,1.14,3.81,1.92,7.86.82,11.76-.05.16-.29.16-.3,0C399.18,317.85,399.4,314,398.52,310.16Z" style="fill:#263238"></path><path d="M381.42,301.34a10.15,10.15,0,0,1,1.79,6.49c0,.14-.24.23-.28.06-.5-2.19-1.34-4.18-2-6.3A.28.28,0,0,1,381.42,301.34Z" style="fill:#263238"></path><path d="M461.37,356c-2,6.3-6.7,15-14.17,15.08-4.84.05-9.72-.53-14.57-.6-5.2-.08-10.41-.06-15.59.24-.43,0,.62-15.56,13.11-23.15,3.5-2.12,7.78-2.8,11.75-3.66a54.49,54.49,0,0,1,13.88-1.44c2.87.11,5.26.72,6.28,3.66S462.32,353,461.37,356Z" style="fill:#FFC727"></path><path d="M456,348.09c-3,.78-6.1,1.68-9.15,2.65a32.51,32.51,0,0,1,2.52-2.46c1.31-1.09,2.75-1.95,4.15-2.91.12-.08.05-.3-.1-.24a17.15,17.15,0,0,0-7.37,5.86c-3.8,1.22-7.56,2.58-11.18,4.06a41.87,41.87,0,0,0-7.15,3.77,28.79,28.79,0,0,1,2.59-4.51c1.65-2.15,3.9-3.34,6.07-4.87a.19.19,0,0,0-.2-.33,17.77,17.77,0,0,0-9.74,10.56,41.21,41.21,0,0,0-7.08,6.44c-8.27,9.38-14.78,21.87-14.8,34.62,0,.3.49.39.55.07A70.51,70.51,0,0,1,420.87,367c.59-.69,1.19-1.35,1.81-2a55.76,55.76,0,0,1,6.83-.51c2.66,0,5.3.39,7.95.6,4.36.36,9.18.41,13.11-1.78.17-.1.06-.4-.14-.33-8.77,3.19-18-.86-26.75,1a41.31,41.31,0,0,1,13-8.36l.81-.32c5.62.68,11.57,2.14,17.05.32a.14.14,0,0,0-.08-.26c-5.29,1.32-10.37-.34-15.6-.61,5.7-2.21,11.49-4,17.2-6.18C456.5,348.4,456.52,348,456,348.09Z" style="fill:#263238"></path><path d="M458.48,353.63a75,75,0,0,1-8.19.62c-.06,0-.08.1,0,.12a17.07,17.07,0,0,0,8.27-.53C458.67,353.8,458.61,353.61,458.48,353.63Z" style="fill:#263238"></path><path d="M440,348.23a13.47,13.47,0,0,0-4.06,2.82c-.14.12.05.38.21.27.69-.5,1.4-1,2.11-1.44a18.22,18.22,0,0,0,2-1.25C440.4,348.48,440.2,348.15,440,348.23Z" style="fill:#263238"></path><path d="M395.87,368.51c.1.21-.2.4-.32.18h0a.27.27,0,0,1-.19.13,125.86,125.86,0,0,1-15.26,2.66c-4.13.37-8.9.6-12.51-1.8-4.9-3.25-8.12-11.93-5.47-17.45,3.13-6.55,12.57-3,17.31-.67A34.72,34.72,0,0,1,395.87,368.51Z" style="fill:#FFC727"></path><path d="M399.54,371.54a49.32,49.32,0,0,0-9.11-6.94,31.29,31.29,0,0,0-9.24-9.41c-.18-.13-.34.16-.17.28a41.87,41.87,0,0,1,7.78,8.19,86.05,86.05,0,0,0-11.43-5.2,15.21,15.21,0,0,0-6.14-6.15c-.05,0-.11.05-.06.09a25.07,25.07,0,0,1,5.54,5.82c-2.32-.87-4.66-1.68-7-2.46-.21-.07-.29.25-.09.33,4.17,1.63,8.44,3.35,12.58,5.34a48.33,48.33,0,0,1-15.23-.05c-.14,0-.2.18-.06.22a30.06,30.06,0,0,0,16.16.24,77.39,77.39,0,0,1,7.66,4.29,19.43,19.43,0,0,0-6.19.51,47.06,47.06,0,0,1-10.89,1.23.13.13,0,0,0,0,.25c6.31,1.09,12.28-1.78,18.54-1a47.55,47.55,0,0,1,6.52,5.33,49.09,49.09,0,0,1,9.51,13.41c2.63,5.36,4.06,11.05,6.19,16.59a.2.2,0,0,0,.39-.11C412.94,391.38,407.5,379.33,399.54,371.54Z" style="fill:#263238"></path><path d="M380.49,356.56a7,7,0,0,0-1.62-2,6.33,6.33,0,0,0-1.86-1.4.06.06,0,0,0-.06.1c.51.59,1.24,1,1.79,1.59s1,1.22,1.6,1.78A.09.09,0,0,0,380.49,356.56Z" style="fill:#263238"></path><path d="M370.07,360c-.93-.24-1.92-.22-2.88-.41a27.89,27.89,0,0,1-2.79-.84.11.11,0,0,0-.08.2,9.21,9.21,0,0,0,5.75,1.34A.15.15,0,0,0,370.07,360Z" style="fill:#263238"></path><polygon points="425.56 388.84 424.73 398.25 421.92 430.04 397.02 430.04 393.51 398.25 392.47 388.84 425.56 388.84" style="fill:#455a64"></polygon><polygon points="425.56 388.84 424.73 398.25 393.51 398.25 392.47 388.84 425.56 388.84" style="fill:#263238"></polygon><rect x="390.01" y="386.27" width="38.02" height="7.64" style="fill:#455a64"></rect></g></svg>