<svg xmlns="http://www.w3.org/2000/svg" viewBox="0 0 500 500"><g id="freepik--background-simple--inject-2"><path d="M451.67,117q-2.52-4.2-5.25-8.22c-24.28-35.67-64.69-60.09-104-71.15a224,224,0,0,0-52.51-8c-115.68-4.2-158.18,91.17-195.45,115.77S0,211.91,7.21,300.15c5.44,67.09,43.61,131.24,113.31,160.43a197.16,197.16,0,0,0,24.19,8.35,230.64,230.64,0,0,0,51.09,7.85c52.7,2.35,95.49-10.35,137.35-42.34,9.73-7.44,19.41-15.83,32-16.75,9.18-.66,17.88,2.63,8.29,11.5-11.28,10.43,1.73,30.93,30.35,16.69,47.81-23.8,67.47-75.13,76.73-127.32C491.93,254.49,486.41,174.81,451.67,117Z" style="fill:#BA68C8"></path><path d="M451.67,117q-2.52-4.2-5.25-8.22c-24.28-35.67-64.69-60.09-104-71.15a224,224,0,0,0-52.51-8c-115.68-4.2-158.18,91.17-195.45,115.77S0,211.91,7.21,300.15c5.44,67.09,43.61,131.24,113.31,160.43a197.16,197.16,0,0,0,24.19,8.35,230.64,230.64,0,0,0,51.09,7.85c52.7,2.35,95.49-10.35,137.35-42.34,9.73-7.44,19.41-15.83,32-16.75,9.18-.66,17.88,2.63,8.29,11.5-11.28,10.43,1.73,30.93,30.35,16.69,47.81-23.8,67.47-75.13,76.73-127.32C491.93,254.49,486.41,174.81,451.67,117Z" style="fill:#fff;opacity:0.7000000000000001"></path></g><g id="freepik--Landscape--inject-2"><rect x="88.8" y="105.14" width="321.42" height="295.55" style="fill:#cfcfcf"></rect><path d="M410.23,401.2H88.8a.51.51,0,0,1-.5-.5V105.14a.51.51,0,0,1,.5-.5H410.23a.51.51,0,0,1,.5.5V400.7A.51.51,0,0,1,410.23,401.2Zm-320.93-1H409.73V105.64H89.3Z" style="fill:#263238"></path><path d="M321.49,159.2a10.64,10.64,0,0,0-7.82,3.42,16.62,16.62,0,0,0-31.29-2.82,11,11,0,1,0,2.45,17.58A16.62,16.62,0,0,0,312,174.83a10.69,10.69,0,1,0,9.47-15.63Z" style="fill:#e5e5e5"></path><path d="M210,164.73a7.5,7.5,0,0,0-5.53,2.42,11.75,11.75,0,0,0-22.13-2,7.75,7.75,0,1,0,1.73,12.43,11.77,11.77,0,0,0,19.23-1.8,7.56,7.56,0,1,0,6.7-11.06Z" style="fill:#e5e5e5"></path><circle cx="130.24" cy="188.95" r="33.82" transform="translate(-61.56 62.95) rotate(-22.12)" style="fill:#BA68C8"></circle><polygon points="140.59 252.06 132.77 213.38 133.21 214.82 140.27 191.71 131.63 207.74 128.07 190.11 129.24 215.62 120.04 209.69 129.59 223.28 130.96 253.02 140.59 252.06" style="fill:#878787"></polygon><path d="M114,175.66a3.86,3.86,0,1,1-3.86-3.85A3.85,3.85,0,0,1,114,175.66Z" style="fill:#fff"></path><path d="M127.11,167.32a3.54,3.54,0,1,1-3.54-3.54A3.54,3.54,0,0,1,127.11,167.32Z" style="fill:#fff"></path><path d="M123.9,184.17a2.09,2.09,0,1,1-2.09-2.09A2.09,2.09,0,0,1,123.9,184.17Z" style="fill:#fff"></path><path d="M148.93,171.17a5.46,5.46,0,1,1-5.45-5.46A5.45,5.45,0,0,1,148.93,171.17Z" style="fill:#fff"></path><circle cx="132.88" cy="186.57" r="3.85" style="fill:#fff"></circle><path d="M160.49,185.29a3.21,3.21,0,1,1-3.21-3.21A3.21,3.21,0,0,1,160.49,185.29Z" style="fill:#fff"></path><path d="M153.43,202.14a4,4,0,1,1-4-4A4,4,0,0,1,153.43,202.14Z" style="fill:#fff"></path><path d="M109.13,198.77a3.21,3.21,0,1,1-3.21-3.21A3.21,3.21,0,0,1,109.13,198.77Z" style="fill:#fff"></path><path d="M119.72,197a3.37,3.37,0,1,1-3.37-3.37A3.37,3.37,0,0,1,119.72,197Z" style="fill:#fff"></path><path d="M114.27,212.9a1.61,1.61,0,1,1-1.61-1.61A1.61,1.61,0,0,1,114.27,212.9Z" style="fill:#fff"></path><path d="M143.48,213.54a2.25,2.25,0,1,1-2.25-2.25A2.24,2.24,0,0,1,143.48,213.54Z" style="fill:#fff"></path><circle cx="369.62" cy="188.95" r="33.82" transform="translate(37.06 437.39) rotate(-63.84)" style="fill:#BA68C8"></circle><polygon points="359.27 252.06 367.09 213.38 366.66 214.82 359.6 191.71 368.23 207.74 371.79 190.11 370.62 215.62 379.82 209.69 370.27 223.28 368.9 253.02 359.27 252.06" style="fill:#878787"></polygon><path d="M385.92,175.66a3.85,3.85,0,1,0,3.85-3.85A3.85,3.85,0,0,0,385.92,175.66Z" style="fill:#fff"></path><path d="M372.76,167.32a3.53,3.53,0,1,0,3.53-3.54A3.53,3.53,0,0,0,372.76,167.32Z" style="fill:#fff"></path><path d="M376,184.17a2.09,2.09,0,1,0,2.08-2.09A2.08,2.08,0,0,0,376,184.17Z" style="fill:#fff"></path><path d="M350.93,171.17a5.46,5.46,0,1,0,5.46-5.46A5.45,5.45,0,0,0,350.93,171.17Z" style="fill:#fff"></path><path d="M363.13,186.57a3.85,3.85,0,1,0,3.85-3.85A3.85,3.85,0,0,0,363.13,186.57Z" style="fill:#fff"></path><path d="M339.37,185.29a3.21,3.21,0,1,0,3.21-3.21A3.21,3.21,0,0,0,339.37,185.29Z" style="fill:#fff"></path><path d="M346.44,202.14a4,4,0,1,0,4-4A4,4,0,0,0,346.44,202.14Z" style="fill:#fff"></path><path d="M390.73,198.77a3.21,3.21,0,1,0,3.21-3.21A3.21,3.21,0,0,0,390.73,198.77Z" style="fill:#fff"></path><path d="M380.14,197a3.37,3.37,0,1,0,3.37-3.37A3.37,3.37,0,0,0,380.14,197Z" style="fill:#fff"></path><path d="M385.6,212.9a1.61,1.61,0,1,0,1.6-1.61A1.6,1.6,0,0,0,385.6,212.9Z" style="fill:#fff"></path><path d="M356.39,213.54a2.25,2.25,0,1,0,2.24-2.25A2.24,2.24,0,0,0,356.39,213.54Z" style="fill:#fff"></path><path d="M410.23,267.3c-37.42-28.39-95-30.13-139.13-1.35a119.88,119.88,0,0,0-21.59,17.92A119.46,119.46,0,0,0,227.93,266c-44.16-28.78-101.71-27-139.13,1.35V401.37H410.23Z" style="fill:#878787"></path></g><g id="freepik--puppet-2--inject-2"><path d="M278.11,337.85s-2.28,2.57,11.77,4.17,30.53,5.53,34.33,7.16,5.93,2.17,5.65-.24.73-5.38-10.72-12.66S279.92,333.62,278.11,337.85Z" style="fill:#b5b5b5"></path><path d="M328.67,351.08a14,14,0,0,1-4.66-1.44c-3.51-1.51-19.56-5.46-34.19-7.12-7.5-.86-11.62-2.13-12.26-3.79a1.25,1.25,0,0,1,.12-1.13c.53-1.14,2.41-2.21,5.57-3.19,9.54-3,27.41-4.11,36.16,1.45,10.54,6.7,10.74,9.95,10.89,12.32,0,.24,0,.47.05.7a1.9,1.9,0,0,1-.57,1.88A1.78,1.78,0,0,1,328.67,351.08ZM278.5,338.17a.22.22,0,0,0,0,.23c.2.45,1.63,2,11.43,3.12,13.75,1.57,30.39,5.45,34.47,7.2,1.22.53,4.08,1.76,4.77,1.24.22-.17.22-.62.18-1s0-.5-.06-.76c-.13-2.16-.32-5.11-10.43-11.54-8.38-5.32-26.21-4.17-35.32-1.34-2.77.86-4.62,1.86-5,2.69A.37.37,0,0,1,278.5,338.17Zm-.39-.32h0Z" style="fill:#263238"></path><path d="M281.82,315.84s9.26,5.38,52.25,9.47c0,0-4.25-8.16-26.42-13.82C307.65,311.49,295.38,307.83,281.82,315.84Z" style="fill:#fff"></path><path d="M334.07,325.81H334c-42.6-4.06-52.07-9.31-52.46-9.53a.51.51,0,0,1,0-.87c13.6-8,26.11-4.44,26.23-4.4,22.12,5.65,26.54,13.73,26.72,14.07a.5.5,0,0,1-.44.73Zm-51.17-10c3.06,1.28,15.32,5.53,50.13,8.91-1.77-2.2-8-8.27-25.5-12.73C307.39,311.94,295.78,308.62,282.9,315.8Z" style="fill:#263238"></path><polygon points="314.74 400.94 323.9 323.56 292.23 317.83 271.96 400.94 314.74 400.94" style="fill:#fff"></polygon><path d="M314.74,401.43H272a.51.51,0,0,1-.39-.19.49.49,0,0,1-.09-.42l20.27-83.11a.49.49,0,0,1,.57-.37L324,323.07a.51.51,0,0,1,.41.55L315.23,401A.49.49,0,0,1,314.74,401.43Zm-42.14-1h41.69L323.35,324l-30.74-5.57Z" style="fill:#263238"></path><path d="M286.57,341.05h.1c3.75.14,7.48.33,11.21.76a120,120,0,0,1,17.93,3.48c1.67.46,3.51,1,5.32,1.65l2.77-23.38-31.67-5.73Z" style="fill:#263238"></path><path d="M321.13,347.44a.47.47,0,0,1-.17,0c-1.75-.65-3.49-1.15-5.28-1.64a118.86,118.86,0,0,0-17.86-3.46c-3.89-.45-7.83-.64-11.17-.76a.62.62,0,0,1-.43-.2.52.52,0,0,1-.13-.42l5.66-23.22a.49.49,0,0,1,.57-.37L324,323.07a.51.51,0,0,1,.41.55L321.63,347a.52.52,0,0,1-.24.37A.48.48,0,0,1,321.13,347.44Zm-33.93-6.87c3.24.12,7,.31,10.73.75a120,120,0,0,1,18,3.49c1.6.44,3.18.88,4.76,1.44L323.35,324l-30.74-5.57Z" style="fill:#263238"></path><path d="M357.13,293.44a105.21,105.21,0,0,0-10-6.23,129.53,129.53,0,0,1-17.61-11.58l-12.63-3.73L303.76,271a129,129,0,0,1-20.55,4.67A104.61,104.61,0,0,0,271.66,278a8.42,8.42,0,0,0-6.2,9.29l0,.19a8.45,8.45,0,0,0,12,6.48c3.2-1.49,12.4-6.66,16.7-7.66l-16,51.59c.31.36,4.12-.18,4.75-.18,1.61,0,3.21.05,4.81.11,3.75.14,7.48.33,11.21.76A118.92,118.92,0,0,1,316.82,342c4.47,1.23,10.26,2.89,13,6.92l3.3-55.62c3.67,2.45,10.48,10.52,12.95,13a8.44,8.44,0,0,0,13.48-1.88l.09-.16A8.44,8.44,0,0,0,357.13,293.44Z" style="fill:#d9d9d9"></path><path d="M329.86,349.44a.51.51,0,0,1-.42-.22c-2.73-4-8.76-5.62-12.75-6.72A119.34,119.34,0,0,0,298.83,339c-3.91-.45-7.84-.64-11.18-.76l-.38,0c-1.44-.05-2.94-.1-4.41-.09-.16,0-.56,0-1.06.09-3,.31-3.75.29-4.07-.08s-.17-.23,7.92-26.27L293.4,287c-3.21,1-8.31,3.61-12.11,5.57-1.49.77-2.77,1.43-3.63,1.83a8.91,8.91,0,0,1-8.12-.26,8.8,8.8,0,0,1-4.55-6.61l0-.19a9,9,0,0,1,6.57-9.84,104.76,104.76,0,0,1,11.6-2.34,130,130,0,0,0,20.47-4.65.64.64,0,0,1,.2,0l13.13.94.11,0,12.62,3.73a.51.51,0,0,1,.18.09,129.94,129.94,0,0,0,17.54,11.53,109.63,109.63,0,0,1,10,6.26h0a9,9,0,0,1,2.7,11.53l-.09.16a8.81,8.81,0,0,1-6.59,4.6,8.91,8.91,0,0,1-7.69-2.61c-.66-.67-1.63-1.74-2.75-3-2.88-3.18-6.73-7.42-9.4-9.48L330.36,349a.51.51,0,0,1-.37.45Zm-46.55-12.28c1.34,0,2.69,0,4,.1l.38,0c3.35.12,7.31.31,11.25.76a120.88,120.88,0,0,1,18,3.5c3.78,1,9.31,2.55,12.48,6.06l3.23-54.31a.51.51,0,0,1,.78-.38c2.75,1.83,7.11,6.64,10.3,10.15,1.12,1.23,2.08,2.29,2.72,2.95a8,8,0,0,0,6.84,2.32,7.81,7.81,0,0,0,5.85-4.08l.09-.17a8,8,0,0,0-2.4-10.23h0a105,105,0,0,0-9.95-6.2,132.77,132.77,0,0,1-17.6-11.57L316.8,272.4l-13-.93a133.51,133.51,0,0,1-20.54,4.66,104.64,104.64,0,0,0-11.49,2.31,8,8,0,0,0-5.84,8.75l0,.18a7.83,7.83,0,0,0,4,5.88,7.93,7.93,0,0,0,7.22.22c.84-.39,2.11-1.05,3.59-1.81,4.21-2.17,10-5.14,13.21-5.89a.5.5,0,0,1,.59.64l-15.88,51.07c.75,0,2.23-.14,2.94-.21.55-.06,1-.1,1.16-.1Zm-4.93.28Z" style="fill:#263238"></path><path d="M348.41,287.05l-19-14.31-13-1.86-12.83-2.82-22.78,6.75,3.86,18.36,6.23-1.54-9.1,24.21s8.7-4.39,26.61-.73c18.06,2.85,25.64,10.2,25.64,10.2l-1-26.05,5.3,3.63Z" style="fill:#BA68C8"></path><path d="M334.07,325.81a.5.5,0,0,1-.35-.14c-.08-.07-7.7-7.28-25.37-10.07-17.56-3.59-26.22.65-26.31.69a.52.52,0,0,1-.56-.07.51.51,0,0,1-.13-.55l8.77-23.33-5.31,1.31a.51.51,0,0,1-.61-.38l-3.86-18.35a.51.51,0,0,1,.35-.59l22.78-6.75a.52.52,0,0,1,.25,0l12.83,2.82,13,1.85a.67.67,0,0,1,.23.1l19,14.32a.49.49,0,0,1,.12.66l-10.05,15.84a.52.52,0,0,1-.32.22.47.47,0,0,1-.38-.08l-4.48-3.07,1,25.06a.49.49,0,0,1-.3.47A.46.46,0,0,1,334.07,325.81ZM295,313.14a68.06,68.06,0,0,1,13.58,1.48c14.76,2.33,22.51,7.58,25,9.56l-1-24.9a.53.53,0,0,1,.26-.46.49.49,0,0,1,.52,0l4.87,3.33,9.53-15-18.49-14-12.88-1.85-12.74-2.79-22.22,6.58,3.66,17.4,5.73-1.42a.52.52,0,0,1,.5.16.48.48,0,0,1,.09.5l-8.7,23.14A36.26,36.26,0,0,1,295,313.14Z" style="fill:#263238"></path><polygon points="280.83 274.81 284.69 293.17 290.92 291.63 286.71 273.07 280.83 274.81" style="fill:#fff"></polygon><path d="M284.69,293.67a.52.52,0,0,1-.49-.4l-3.86-18.35a.51.51,0,0,1,.35-.59l5.88-1.74a.51.51,0,0,1,.4.05.48.48,0,0,1,.23.32l4.21,18.56a.49.49,0,0,1-.37.59l-6.23,1.54Zm-3.28-18.51,3.66,17.4,5.26-1.3-4-17.56Z" style="fill:#263238"></path><polygon points="342.41 282.52 333.06 299.26 338.36 302.89 348.41 287.05 342.41 282.52" style="fill:#fff"></polygon><path d="M338.36,303.39a.47.47,0,0,1-.28-.09l-5.3-3.63a.49.49,0,0,1-.15-.65L342,282.28a.47.47,0,0,1,.34-.24.51.51,0,0,1,.4.08l6,4.54a.49.49,0,0,1,.12.66l-10.05,15.84a.52.52,0,0,1-.32.22Zm-4.64-4.28,4.49,3.07,9.53-15-5.17-3.91Z" style="fill:#263238"></path><path d="M315.91,281.34l2,6.82a.86.86,0,0,0,.55.58l6.73,2.25a.86.86,0,0,1,.21,1.52l-5.89,4a.86.86,0,0,0-.38.69l-.06,7.1a.86.86,0,0,1-1.38.67l-5.59-4.37a.84.84,0,0,0-.78-.15l-6.77,2.14a.86.86,0,0,1-1.06-1.11l2.43-6.67a.89.89,0,0,0-.11-.79l-4.12-5.78a.85.85,0,0,1,.73-1.34l7.09.24a.82.82,0,0,0,.71-.34l4.23-5.7A.85.85,0,0,1,315.91,281.34Z" style="fill:#fff"></path><path d="M318.17,305.62a1.37,1.37,0,0,1-.83-.29L311.75,301a.37.37,0,0,0-.32-.06L304.66,303a1.35,1.35,0,0,1-1.68-1.75l2.43-6.67a.36.36,0,0,0-.05-.33l-4.12-5.78a1.33,1.33,0,0,1-.08-1.42,1.35,1.35,0,0,1,1.23-.71l7.1.24a.37.37,0,0,0,.29-.14l4.23-5.7a1.34,1.34,0,0,1,2.38.43l2,6.83a.35.35,0,0,0,.23.23l6.73,2.26a1.35,1.35,0,0,1,.32,2.4l-5.88,4a.37.37,0,0,0-.16.29l-.06,7.1a1.34,1.34,0,0,1-.77,1.2A1.31,1.31,0,0,1,318.17,305.62Zm-6.64-5.74a1.38,1.38,0,0,1,.84.29l5.59,4.37a.34.34,0,0,0,.37,0,.33.33,0,0,0,.2-.31l.06-7.1a1.37,1.37,0,0,1,.6-1.11l5.89-4a.35.35,0,0,0-.09-.62l-6.73-2.26a1.34,1.34,0,0,1-.87-.91l-2-6.82a.34.34,0,0,0-.27-.25.36.36,0,0,0-.35.13l-4.22,5.71a1.41,1.41,0,0,1-1.14.54l-7.09-.24a.33.33,0,0,0-.32.18.33.33,0,0,0,0,.37l4.12,5.78a1.36,1.36,0,0,1,.17,1.25l-2.43,6.67a.34.34,0,0,0,.08.37.37.37,0,0,0,.36.09l6.77-2.13A1.4,1.4,0,0,1,311.53,299.88Z" style="fill:#263238"></path><path d="M312.27,227.84s-9.6-14.39-15.21-12.65-5,20,0,29.46Z" style="fill:#d9d9d9"></path><path d="M297,245.15H297a.53.53,0,0,1-.38-.27c-3.9-7.4-5.24-20.71-2.69-26.87a5.23,5.23,0,0,1,3-3.3c5.9-1.83,15.37,12.26,15.77,12.86a.48.48,0,0,1-.05.61L297.39,245A.48.48,0,0,1,297,245.15Zm1-29.6a3,3,0,0,0-.85.12,4.27,4.27,0,0,0-2.39,2.72c-2.39,5.77-1.22,18.09,2.32,25.38l14.49-16C309,224,302.34,215.55,298.06,215.55Z" style="fill:#263238"></path><path d="M309.53,231.49s-8.13-14.82-10.29-9.23S300,242,300,242Z" style="fill:#fff"></path><path d="M300,242.47h-.13a.51.51,0,0,1-.36-.38c-.12-.59-3-14.33-.78-20,.48-1.24,1.23-1.54,1.77-1.58,3.34-.2,8.81,9.63,9.43,10.75a.5.5,0,0,1-.07.58l-9.49,10.48A.52.52,0,0,1,300,242.47Zm.63-21h-.07c-.13,0-.55,0-.9.94-1.76,4.56,0,15.19.64,18.46l8.58-9.48C306.69,227.43,302.66,221.5,300.67,221.5Z" style="fill:#263238"></path><path d="M335.89,232.12s14-10.12,18.67-6.51-2.33,20.52-10.29,27.6Z" style="fill:#d9d9d9"></path><path d="M344.27,253.71l-.11,0a.48.48,0,0,1-.35-.3l-8.39-21.08a.5.5,0,0,1,.18-.59c.58-.42,14.39-10.3,19.27-6.51a5.21,5.21,0,0,1,1.68,4.14c.22,6.67-5.7,18.67-11.95,24.23A.51.51,0,0,1,344.27,253.71ZM336.5,232.3l8,20c5.87-5.59,11.29-16.72,11.08-23a4.31,4.31,0,0,0-1.29-3.39C350.79,223.31,340.56,229.44,336.5,232.3Z" style="fill:#263238"></path><path d="M337.17,236.5s12.82-11,12.88-5-7.67,18.17-7.67,18.17Z" style="fill:#fff"></path><path d="M342.38,250.14h0a.51.51,0,0,1-.42-.31l-5.22-13.15a.51.51,0,0,1,.14-.56c1-.84,9.58-8.12,12.61-6.76a2.08,2.08,0,0,1,1.1,2.1c.07,6.07-7.42,17.95-7.74,18.45A.51.51,0,0,1,342.38,250.14Zm-4.61-13.49,4.71,11.88c1.72-2.85,7.12-12.18,7.07-17.06,0-1-.39-1.14-.52-1.2C347.23,229.46,341.29,233.66,337.77,236.65Z" style="fill:#263238"></path><circle cx="320.42" cy="252.97" r="27.61" transform="translate(-38.34 447.8) rotate(-66.8)" style="fill:#d9d9d9"></circle><path d="M320.48,281.09A28.11,28.11,0,1,1,348.08,258h0a28.15,28.15,0,0,1-27.6,23.11Zm-.12-55.23a27.11,27.11,0,1,0,26.73,31.94h0a27.14,27.14,0,0,0-26.73-31.94Z" style="fill:#263238"></path><path d="M317,245.89c-.31,1.7-1.52,2.91-2.7,2.7s-1.9-1.77-1.59-3.48,1.52-2.91,2.71-2.7S317.31,244.18,317,245.89Z" style="fill:#263238"></path><path d="M314.58,249.11a2.31,2.31,0,0,1-.37,0c-1.48-.27-2.35-2.05-2-4.06s1.81-3.37,3.29-3.1,2.35,2.05,2,4.06h0C317.16,247.81,315.92,249.11,314.58,249.11Zm.56-6.22c-.84,0-1.7,1-1.93,2.31s.28,2.73,1.18,2.9,1.86-.9,2.12-2.3-.29-2.74-1.18-2.9Zm1.86,3h0Z" style="fill:#263238"></path><path d="M329.57,248.16c-.31,1.71-1.52,2.92-2.7,2.7s-1.9-1.77-1.59-3.47,1.52-2.92,2.7-2.7S329.88,246.46,329.57,248.16Z" style="fill:#263238"></path><path d="M327.14,251.39l-.36,0c-1.48-.27-2.35-2.05-2-4.06s1.81-3.37,3.28-3.11a2.41,2.41,0,0,1,1.72,1.47,4.69,4.69,0,0,1-.89,4.93A2.53,2.53,0,0,1,327.14,251.39Zm.57-6.23c-.84,0-1.7,1-1.94,2.32s.29,2.73,1.18,2.89a1.4,1.4,0,0,0,1.24-.49,3.48,3.48,0,0,0,.89-1.81h0a3.41,3.41,0,0,0-.2-2,1.42,1.42,0,0,0-1-.89Z" style="fill:#263238"></path><ellipse cx="319.19" cy="259.74" rx="10.43" ry="13.32" transform="translate(6.72 527.53) rotate(-79.73)" style="fill:#fff"></ellipse><path d="M320.33,270.78a17.32,17.32,0,0,1-3.09-.28,15.84,15.84,0,0,1-9-4.85,9.87,9.87,0,0,1-2.64-8.37c1.08-5.93,8.05-9.66,15.55-8.3s12.72,7.29,11.65,13.22h0C331.87,267.31,326.57,270.78,320.33,270.78ZM318,249.7c-5.76,0-10.63,3.13-11.46,7.76A8.89,8.89,0,0,0,309,265a14.78,14.78,0,0,0,8.44,4.52c7,1.26,13.41-2.09,14.39-7.48h0c1-5.39-3.89-10.8-10.85-12.06A16.27,16.27,0,0,0,318,249.7Zm14.26,12.42h0Z" style="fill:#263238"></path><path d="M316.94,257.73a3.51,3.51,0,1,1-2.83-4.08A3.52,3.52,0,0,1,316.94,257.73Z" style="fill:#fff"></path><path d="M313.49,261.11a4.37,4.37,0,0,1-.72-.06,4,4,0,1,1,4.66-3.23h0a4,4,0,0,1-3.94,3.29Zm0-7a3,3,0,0,0-.53,6,3,3,0,0,0,1.07-5.92A3.27,3.27,0,0,0,313.48,254.1Zm3.46,3.63h0Z" style="fill:#263238"></path><path d="M328.12,259.75a3.51,3.51,0,1,1-2.83-4.07A3.51,3.51,0,0,1,328.12,259.75Z" style="fill:#fff"></path><path d="M324.67,263.14a3.51,3.51,0,0,1-.72-.07,4,4,0,1,1,4.66-3.23h0a4,4,0,0,1-3.94,3.3Zm0-7a3,3,0,1,0,.53.05A3.27,3.27,0,0,0,324.67,256.12Zm3.45,3.63h0Z" style="fill:#263238"></path></g><g id="freepik--puppet-1--inject-2"><path d="M178.59,356.32s-1.29,3.19,12.48-.06,30.59-5.12,34.73-4.87,6.3,0,5.23-2.14-1.13-5.31-14.37-8.28S178.85,351.73,178.59,356.32Z" style="fill:#b5b5b5"></path><path d="M181.67,358.22c-1.69,0-2.8-.3-3.3-.89a1.2,1.2,0,0,1-.28-1.1c.12-1.25,1.52-2.89,4.16-4.89,8-6,24.4-13.13,34.52-10.86,12.19,2.74,13.47,5.72,14.42,7.91.09.22.18.43.28.64a1.91,1.91,0,0,1,.1,2c-.67,1-2.63,1.09-5.8.9-3.82-.23-20.26,1.48-34.59,4.86A45,45,0,0,1,181.67,358.22Zm-2.61-1.73s0,.11.08.22c.35.35,2.21,1.33,11.81-.93,13.47-3.18,30.45-5.16,34.88-4.89,1.32.08,4.43.27,4.91-.45.15-.23,0-.65-.16-1s-.21-.45-.31-.69c-.86-2-2-4.7-13.72-7.33-9.69-2.18-26.07,4.94-33.7,10.69-2.3,1.74-3.71,3.32-3.77,4.21A.59.59,0,0,1,179.06,356.49Zm-.47-.17Z" style="fill:#263238"></path><path d="M174.62,334.36s10.54,1.92,52.38-8.77c0,0-6.76-6.24-29.54-4.07C197.46,321.52,184.68,322.23,174.62,334.36Z" style="fill:#fff"></path><path d="M177.29,335a17.63,17.63,0,0,1-2.76-.15.5.5,0,0,1-.38-.32.49.49,0,0,1,.09-.49c10.07-12.16,23.06-13,23.19-13,22.73-2.16,29.62,3.94,29.91,4.2a.49.49,0,0,1,.14.49.47.47,0,0,1-.36.36C196.4,333.92,182.58,335,177.29,335ZM175.63,334c3.31.17,16.28,0,50.19-8.58-2.41-1.47-10.34-5.07-28.31-3.35A34.57,34.57,0,0,0,175.63,334Z" style="fill:#263238"></path><polygon points="234.57 400.94 216.84 327.39 185.1 332.7 191.62 400.94 234.57 400.94" style="fill:#fff"></polygon><path d="M234.57,401.43h-43a.49.49,0,0,1-.49-.45l-6.52-68.23a.5.5,0,0,1,.41-.54l31.74-5.32a.49.49,0,0,1,.57.38l17.74,73.55a.51.51,0,0,1-.49.61Zm-42.5-1h41.87L216.46,328l-30.82,5.16Z" style="fill:#263238"></path><path d="M216.84,327.39,185.1,332.7l2.33,24.45,1.13-.36c3.58-1.14,7.15-2.22,10.81-3.07a119.62,119.62,0,0,1,18.06-2.8c1.56-.12,3.28-.24,5-.24Z" style="fill:#263238"></path><path d="M187.43,357.65a.53.53,0,0,1-.27-.08.47.47,0,0,1-.22-.37l-2.34-24.45a.5.5,0,0,1,.41-.54l31.74-5.32a.49.49,0,0,1,.57.38l5.62,23.29a.54.54,0,0,1-.09.43.51.51,0,0,1-.4.19c-1.72,0-3.4.12-5,.24a119,119,0,0,0-18,2.79c-3.82.89-7.59,2.05-10.77,3.06l-1.12.36A.44.44,0,0,1,187.43,357.65Zm-1.79-24.53,2.23,23.37.54-.18c3.2-1,7-2.18,10.84-3.08a121.07,121.07,0,0,1,18.14-2.81c1.41-.1,2.9-.21,4.43-.24L216.46,328Z" style="fill:#263238"></path><path d="M237.92,287.8a104.3,104.3,0,0,0-11.52-2.48,130.06,130.06,0,0,1-20.49-4.95l-13.14.77-12.68,3.56a129.67,129.67,0,0,1-17.76,11.35,106.38,106.38,0,0,0-10.08,6.09A8.44,8.44,0,0,0,149.56,313l.08.16a8.45,8.45,0,0,0,13.46,2.06c2.5-2.49,9.41-10.47,13.12-12.87l2.37,54c.4.24,3.81-1.56,4.39-1.78,1.51-.56,3-1,4.57-1.52,3.58-1.14,7.16-2.22,10.81-3.08a119.79,119.79,0,0,1,18.06-2.79c4.62-.36,10.63-.75,14.61,2.1L215.32,295.8c4.29,1.05,13.42,6.35,16.6,7.88A8.44,8.44,0,0,0,244,297.36l0-.19A8.43,8.43,0,0,0,237.92,287.8Z" style="fill:#BA68C8"></path><path d="M178.68,356.84a.59.59,0,0,1-.34-.09.47.47,0,0,1-.25-.41l-2.33-53.06c-2.69,2-6.6,6.21-9.52,9.34-1.14,1.22-2.12,2.28-2.79,2.94a8.91,8.91,0,0,1-7.73,2.51,8.82,8.82,0,0,1-6.52-4.69l-.09-.16A9,9,0,0,1,152,301.73a106.79,106.79,0,0,1,10.12-6.13,131.4,131.4,0,0,0,17.69-11.29.31.31,0,0,1,.18-.09l12.67-3.56.11,0,13.14-.77a.64.64,0,0,1,.2,0,129.94,129.94,0,0,0,20.4,4.92,106,106,0,0,1,11.57,2.5h0a8.93,8.93,0,0,1,6.44,9.93l0,.18a8.82,8.82,0,0,1-4.64,6.56,8.91,8.91,0,0,1-8.12.14c-.85-.41-2.12-1.08-3.6-1.87-3.78-2-8.84-4.7-12-5.73l15.45,52.58a.51.51,0,0,1-.19.55.53.53,0,0,1-.59,0c-3.91-2.81-10.15-2.33-14.27-2a118.94,118.94,0,0,0-18,2.78c-3.83.9-7.59,2.05-10.77,3.06l-.34.11c-1.39.44-2.82.9-4.21,1.41-.16.06-.52.24-1,.45C180.08,356.47,179.18,356.84,178.68,356.84Zm-2.46-55a.46.46,0,0,1,.23.06.49.49,0,0,1,.27.42l2.34,53.43c.7-.23,2-.88,2.69-1.19l1.06-.49c1.41-.52,2.86-1,4.26-1.42l.33-.11c3.2-1,7-2.18,10.85-3.08a119.67,119.67,0,0,1,18.13-2.81c3.9-.3,9.63-.74,13.8,1.49l-15.34-52.2a.52.52,0,0,1,.12-.49.5.5,0,0,1,.48-.14c3.21.79,8.94,3.84,13.13,6.07,1.47.78,2.73,1.45,3.56,1.85a8,8,0,0,0,7.22-.12,7.81,7.81,0,0,0,4.12-5.83l0-.18a8,8,0,0,0-5.72-8.82h0a104.05,104.05,0,0,0-11.46-2.47,132.56,132.56,0,0,1-20.48-4.93l-13,.76-12.53,3.51a132.44,132.44,0,0,1-17.76,11.34,102.68,102.68,0,0,0-10,6.07,7.93,7.93,0,0,0-2.54,10.2l.09.16a7.82,7.82,0,0,0,5.79,4.16,7.91,7.91,0,0,0,6.87-2.23c.65-.65,1.63-1.7,2.76-2.91,3.23-3.47,7.66-8.22,10.44-10A.53.53,0,0,1,176.22,301.84Z" style="fill:#263238"></path><path d="M227.55,284.74l-22.68-7.06L192,280.33,179,282l-19.15,14.06,9.84,16,5.34-3.56-.38,25.87s6.7-7.09,24.8-9.7c18-3.42,27.58.93,27.58.93l-9.76-24.17,6.21,1.62Z" style="fill:#d9d9d9"></path><path d="M174.62,334.86a.46.46,0,0,1-.19,0,.5.5,0,0,1-.31-.47l.37-24.92-4.56,3a.47.47,0,0,1-.38.07.52.52,0,0,1-.32-.22l-9.84-16a.49.49,0,0,1,.13-.66l19.15-14.07a.5.5,0,0,1,.23-.09l13-1.69,12.84-2.64a.49.49,0,0,1,.24,0l22.69,7.06a.5.5,0,0,1,.34.59l-4.1,18.3a.52.52,0,0,1-.23.31.45.45,0,0,1-.39.06l-5.25-1.37,9.39,23.25a.49.49,0,0,1-.12.55.49.49,0,0,1-.55.09c-.1,0-9.71-4.24-27.28-.89-17.69,2.56-24.46,9.48-24.52,9.55A.52.52,0,0,1,174.62,334.86ZM175,308a.5.5,0,0,1,.24.06.51.51,0,0,1,.26.45l-.36,24.71c2.34-1.95,9.55-6.93,24.21-9,14.67-2.8,23.75-.48,26.75.54l-9.33-23.11a.5.5,0,0,1,.09-.51.48.48,0,0,1,.5-.16l5.71,1.49L227,285.08l-22.12-6.88-12.74,2.62-12.94,1.68-18.68,13.71,9.33,15.13,4.91-3.27A.57.57,0,0,1,175,308Z" style="fill:#263238"></path><circle cx="194.54" cy="295.52" r="3.99" transform="translate(-70.43 61.07) rotate(-15.14)" style="fill:#fff"></circle><path d="M194.54,300a4.49,4.49,0,1,1,.74-.06A4.71,4.71,0,0,1,194.54,300Zm0-8a3.9,3.9,0,0,0-.58.05,3.48,3.48,0,1,0,.58-.05Z" style="fill:#263238"></path><path d="M200.46,306.67a4,4,0,1,0-3.28,4.6A4,4,0,0,0,200.46,306.67Z" style="fill:#fff"></path><path d="M196.52,311.82a4.48,4.48,0,1,1,.74-.06A4.71,4.71,0,0,1,196.52,311.82Zm0-8a2.94,2.94,0,0,0-.59.05,3.49,3.49,0,1,0,4,2.86h0a3.48,3.48,0,0,0-3.43-2.91Z" style="fill:#263238"></path><path d="M176.17,244.56s-11.36-16.87-28.91-25.63-31.53,27.22-28.83,31.65S136,237.87,136,237.87s7.21,9.52,18.43,14S173.73,256.19,176.17,244.56Z" style="fill:#BA68C8"></path><path d="M165.74,255.06c-3.06,0-6.82-.91-11.45-2.74-9.79-3.89-16.62-11.67-18.26-13.67-2.36,2.66-12.27,13.51-16.47,13.15a2,2,0,0,1-1.56-1c-1.91-3.13,3.14-18.32,11.27-27.16,5.88-6.4,12.18-8.19,18.21-5.19,17.47,8.72,29,25.63,29.1,25.8a.49.49,0,0,1,.08.39c-1,4.65-2.86,7.67-5.73,9.22A10.84,10.84,0,0,1,165.74,255.06ZM136,237.37h0a.51.51,0,0,1,.38.2c.07.1,7.26,9.47,18.22,13.82,7.37,2.93,12.39,3.44,15.79,1.61,2.56-1.37,4.26-4.1,5.18-8.33-1.26-1.8-12.31-17.16-28.6-25.29-7.06-3.52-13.16.76-17,5-8.33,9.06-12.53,23.7-11.15,26a1,1,0,0,0,.8.48c3.41.3,12.72-9.47,16-13.25A.49.49,0,0,1,136,237.37Z" style="fill:#263238"></path><path d="M174.87,247s-27.09-19.11-30.26-19.06-7.11,7-7.11,7,7.32,8.77,16.18,13.62,16,5.6,18.7,3.94S174.87,247,174.87,247Z" style="fill:#fff"></path><path d="M168.64,253.81c-3.62,0-8.91-1.35-15.2-4.8-8.84-4.84-16.25-13.65-16.32-13.74a.52.52,0,0,1-.05-.57c.42-.74,4.18-7.25,7.54-7.29h0c3.28,0,27.75,17.19,30.53,19.16a.5.5,0,0,1,.22.38c0,.17.14,4.19-2.72,6A7.67,7.67,0,0,1,168.64,253.81Zm-30.53-18.92c1.3,1.49,8,9,15.81,13.24,8.59,4.71,15.65,5.55,18.19,4,2-1.26,2.24-4,2.26-4.86-10.83-7.63-27.52-18.82-29.74-18.82h0C142.38,228.44,139.32,232.84,138.11,234.89Z" style="fill:#263238"></path><path d="M191.22,242s5.24-19.65,19-33.65,38.67,15.47,37.57,20.53-20.8-6.27-20.8-6.27-3.7,11.34-12.87,19.22S197.31,252.24,191.22,242Z" style="fill:#BA68C8"></path><path d="M200.68,249.27a8.93,8.93,0,0,1-1.47-.12c-3.23-.52-6-2.77-8.42-6.85a.54.54,0,0,1-.06-.39c.06-.19,5.44-19.93,19.12-33.87,4.72-4.81,11.25-5.16,18.9-1,10.57,5.71,20.29,18.42,19.51,22a2,2,0,0,1-1.17,1.42c-3.87,1.72-16.75-5.32-19.85-7.06-.9,2.42-4.83,12-12.81,18.87C208.89,247,204.47,249.27,200.68,249.27Zm-8.92-7.3c2.25,3.7,4.74,5.73,7.61,6.19,3.81.62,8.39-1.5,14.41-6.67,8.94-7.69,12.68-18.89,12.72-19a.47.47,0,0,1,.29-.31.54.54,0,0,1,.43,0c4.36,2.51,16.34,8.7,19.46,7.32a1,1,0,0,0,.6-.72c.57-2.6-8.17-15.07-19-20.92-5-2.72-12.19-4.78-17.72.85C197.8,221.74,192.36,239.86,191.76,242Z" style="fill:#263238"></path><path d="M193.23,243.9S212.62,217,215.62,216s9,4.34,9,4.34-4.06,10.67-10.86,18.15-13.35,10.52-16.39,9.81S193.23,243.9,193.23,243.9Z" style="fill:#fff"></path><path d="M198.31,248.92a4.81,4.81,0,0,1-1-.11c-3.29-.77-4.47-4.6-4.52-4.77a.5.5,0,0,1,.08-.43c2-2.77,19.57-27.06,22.64-28.07s8.86,3.88,9.5,4.44a.5.5,0,0,1,.14.55c0,.11-4.18,10.85-11,18.31C207.71,245.93,201.71,248.92,198.31,248.92ZM193.79,244c.29.78,1.4,3.32,3.71,3.86,2.93.68,9.33-2.42,15.91-9.67,6-6.59,9.89-15.83,10.63-17.67-1.81-1.54-6.13-4.71-8.26-4S201.55,233.22,193.79,244Z" style="fill:#263238"></path><circle cx="190.07" cy="261.86" r="27.39" transform="translate(-97.47 113.48) rotate(-26.73)" style="fill:#BA68C8"></circle><path d="M190.06,289.76a27.9,27.9,0,1,1,27.52-32.5h0a27.93,27.93,0,0,1-27.52,32.5Zm0-54.79a27.11,27.11,0,0,0-4.46.37,26.89,26.89,0,1,0,31,22.08h0A26.92,26.92,0,0,0,190.09,235Z" style="fill:#263238"></path><path d="M215.68,264a9.49,9.49,0,1,1-10.93-7.8A9.5,9.5,0,0,1,215.68,264Z" style="fill:#fff"></path><path d="M206.29,275.52a10,10,0,1,1,9.88-11.64h0a10,10,0,0,1-8.2,11.5A10.58,10.58,0,0,1,206.29,275.52Zm0-19a8.41,8.41,0,0,0-1.49.13A9,9,0,1,0,215.18,264h0A9,9,0,0,0,206.32,256.53Z" style="fill:#263238"></path><path d="M186,268.93a9.49,9.49,0,1,1-10.93-7.79A9.49,9.49,0,0,1,186,268.93Z" style="fill:#fff"></path><path d="M176.6,280.49a10,10,0,1,1,5.82-18.13,10,10,0,0,1-4.15,18A9.49,9.49,0,0,1,176.6,280.49Zm0-19a9.72,9.72,0,0,0-1.51.13,9,9,0,0,0,3,17.74,9,9,0,0,0-1.46-17.87Z" style="fill:#263238"></path><path d="M184.5,256.4c.29,1.69-.44,3.23-1.61,3.42s-2.36-1-2.65-2.71.44-3.23,1.62-3.43S184.22,254.7,184.5,256.4Z" style="fill:#263238"></path><path d="M182.63,260.35c-1.34,0-2.57-1.31-2.88-3.16s.56-3.76,2-4,2.88,1.12,3.22,3.12h0c.33,2-.56,3.76-2,4A2,2,0,0,1,182.63,260.35Zm-.52-6.19h-.17c-.89.15-1.44,1.46-1.2,2.86s1.18,2.46,2.07,2.3,1.44-1.45,1.2-2.85h0C183.79,255.17,183,254.16,182.11,254.16Z" style="fill:#263238"></path><path d="M197,254.3c.29,1.7-.44,3.23-1.61,3.43s-2.37-1-2.65-2.71.44-3.23,1.62-3.43S196.72,252.61,197,254.3Z" style="fill:#263238"></path><path d="M195.13,258.25c-1.35,0-2.57-1.31-2.88-3.15-.34-2,.55-3.76,2-4a2.35,2.35,0,0,1,2.09.8,4.41,4.41,0,0,1,1.13,2.33h0c.33,2-.56,3.76-2,4Zm-.52-6.18h-.17c-.89.15-1.44,1.46-1.21,2.85s1.18,2.47,2.07,2.31,1.44-1.46,1.21-2.85h0a3.37,3.37,0,0,0-.85-1.81A1.53,1.53,0,0,0,194.61,252.07Z" style="fill:#263238"></path><path d="M192.67,277.34h0a3.07,3.07,0,0,1-3.49-2.25l-2.69-10.29,7.93-1.33.8,10.6A3.06,3.06,0,0,1,192.67,277.34Z" style="fill:#fff"></path><path d="M192.14,277.89a3.55,3.55,0,0,1-3.44-2.68L186,264.92a.49.49,0,0,1,.06-.39.49.49,0,0,1,.34-.22l7.92-1.33a.46.46,0,0,1,.39.1.49.49,0,0,1,.19.35l.81,10.61a3.54,3.54,0,0,1-3,3.79h0A3.23,3.23,0,0,1,192.14,277.89Zm-5-12.69,2.55,9.76a2.57,2.57,0,0,0,2.92,1.89h0a2.57,2.57,0,0,0,2.15-2.74L194,264.06Z" style="fill:#263238"></path><path d="M198.69,265.6a4.15,4.15,0,0,1-7.47,3.11,4.16,4.16,0,1,1-.61-3.62,4.16,4.16,0,0,1,8.08.51Z" style="fill:#fff"></path><path d="M187.24,272.17a4.65,4.65,0,1,1,3.22-8,4.6,4.6,0,0,1,3.36-2.45,4.65,4.65,0,1,1,1.54,9.17,4.6,4.6,0,0,1-4-1.22A4.57,4.57,0,0,1,188,272.1,4,4,0,0,1,187.24,272.17Zm0-8.31a4,4,0,0,0-.59.05,3.66,3.66,0,0,0,1.21,7.21,3.62,3.62,0,0,0,2.89-2.56.53.53,0,0,1,.4-.35.5.5,0,0,1,.49.21,3.65,3.65,0,0,0,6.57-2.74h0a3.66,3.66,0,0,0-7.11-.45.48.48,0,0,1-.39.35.51.51,0,0,1-.49-.2A3.68,3.68,0,0,0,187.23,263.86Z" style="fill:#263238"></path><path d="M195,262.72c.25,1.5-1.6,3.07-4.15,3.5s-4.81-.45-5.06-2,1.6-3.08,4.15-3.5S194.7,261.21,195,262.72Z" style="fill:#fff"></path><path d="M189.52,266.83c-2.25,0-4-1-4.28-2.49a2.87,2.87,0,0,1,1.2-2.62,7.07,7.07,0,0,1,3.37-1.46c2.85-.47,5.33.57,5.64,2.37h0a2.87,2.87,0,0,1-1.2,2.62,7.07,7.07,0,0,1-3.37,1.46A8,8,0,0,1,189.52,266.83Zm1.63-5.68a6.88,6.88,0,0,0-1.18.1,6.07,6.07,0,0,0-2.88,1.23,1.92,1.92,0,0,0-.86,1.69c.2,1.22,2.26,1.93,4.49,1.55a6.07,6.07,0,0,0,2.88-1.23,1.9,1.9,0,0,0,.86-1.69h0C194.29,261.81,192.88,261.15,191.15,261.15Z" style="fill:#263238"></path></g><g id="freepik--Curtains--inject-2"><path d="M199.2,100.45H88.8l-.38,226.73s7.43,6.75,25,2.7,14.86-16.21,14.86-16.21L101.93,202.9C170.21,184,195,113.92,199.2,100.45Z" style="fill:#BA68C8"></path><path d="M102.77,331.69c-10,0-14.45-3.92-14.69-4.14a.51.51,0,0,1-.16-.37l.38-226.73a.49.49,0,0,1,.5-.49H199.2a.51.51,0,0,1,.41.2.49.49,0,0,1,.07.44c-4.29,13.81-29.1,83.53-97.15,102.65l26.23,110.3c0,.14,2.6,12.7-15.24,16.82A48,48,0,0,1,102.77,331.69Zm-13.85-4.75c1.18.92,8.71,6.07,24.38,2.45,16.84-3.88,14.59-15.14,14.48-15.61L101.44,203a.51.51,0,0,1,.35-.6c66.9-18.51,91.92-86.3,96.73-101.45H89.3Z" style="fill:#263238"></path><path d="M199.2,100.45h-84c-.73,18.91-4.33,69-22.1,102.14l-.39,126.9c3.91,1.48,10.65,2.72,20.75.39,17.56-4.05,14.86-16.21,14.86-16.21L101.93,202.9C170.21,184,195,113.92,199.2,100.45Z" style="fill:#fff"></path><path d="M102.84,331.67A29.34,29.34,0,0,1,92.48,330a.5.5,0,0,1-.32-.47l.39-126.9a.53.53,0,0,1,.06-.24c17.62-32.9,21.28-82.23,22-101.91a.5.5,0,0,1,.5-.48h84a.51.51,0,0,1,.41.2.49.49,0,0,1,.07.44c-4.29,13.81-29.1,83.53-97.15,102.65l26.23,110.3c0,.14,2.6,12.7-15.24,16.82A47.7,47.7,0,0,1,102.84,331.67Zm-9.68-2.53c3.87,1.39,10.42,2.5,20.14.25,16.84-3.88,14.59-15.14,14.48-15.61L101.44,203a.51.51,0,0,1,.35-.6c66.9-18.51,91.92-86.3,96.73-101.45H115.63c-.8,20-4.56,68.94-22.08,101.76Z" style="fill:#263238"></path><path d="M98.26,204.3l15.82,125.41c16.81-4.21,14.19-16,14.19-16L101.93,202.9c68.28-18.91,93.09-89,97.27-102.45H156.7C152.76,121.61,139.48,171.32,98.26,204.3Z" style="fill:#BA68C8"></path><path d="M114.08,330.21a.47.47,0,0,1-.28-.09.45.45,0,0,1-.21-.35L97.77,204.36a.47.47,0,0,1,.18-.45c41.35-33.1,54.52-83.44,58.26-103.55a.49.49,0,0,1,.49-.4h42.5a.51.51,0,0,1,.41.2.49.49,0,0,1,.07.44c-4.29,13.81-29.1,83.53-97.15,102.65l26.23,110.3c0,.13,2.52,12.37-14.56,16.65ZM98.79,204.51l15.72,124.57c15.51-4.14,13.37-14.84,13.27-15.3L101.44,203a.51.51,0,0,1,.35-.6c66.9-18.51,91.92-86.3,96.73-101.45H157.11C153.26,121.4,140,171.43,98.79,204.51Z" style="fill:#263238"></path><path d="M103.89,208.52H88.42v-8.44h15.47a4.22,4.22,0,0,1,4.22,4.22h0A4.22,4.22,0,0,1,103.89,208.52Z" style="fill:#263238"></path><path d="M103.89,209H88.42a.5.5,0,0,1-.5-.5v-8.44a.5.5,0,0,1,.5-.5h15.47a4.72,4.72,0,0,1,0,9.44Zm-15-1h15a3.72,3.72,0,0,0,0-7.44h-15Z" style="fill:#263238"></path><path d="M299.44,100.45H409.85l.38,226.73s-7.43,6.75-25,2.7-14.86-16.21-14.86-16.21L396.72,202.9C328.43,184,303.62,113.92,299.44,100.45Z" style="fill:#BA68C8"></path><path d="M395.88,331.69a48,48,0,0,1-10.76-1.32c-17.84-4.12-15.26-16.68-15.23-16.81l26.23-110.31C328.06,184.13,303.25,114.41,299,100.6a.53.53,0,0,1,.08-.44.48.48,0,0,1,.4-.2H409.85a.5.5,0,0,1,.5.49l.38,226.73a.48.48,0,0,1-.17.37C410.32,327.77,405.86,331.69,395.88,331.69ZM300.12,101c4.82,15.15,29.83,82.94,96.73,101.45a.5.5,0,0,1,.35.6L370.86,313.79c-.1.46-2.36,11.72,14.49,15.6,15.67,3.62,23.2-1.53,24.38-2.45l-.38-226Z" style="fill:#263238"></path><path d="M299.44,100.45h84.05c.73,18.91,4.33,69,22.1,102.14l.4,126.9c-3.92,1.48-10.66,2.72-20.76.39-17.56-4.05-14.86-16.21-14.86-16.21L396.72,202.9C328.43,184,303.62,113.92,299.44,100.45Z" style="fill:#fff"></path><path d="M395.8,331.67a47.7,47.7,0,0,1-10.68-1.3c-17.84-4.12-15.26-16.68-15.23-16.81l26.23-110.31C328.06,184.13,303.25,114.41,299,100.6a.53.53,0,0,1,.08-.44.48.48,0,0,1,.4-.2H383.5a.51.51,0,0,1,.5.48c.75,19.68,4.42,69,22,101.91a.53.53,0,0,1,.06.24l.4,126.9a.5.5,0,0,1-.33.47A29.34,29.34,0,0,1,395.8,331.67ZM300.12,101c4.82,15.15,29.83,82.94,96.73,101.45a.5.5,0,0,1,.35.6L370.86,313.79c-.1.46-2.36,11.72,14.49,15.6,9.71,2.25,16.27,1.14,20.14-.25l-.4-126.42C387.57,169.9,383.82,121,383,101Z" style="fill:#263238"></path><path d="M400.38,204.3,384.56,329.71c-16.8-4.21-14.19-16-14.19-16L396.72,202.9c-68.29-18.91-93.1-89-97.28-102.45H342C345.88,121.61,359.17,171.32,400.38,204.3Z" style="fill:#BA68C8"></path><path d="M384.56,330.21h-.12c-17.08-4.28-14.58-16.52-14.55-16.64l26.23-110.31C328.06,184.13,303.25,114.41,299,100.6a.53.53,0,0,1,.08-.44.48.48,0,0,1,.4-.2H342a.5.5,0,0,1,.49.4c3.74,20.11,16.9,70.45,58.26,103.55a.51.51,0,0,1,.18.45L385.06,329.77a.49.49,0,0,1-.22.35A.47.47,0,0,1,384.56,330.21ZM300.12,101c4.82,15.15,29.83,82.94,96.73,101.45a.5.5,0,0,1,.35.6L370.86,313.79c-.1.45-2.23,11.15,13.28,15.29l15.71-124.57C358.68,171.43,345.39,121.4,341.53,101Z" style="fill:#263238"></path><path d="M394.76,208.52h15.47v-8.44H394.76a4.22,4.22,0,0,0-4.22,4.22h0A4.22,4.22,0,0,0,394.76,208.52Z" style="fill:#263238"></path><path d="M410.23,209H394.76a4.72,4.72,0,1,1,0-9.44h15.47a.5.5,0,0,1,.5.5v8.44A.5.5,0,0,1,410.23,209Zm-15.47-8.44a3.72,3.72,0,1,0,0,7.44h15v-7.44Z" style="fill:#263238"></path><path d="M410.09,74.83s-21.53,19.3-66.16.67c-16.07-6.71-31.75-15.09-48.15-20.71-24.49-8.38-54.09-8.61-79.26-3.64C195.15,55.38,175.19,67.05,155,75.5c-44.63,18.63-66.16-.67-66.16-.67v36.88h0c0,.31,0,.62,0,.93a18.21,18.21,0,0,0,36.05,4,18.18,18.18,0,0,0,35.62,0,18.18,18.18,0,0,0,35.62,0,18.18,18.18,0,0,0,35.62,0,18.17,18.17,0,0,0,35.61,0,18.18,18.18,0,0,0,35.62,0,18.18,18.18,0,0,0,35.62,0,18.18,18.18,0,0,0,35.62,0,18.21,18.21,0,0,0,36.05-4c0-.31,0-.62-.05-.93h.05Z" style="fill:#263238"></path><path d="M410.09,71.62s-21.53,19.29-66.16.66c-16.07-6.7-31.75-15.09-48.15-20.7-24.49-8.39-54.09-8.62-79.26-3.64-21.37,4.22-41.33,15.9-61.56,24.34-44.63,18.63-66.16-.66-66.16-.66V108.5h0c0,.3,0,.61,0,.93a18.21,18.21,0,0,0,36.05,4,18.18,18.18,0,0,0,35.62,0,18.18,18.18,0,0,0,35.62,0,18.18,18.18,0,0,0,35.62,0,18.17,18.17,0,0,0,35.61,0,18.18,18.18,0,0,0,35.62,0,18.18,18.18,0,0,0,35.62,0,18.18,18.18,0,0,0,35.62,0,18.21,18.21,0,0,0,36.05-4c0-.32,0-.63-.05-.93h.05Z" style="fill:#BA68C8"></path><path d="M392,128.44a18.9,18.9,0,0,1-17.81-13.11,18.65,18.65,0,0,1-35.61,0,18.65,18.65,0,0,1-35.62,0,18.65,18.65,0,0,1-35.62,0,18.65,18.65,0,0,1-35.61,0,18.65,18.65,0,0,1-35.62,0,18.65,18.65,0,0,1-35.62,0,18.65,18.65,0,0,1-35.62,0,18.7,18.7,0,0,1-36.55-5.9c0-.26,0-.51,0-.77a.32.32,0,0,1,0-.16V71.62a.51.51,0,0,1,.84-.38c.21.19,21.84,18.86,65.63.58,5.92-2.47,11.92-5.27,17.73-8,14.14-6.58,28.76-13.4,43.92-16.4,27.73-5.48,56.71-4.14,79.52,3.66,10.28,3.52,20.43,8.2,30.25,12.72,5.86,2.7,11.92,5.49,17.93,8,43.79,18.28,65.42-.38,65.63-.58a.51.51,0,0,1,.84.38l.14,36.87a.34.34,0,0,1,0,.18c0,.25,0,.5,0,.76A18.9,18.9,0,0,1,392,128.44Zm-17.81-15.53a.49.49,0,0,1,.49.39,17.72,17.72,0,0,0,35.07-3.87c0-.26,0-.5,0-.75v-.15a.49.49,0,0,1,.05-.24l-.14-35.65c-4.4,3.22-26.22,16.65-65.86.1-6-2.51-12.09-5.31-18-8-9.79-4.51-19.92-9.18-30.15-12.68-22.65-7.75-51.45-9.07-79-3.62-15.05,3-29.61,9.76-43.7,16.32-5.81,2.71-11.83,5.52-17.77,8-39.61,16.54-61.44,3.13-65.85-.1v35.68a.5.5,0,0,1,0,.21v.13c0,.25,0,.51,0,.77a17.72,17.72,0,0,0,35.07,3.87.5.5,0,0,1,1,0,17.68,17.68,0,0,0,34.64,0,.5.5,0,0,1,.49-.39.49.49,0,0,1,.49.39,17.68,17.68,0,0,0,34.64,0,.49.49,0,0,1,.49-.39.5.5,0,0,1,.49.39,17.68,17.68,0,0,0,34.64,0,.49.49,0,0,1,.49-.39.48.48,0,0,1,.48.39,17.68,17.68,0,0,0,34.64,0,.5.5,0,0,1,.49-.39.49.49,0,0,1,.49.39,17.68,17.68,0,0,0,34.64,0,.5.5,0,0,1,.49-.39.49.49,0,0,1,.49.39,17.68,17.68,0,0,0,34.64,0,.49.49,0,0,1,.49-.39.5.5,0,0,1,.49.39,17.68,17.68,0,0,0,34.64,0A.49.49,0,0,1,374.17,112.91Z" style="fill:#263238"></path><path d="M303.13,54.29c-2.43-1-4.88-1.87-7.35-2.71a129.41,129.41,0,0,0-28.35-6V113.8a18.16,18.16,0,0,0,35.51-.39c.06.25.13.5.19.74Z" style="fill:#fff"></path><path d="M285.13,128.44a18.74,18.74,0,0,1-18.19-14.52.49.49,0,0,1,0-.12V45.53a.51.51,0,0,1,.16-.37.52.52,0,0,1,.39-.13,130.18,130.18,0,0,1,28.46,6.07c2.3.79,4.71,1.68,7.38,2.72a.5.5,0,0,1,.31.47v59.86a.49.49,0,0,1-.43.5h-.05A18.9,18.9,0,0,1,285.13,128.44Zm-17.2-14.7a17.66,17.66,0,0,0,34.52-.44.52.52,0,0,1,.18-.29V54.63c-2.52-1-4.82-1.83-7-2.58a129.28,129.28,0,0,0-27.69-6Z" style="fill:#263238"></path><path d="M374.55,80.15c-8.61-.67-18.8-2.93-30.62-7.87q-2.55-1.07-5.09-2.18v44.4a18.17,18.17,0,0,0,35.34-1.09c.1.49.23,1,.37,1.45Z" style="fill:#fff"></path><path d="M356.37,128.44a18.84,18.84,0,0,1-18-13.8.59.59,0,0,1,0-.14V70.1a.5.5,0,0,1,.7-.46q2.54,1.11,5.08,2.18a99.93,99.93,0,0,0,30.47,7.83.5.5,0,0,1,.46.5v34.71a.5.5,0,0,1-.42.49.52.52,0,0,1-.42-.13A18.88,18.88,0,0,1,356.37,128.44Zm-17-14a17.67,17.67,0,0,0,34.35-1.14.5.5,0,0,1,.36-.38V80.61a101.27,101.27,0,0,1-30.32-7.87c-1.46-.61-2.93-1.24-4.39-1.87Z" style="fill:#263238"></path><path d="M231.72,45.64c-5.19.56-10.28,1.32-15.2,2.3A123.69,123.69,0,0,0,196,54.08v59.64c0-.11.06-.21.08-.31a18.18,18.18,0,0,0,35.62,0,.06.06,0,0,0,0,0Z" style="fill:#fff"></path><path d="M213.9,128.44a18.89,18.89,0,0,1-18.15-14.3.48.48,0,0,1-.24-.42V54.08a.5.5,0,0,1,.32-.46,124.81,124.81,0,0,1,20.59-6.18c4.91-1,10-1.74,15.24-2.29a.49.49,0,0,1,.39.12.5.5,0,0,1,.17.37v67.81a.61.61,0,0,1-.06.24A18.91,18.91,0,0,1,213.9,128.44Zm-17.39-15.3a.77.77,0,0,1,.07.16,17.68,17.68,0,0,0,34.64,0V46.2c-5,.55-9.9,1.3-14.6,2.23a122.31,122.31,0,0,0-20.11,6Z" style="fill:#263238"></path><path d="M160.3,70c-1.78.78-3.56,1.56-5.34,2.3a100,100,0,0,1-30.37,7.85v34.29c.09-.34.19-.67.26-1a18.17,18.17,0,0,0,35.45.66Z" style="fill:#fff"></path><path d="M142.66,128.44a18.88,18.88,0,0,1-17.94-13.54.44.44,0,0,1-.2,0,.5.5,0,0,1-.43-.49V80.13a.5.5,0,0,1,.46-.5,100.12,100.12,0,0,0,30.22-7.81c1.78-.74,3.55-1.51,5.33-2.3a.49.49,0,0,1,.47,0,.5.5,0,0,1,.23.42v44.09a.5.5,0,0,1,0,.12A18.77,18.77,0,0,1,142.66,128.44ZM125.09,113a.49.49,0,0,1,.25.33,17.66,17.66,0,0,0,34.46.7V70.75c-1.55.68-3.1,1.35-4.65,2a101.58,101.58,0,0,1-30.06,7.85Z" style="fill:#263238"></path><path d="M408.09,74.27c-.81.7-20.4,17.06-61.66-.11-6-2.48-12-5.26-17.84-7.94-9.94-4.57-20.22-9.29-30.73-12.87-23.52-8-53.34-9.41-81.82-3.8-15.69,3.09-30.57,10-45,16.7-5.8,2.69-11.78,5.47-17.64,7.91-41.27,17.17-60.85.81-61.64.13a4.5,4.5,0,0,0-3-1.12v10C93.42,86.13,103.34,91,118.7,91c10.28,0,23-2.16,38.19-8.48,6-2.51,12.11-5.33,18-8.06,13.91-6.46,28.29-13.15,42.91-16,27-5.31,55.11-4.05,77.18,3.49C305,65.3,315.09,69.93,324.83,74.4c5.92,2.71,12,5.53,18.15,8.07,36.41,15.15,58.58,6.38,67.11,1.32V73.29A4.52,4.52,0,0,0,408.09,74.27Z" style="fill:#263238"></path><path d="M118.7,88.14c-21.41,0-32.24-9.37-32.9-10a4.5,4.5,0,0,1,6-6.71c.79.68,20.37,17,61.64-.14,5.86-2.43,11.84-5.22,17.64-7.91,14.39-6.69,29.27-13.6,45-16.69,28.48-5.62,58.3-4.23,81.82,3.79,10.51,3.59,20.79,8.31,30.73,12.87,5.84,2.69,11.88,5.47,17.84,7.94,41.26,17.17,60.85.82,61.66.12a4.5,4.5,0,0,1,6,6.73c-1,.86-24.24,21-71.08,1.46-6.11-2.54-12.23-5.35-18.15-8.07C315.09,67.11,305,62.49,295,59.05c-22.07-7.53-50.2-8.8-77.18-3.48-14.62,2.88-29,9.56-42.91,16-5.87,2.73-12,5.55-18,8.06C141.7,86,129,88.14,118.7,88.14Z" style="fill:#BA68C8"></path><path d="M118.7,88.64C97,88.64,85.93,79,85.47,78.56a5,5,0,1,1,6.66-7.45c.8.69,20.15,16.82,61.11-.23,5.86-2.43,11.84-5.21,17.63-7.9,14.42-6.7,29.33-13.63,45.07-16.73C244.51,40.62,274.43,42,298,50.06c10.53,3.59,20.81,8.32,30.76,12.89,5.88,2.7,11.9,5.46,17.84,7.93,41,17.06,60.33.89,61.14.2a5,5,0,0,1,6.63,7.48c-1,.88-24.47,21.17-71.62,1.56-6.12-2.55-12.24-5.36-18.16-8.08C314.9,67.57,304.84,63,294.8,59.52c-22-7.5-50-8.76-76.93-3.46-14.55,2.87-28.91,9.54-42.79,16-5.89,2.73-12,5.55-18,8.07-13.59,5.65-26.5,8.52-38.39,8.52v0ZM250.86,51.83c15.89,0,31.14,2.27,44.26,6.75C305.21,62,315.29,66.65,325,71.13c5.91,2.71,12,5.52,18.13,8.06,46.57,19.38,69.6-.52,70.56-1.37a4,4,0,0,0-5.31-6c-.54.47-9.34,7.83-27.17,7.83-9.22,0-20.85-2-35-7.85-5.95-2.48-12-5.25-17.81-7.93-10-4.58-20.25-9.3-30.73-12.87-23.44-8-53.17-9.38-81.57-3.78-15.62,3.08-30.48,10-44.84,16.66-5.8,2.69-11.79,5.47-17.66,7.92-14.16,5.89-25.79,7.85-35,7.85-17.82,0-26.6-7.33-27.15-7.8a4,4,0,1,0-5.33,6c.45.4,11.23,9.81,32.56,9.82h0c11.76,0,24.54-2.85,38-8.45,6-2.5,12.08-5.32,17.94-8,14-6.48,28.36-13.18,43-16.07A172,172,0,0,1,250.86,51.83Z" style="fill:#263238"></path></g><g id="freepik--Floor--inject-2"><path d="M445.05,398.21H54v13.7H54c0,.37-.06.75-.06,1.13a22.17,22.17,0,0,0,43.87,4.85,22.11,22.11,0,0,0,43.33,0,22.11,22.11,0,0,0,43.33,0,22.12,22.12,0,0,0,43.34,0,22.11,22.11,0,0,0,43.33,0,22.12,22.12,0,0,0,43.34,0,22.11,22.11,0,0,0,43.33,0,22.11,22.11,0,0,0,43.33,0A22.17,22.17,0,0,0,445.05,413c0-.38,0-.76-.06-1.13h.06Z" style="fill:#BA68C8"></path><path d="M422.85,436.07a22.88,22.88,0,0,1-21.67-16.2,22.59,22.59,0,0,1-43.33,0,22.59,22.59,0,0,1-43.33,0,22.59,22.59,0,0,1-43.34,0,22.59,22.59,0,0,1-43.33,0,22.59,22.59,0,0,1-43.34,0,22.59,22.59,0,0,1-43.33,0,22.59,22.59,0,0,1-43.33,0A22.66,22.66,0,0,1,53.48,413c0-.32,0-.63.05-1a.41.41,0,0,1-.05-.18v-13.7a.5.5,0,0,1,.5-.5H445.05a.5.5,0,0,1,.5.5v13.7a.65.65,0,0,1,0,.2c0,.31,0,.61,0,.93A22.89,22.89,0,0,1,422.85,436.07Zm-21.67-18.68a.49.49,0,0,1,.49.39A21.66,21.66,0,0,0,444.55,413c0-.32,0-.63-.05-.94v-.16a.58.58,0,0,1,.06-.26v-13H54.48v13a.49.49,0,0,1,.06.23v.17c0,.31-.05.62-.05.93a21.66,21.66,0,0,0,42.88,4.74.5.5,0,0,1,1,0,21.62,21.62,0,0,0,42.36,0,.49.49,0,0,1,.49-.39.5.5,0,0,1,.49.39,21.62,21.62,0,0,0,42.36,0,.48.48,0,0,1,.48-.39.49.49,0,0,1,.49.39,21.62,21.62,0,0,0,42.36,0,.49.49,0,0,1,.49-.39.5.5,0,0,1,.49.39,21.61,21.61,0,0,0,42.35,0,.5.5,0,0,1,.49-.39.49.49,0,0,1,.49.39,21.62,21.62,0,0,0,42.36,0,.5.5,0,0,1,1,0,21.62,21.62,0,0,0,42.36,0,.5.5,0,0,1,1,0,21.62,21.62,0,0,0,42.36,0A.48.48,0,0,1,401.18,417.39Z" style="fill:#263238"></path><path d="M400.81,398.21H357.55v19.68l.14.6c.05-.2.12-.4.16-.6a22.1,22.1,0,0,0,43,1.45Z" style="fill:#fff"></path><path d="M379.52,436.07A22.89,22.89,0,0,1,357.6,419a.49.49,0,0,1-.39-.38l-.15-.61a.45.45,0,0,1,0-.11V398.21a.5.5,0,0,1,.5-.5H400.8a.5.5,0,0,1,.5.5v21.13a.57.57,0,0,1,0,.13A22.85,22.85,0,0,1,379.52,436.07Zm-21.47-18.64a.52.52,0,0,1,.29.35,21.59,21.59,0,0,0,42,1.49V398.71H358.05Z" style="fill:#263238"></path><path d="M314.24,398.21H271v19.68l.1.4c0-.14.07-.27.1-.4A22.1,22.1,0,0,0,314.24,419Z" style="fill:#fff"></path><path d="M292.85,436.07a22.89,22.89,0,0,1-22-17.32.53.53,0,0,1-.28-.34l-.1-.41a.45.45,0,0,1,0-.11V398.21a.5.5,0,0,1,.5-.5h43.26a.5.5,0,0,1,.5.5V419a.69.69,0,0,1,0,.13A22.77,22.77,0,0,1,292.85,436.07Zm-21.37-18.59a.56.56,0,0,1,.19.3,21.6,21.6,0,0,0,42.07,1.1V398.71H271.48Z" style="fill:#263238"></path><path d="M119.51,435.57a22.27,22.27,0,0,0,21.6-17.4v-20H97.85v19.68A22.26,22.26,0,0,0,119.51,435.57Z" style="fill:#fff"></path><path d="M119.51,436.07A22.88,22.88,0,0,1,97.36,418a.34.34,0,0,1,0-.1V398.21a.5.5,0,0,1,.5-.5h43.26a.5.5,0,0,1,.5.5v20a.43.43,0,0,1,0,.11A22.65,22.65,0,0,1,119.51,436.07ZM98.35,417.83a21.61,21.61,0,0,0,42.26.28v-19.4H98.35Z" style="fill:#263238"></path><path d="M227.67,398.21H184.41v19.68l.05.2a1.94,1.94,0,0,0,0-.2,22.1,22.1,0,0,0,43.16.67Z" style="fill:#fff"></path><path d="M206.18,436.07a22.89,22.89,0,0,1-22.05-17.63.45.45,0,0,1-.16-.24l0-.2a.52.52,0,0,1,0-.11V398.21a.5.5,0,0,1,.5-.5h43.26a.5.5,0,0,1,.5.5v20.35a.49.49,0,0,1,0,.12A22.72,22.72,0,0,1,206.18,436.07ZM184.91,417.6a.31.31,0,0,1,.09.18,21.6,21.6,0,0,0,42.17.72V398.71H184.91Z" style="fill:#263238"></path></g></svg>
