<svg xmlns="http://www.w3.org/2000/svg" viewBox="0 0 500 500"><g id="freepik--background-simple--inject-1"><path d="M456.46,150.33l-2.73-4.43C431.14,109.14,390,87.31,347,90.62a111.7,111.7,0,0,0-14.64,2.09c-38.66,8.17-72.29,37-86.24,74-8.2,21.75-10.49,46.78-26,64-20.25,22.46-54.64,23.17-84.87,22.24s-64.63-.14-84.79,22.41c-12.62,14.12-20.92,44.11-19.9,63,2.69,50.07,26.35,86.63,71.29,108.89s113.82,22.56,163,12.77c68.9-13.72,134.42-51.38,173.8-109.55S488,213.12,456.46,150.33Z" style="fill:#ebebeb"></path></g><g id="freepik--Character--inject-1"><path d="M410.58,309.75a8.69,8.69,0,0,0,1.6-6.36c-1-7-3.21-22.37-4-27.08-1-6.18-8.94-6.63-8.94-6.63l-13.68,17.87a5.12,5.12,0,0,1-7.54.64l-1.25-2.67,3.31-4.74c7,1.33,7.74-7,7.74-7L377,273.43l-8.43,9.12-1.62,34.85h0L320.7,370.07s-43.79-70.34-44.93-71.82L249.6,298l-4.24,61.27,31.26,40.25c9.26,13.33,24.47,26.67,40.69,27.4h0c20,.89,29.3-9.79,41.18-28.72l41.42-73-12.82-3.1,12.35,2.85Z" style="fill:#ffbe9d"></path><path d="M320.43,399.15c-.13,0-.5-1.58-.81-4.21a74.39,74.39,0,0,1-.41-10.34c.12-4.05.46-7.68.77-10.31s.57-4.23.72-4.22.13,1.65,0,4.28-.34,6.27-.46,10.27C320,392.64,320.74,399.11,320.43,399.15Z" style="fill:#eb996e"></path><path d="M121.68,203.47c-2.77,7.86-9.33,20.28-16.48,26.67a43,43,0,0,0-13.6,23.43c-1.16,5.15-.34,10.62-1.79,15.7-2.6,9.1-12,15.42-13.28,24.8-1.18,8.71,12.33,10.64,12.64,19.41.59,16.51,9.87,15.44,17.19,13.68,5.16-1.24,8.53-6.06,11.21-10.63a175.83,175.83,0,0,0,23.64-78.16" style="fill:#263238"></path><path d="M200.55,95.32c11.3-3.46,25.25-4.5,34.87,2.89,8.62,6.62,12.45,20.91,15.8,31.26,2.48,7.67,5,15.42,5.85,23.44.76,6.93.3,13.93.14,20.9-.31,13.57.76,27.94,8.41,39.16,4.45,6.53,11,11.73,13.93,19.05s10.37,60.76-7.33,60.76l-66.49-41.63Z" style="fill:#263238"></path><path d="M155,247.82a10.91,10.91,0,0,0-2.55.23c-6.57,1.39-36.32,8.11-42.75,17.12-7.25,10.14-13.38,51.7-9.51,63.3,3.25,9.76,25.73,92.48,32.77,118.43a10.7,10.7,0,0,0,10.14,7.89L266.19,457a10.71,10.71,0,0,0,10.88-10c1.63-24.76,5.51-87.2,4-101.8-1.06-10.24-18.85-51-29-73.58-4.28-9.55-11.34-18-21.52-20.38h0c-2.19-.52-15.34-1.61-17.58-1.68Z" style="fill:#92E3A9"></path><g style="opacity:0.30000000000000004"><path d="M108,343.33a242,242,0,0,0,19.7,43.59c6.54,11.32,14.17,22.3,24.54,30.26s23.88,12.6,36.69,10a36.2,36.2,0,0,0,28.34-42.56c-1.1-5.51-3.94-11.19-9.12-13.37-6.1-2.56-12.92.52-19.21,2.58a62.29,62.29,0,0,1-49.38-5C128,362.29,118.88,352.15,110,342.2"></path></g><path d="M230.58,251.26s34.59,3.71,42.87,22.38,28.35,50.87,28.35,50.87l-39.07,13.95Z" style="fill:#92E3A9"></path><path d="M101.42,346.29s21.81-13.39,39.5-21c17.32-7.43,23.62-11.41,23.62-11.41l-17.23-41.05c-6-16-25.09-23.24-39.81-14.48-.35.2-.68.41-1,.62-8.1,5.31-16.92,22.41-14.19,39.7C94,309.57,101.42,346.29,101.42,346.29Z" style="fill:#92E3A9"></path><path d="M254.36,292.73a4.78,4.78,0,0,1,.54.63l1.47,1.87c1.27,1.64,3.08,4,5.23,7,4.28,6,10.08,14.55,14.2,25.11a78.81,78.81,0,0,1,4.38,15.31c.12.6.23,1.19.34,1.78s.16,1.18.23,1.75c.15,1.15.3,2.27.44,3.35.16,2.17.3,4.19.4,6s0,3.52,0,5-.12,2.73-.17,3.76-.11,1.79-.15,2.38a7.6,7.6,0,0,1-.08.82,4,4,0,0,1,0-.83c0-.59,0-1.38.05-2.38s.11-2.29.08-3.76-.07-3.14-.11-5-.28-3.86-.46-6c-.15-1.07-.3-2.18-.46-3.32l-.24-1.74c-.12-.59-.23-1.18-.35-1.77a80.91,80.91,0,0,0-4.39-15.21c-4.1-10.49-9.83-19-14-25.09-2.1-3-3.87-5.44-5.09-7.12l-1.39-1.93A6.34,6.34,0,0,1,254.36,292.73Z" style="fill:#263238"></path><path d="M166.56,455s-.28-.08-.76-.33a18.53,18.53,0,0,1-2-1.16,30.07,30.07,0,0,1-10-11.06,19.68,19.68,0,0,1-.95-2.07,2.72,2.72,0,0,1-.26-.8c.08,0,.58,1,1.53,2.69a37.48,37.48,0,0,0,4.37,6,36.39,36.39,0,0,0,5.51,4.95C165.59,454.3,166.61,454.9,166.56,455Z" style="fill:#263238"></path><path d="M174.54,455.52a10.72,10.72,0,0,1-1.59-2.11,34.12,34.12,0,0,1-4.75-11.81,10.25,10.25,0,0,1-.31-2.63,19.93,19.93,0,0,1,.67,2.55,48.41,48.41,0,0,0,1.95,6,47,47,0,0,0,2.75,5.68A16.63,16.63,0,0,1,174.54,455.52Z" style="fill:#263238"></path><path d="M272.78,321.83c0,.15-14.61,2-32.66,4.22s-32.72,3.84-32.73,3.69,14.6-2,32.66-4.21S272.76,321.69,272.78,321.83Z" style="fill:#fafafa"></path><path d="M271.63,279.36c0,.14-16.39,3.65-36.67,7.83s-36.75,7.46-36.78,7.32,16.39-3.65,36.67-7.83S271.6,279.22,271.63,279.36Z" style="fill:#fafafa"></path><path d="M287.61,303.66s-.19.24-.59.6a19.93,19.93,0,0,1-1.76,1.43,33.61,33.61,0,0,1-13.68,5.94,20.71,20.71,0,0,1-2.25.31,2.71,2.71,0,0,1-.84,0,29.83,29.83,0,0,1,3-.69,41,41,0,0,0,7-2.32,41.45,41.45,0,0,0,6.51-3.56C286.63,304.33,287.55,303.6,287.61,303.66Z" style="fill:#fafafa"></path><path d="M247.71,257.71c0,.14-7.1.74-15.88,1.34s-15.91,1-15.92.81,7.1-.74,15.88-1.33S247.7,257.56,247.71,257.71Z" style="fill:#fafafa"></path><path d="M148.56,293.65c.06.13-11.27,5-25.3,10.93S97.82,315.16,97.76,315s11.27-5,25.3-10.93S148.5,293.52,148.56,293.65Z" style="fill:#fafafa"></path><path d="M141.29,270.61a2.52,2.52,0,0,1-.5.2l-1.44.5L134,273.08c-4.49,1.5-10.67,3.62-17.45,6.1s-12.85,4.89-17.24,6.65l-5.2,2.1-1.42.55a1.93,1.93,0,0,1-.51.16,2.7,2.7,0,0,1,.47-.25l1.38-.65c1.2-.55,3-1.32,5.14-2.25,4.35-1.85,10.42-4.3,17.2-6.8s13-4.55,17.51-6c2.26-.7,4.1-1.25,5.37-1.61l1.47-.41A2,2,0,0,1,141.29,270.61Z" style="fill:#fafafa"></path><path d="M122.89,375.58a29.32,29.32,0,0,1-5.52,0,30.19,30.19,0,0,1-5.49-.56,29.36,29.36,0,0,1,5.52,0A30.19,30.19,0,0,1,122.89,375.58Z" style="fill:#fafafa"></path><path d="M151.62,405.29a7.41,7.41,0,0,1-1.4-.05c-.9-.05-2.2-.18-3.8-.36-3.2-.37-7.61-1-12.42-2s-9.11-2.21-12.18-3.17c-1.54-.48-2.78-.89-3.62-1.2a7.73,7.73,0,0,1-1.3-.53,6.35,6.35,0,0,1,1.36.33l3.66,1.05c3.1.87,7.39,2,12.19,3s9.18,1.73,12.36,2.18l3.77.53A7.25,7.25,0,0,1,151.62,405.29Z" style="fill:#fafafa"></path><path d="M279.54,404.78a3.87,3.87,0,0,1-.72.1l-2.06.2c-1.79.16-4.38.35-7.59.55-6.42.4-15.29.78-25.1.84s-18.7-.22-25.12-.54c-3.21-.17-5.81-.33-7.6-.47l-2.06-.17a4.71,4.71,0,0,1-.72-.09,3.69,3.69,0,0,1,.73,0l2.06.07,7.61.3c6.42.23,15.29.44,25.09.39s18.67-.38,25.09-.69l7.6-.39,2.07-.09A3.3,3.3,0,0,1,279.54,404.78Z" style="fill:#fafafa"></path><path d="M280,362.45a3.1,3.1,0,0,1-.64.23l-1.87.54c-1.62.47-4,1.08-6.92,1.77a209.26,209.26,0,0,1-46.78,5.52c-3,0-5.46,0-7.15-.11l-1.94-.09a3.23,3.23,0,0,1-.67-.07,2.94,2.94,0,0,1,.68,0h1.94c1.68,0,4.12,0,7.14-.05,6-.11,14.35-.52,23.49-1.6s17.32-2.62,23.2-3.92c2.95-.64,5.32-1.2,7-1.61l1.89-.44A4.3,4.3,0,0,1,280,362.45Z" style="fill:#fafafa"></path><path d="M276.42,438.14l-.38,0-1.13.06-4.33.18c-3.76.16-9.21.32-15.94.45-13.46.26-32.07.27-52.6-.54S163,436,149.55,434.69c-6.7-.67-12.11-1.26-15.85-1.72l-4.3-.53-1.12-.15-.38-.06a1.64,1.64,0,0,1,.39,0l1.12.1,4.31.43c3.74.4,9.17.93,15.87,1.55,13.4,1.24,31.94,2.66,52.47,3.49s39.12.86,52.58.69c6.73-.08,12.17-.18,15.94-.28l4.33-.09h1.51Z" style="fill:#fafafa"></path><path d="M243,142.8c-.77-17.12-24.31-36.74-41.38-35.25l-50,11.76,0,9.2-.48,125.27a31.85,31.85,0,0,0,32.63,32h0a31.87,31.87,0,0,0,31.09-32c0-12.4-.14-22.92-.14-22.92s21.91-3.24,26.94-31.66C244.18,185.07,243.88,161.82,243,142.8Z" style="fill:#ffbe9d"></path><path d="M236.76,161a3.66,3.66,0,0,1-3.59,3.63,3.5,3.5,0,0,1-3.71-3.36,3.66,3.66,0,0,1,3.59-3.63A3.48,3.48,0,0,1,236.76,161Z" style="fill:#263238"></path><path d="M237.77,154.8c-.46.47-3.2-1.63-7.13-1.69s-6.85,1.86-7.27,1.37c-.21-.22.27-1.07,1.54-2a10.07,10.07,0,0,1,5.83-1.69,9.71,9.71,0,0,1,5.67,1.94C237.6,153.72,238,154.59,237.77,154.8Z" style="fill:#263238"></path><path d="M198.34,161a3.67,3.67,0,0,1-3.59,3.63,3.49,3.49,0,0,1-3.71-3.36,3.64,3.64,0,0,1,3.58-3.63A3.5,3.5,0,0,1,198.34,161Z" style="fill:#263238"></path><path d="M199.09,154.85c-.46.47-3.2-1.63-7.13-1.69s-6.85,1.86-7.27,1.37c-.2-.22.27-1.07,1.55-2a10,10,0,0,1,5.83-1.68,9.68,9.68,0,0,1,5.66,1.94C198.92,153.77,199.32,154.64,199.09,154.85Z" style="fill:#263238"></path><path d="M212.85,184.27c0-.22,2.44-.6,6.41-1,1-.08,2-.27,2.14-.95s-.15-1.81-.62-3l-2.83-7.7c-3.93-11-6.76-20-6.32-20.12s4,8.6,7.92,19.57q1.42,4.05,2.71,7.74c.36,1.15,1,2.46.45,3.95a2.5,2.5,0,0,1-1.68,1.44,6.52,6.52,0,0,1-1.71.21C215.33,184.52,212.86,184.5,212.85,184.27Z" style="fill:#263238"></path><path d="M214.74,230.87a72.58,72.58,0,0,1-38-10.86s9.51,19.74,38.09,17.58Z" style="fill:#eb996e"></path><path d="M199.63,144.6c-.4,1.06-4.32.49-8.95,1s-8.37,1.69-9,.72c-.27-.47.4-1.46,1.92-2.48a15.65,15.65,0,0,1,13.65-1.29C199,143.24,199.8,144.09,199.63,144.6Z" style="fill:#263238"></path><path d="M237.84,138.78c-.75.95-4,.22-7.81.41s-7,1-7.82.15c-.36-.43.1-1.35,1.46-2.29a12.29,12.29,0,0,1,6.26-1.85,12.14,12.14,0,0,1,6.34,1.4C237.67,137.44,238.17,138.33,237.84,138.78Z" style="fill:#263238"></path><path d="M202.18,104c5.94,8.42,12.2,17.12,21.25,22.06,3,1.62,6.18,2.79,9.17,4.38s8.46,5,10.11,7.94,1.34,11,1.34,11c1.62-11.42-1.41-26.54-9.4-34.86a38.78,38.78,0,0,0-31.39-11.52" style="fill:#263238"></path><path d="M252.84,131.14c-.24.1-.7-3.53-4.37-7.65a29.47,29.47,0,0,0-7.49-5.93,117.76,117.76,0,0,0-10.73-5.11A62.51,62.51,0,0,1,212,100.54a50.63,50.63,0,0,1-4.52-4.84,8.23,8.23,0,0,1-1.4-2c.17-.14,2.36,2.52,6.52,6.16a69.05,69.05,0,0,0,18.18,11.42,101.64,101.64,0,0,1,10.8,5.26,28.67,28.67,0,0,1,7.58,6.36,17.66,17.66,0,0,1,3.26,5.83A6.22,6.22,0,0,1,252.84,131.14Z" style="fill:#455a64"></path><path d="M214.28,195.07a16.75,16.75,0,0,1-2.09,4.11,5.47,5.47,0,0,1-3.88,2.25,4.89,4.89,0,0,1-4.15-2.26,7.81,7.81,0,0,1-1.15-4.71c.07-1.48.75-3.26,2.22-3.43a3.64,3.64,0,0,1,1.79.4l7.76,3.14" style="fill:#eb996e"></path><path d="M211.18,201.45c0-.24-1.74.45-4.14-.51a5.91,5.91,0,0,1-3.12-2.84,6.26,6.26,0,0,1-.11-5.08,5.79,5.79,0,0,1,.68-1.16c.31-.32.25-.3.59-.25s.82.32,1.24.48l1.27.52c1.66.67,3.17,1.26,4.44,1.74,2.54,1,4.15,1.44,4.22,1.27s-1.39-1-3.84-2.17c-1.22-.59-2.68-1.28-4.31-2l-1.26-.56a14,14,0,0,0-1.42-.59,1.83,1.83,0,0,0-1.15,0,2.06,2.06,0,0,0-.85.67,6.66,6.66,0,0,0-.88,1.47,7.28,7.28,0,0,0,.24,6.21,6.66,6.66,0,0,0,3.94,3.19,6.31,6.31,0,0,0,3.36.13C210.85,201.79,211.21,201.53,211.18,201.45Z" style="fill:#263238"></path><path d="M193,246.12c-3.69-8.94-16.26-13.52-16.32-23.2,0-5.36,4.07-9.88,5.09-15.14,2.79-14.42-11.39-25-14.31-39.38-2.52-12.42,7.07-20.7,15.75-29.93s29-30.51,21.26-40.56c-9.06-11.46-43.74-2-54.7,7.7s-15.3,24.79-17.13,39.28-1.71,29.38-6.09,43.32c-5,15.95-10,32-18.26,46.53-13,23-6.89,25.16-6.89,25.16,14.61,1.56,25.4,5.9,29.67,14.92.73,1.55,1.8,5.09,2.45,6.67,9.78,23.6,26,40.65,41,44.3s15.22-4.3,14.6-19.71c-.3-7.52-4.64-14.51-4.59-22C184.63,270.78,198.09,258.38,193,246.12Z" style="fill:#263238"></path><path d="M165.79,327.26a14.07,14.07,0,0,1-2-1.71,26.58,26.58,0,0,1-4.54-6,27.6,27.6,0,0,1,6-34c2.41-2.13,5.24-3.94,7.35-6.5a9.92,9.92,0,0,0,2.17-4.42,12,12,0,0,0-.25-5.11c-.9-3.45-2.79-6.71-4.36-10.28a35.46,35.46,0,0,1-1.38-24.09c1.13-4.16,3.59-7.86,5.2-11.74a13.77,13.77,0,0,0,1.15-6.11,15.54,15.54,0,0,0-1.81-6.06c-2-3.86-4.82-7.3-7.3-10.85a102.1,102.1,0,0,1-7-10.79,37.16,37.16,0,0,1-4.28-11.74,27.12,27.12,0,0,1,.68-12c2.17-7.61,6.71-13.75,11.37-18.79s9.59-9.21,13.76-13.26A70.77,70.77,0,0,0,190.77,122a39.32,39.32,0,0,0,5.08-10.59,31.6,31.6,0,0,0,1.19-10,13.66,13.66,0,0,1,.24,2.61,26,26,0,0,1-1,7.48,38.66,38.66,0,0,1-5,10.85,69.84,69.84,0,0,1-10.21,12.06c-4.15,4.12-9,8.31-13.61,13.33s-9,11.06-11,18.39a26.21,26.21,0,0,0-.61,11.48A36,36,0,0,0,160.09,189a100.45,100.45,0,0,0,7,10.64c2.48,3.55,5.28,7,7.41,11a17,17,0,0,1,1.95,6.56,15.25,15.25,0,0,1-1.25,6.65c-1.72,4.11-4.09,7.63-5.18,11.63a34.26,34.26,0,0,0,1.27,23.27c1.5,3.49,3.42,6.81,4.36,10.47a12.88,12.88,0,0,1,.23,5.59,11.17,11.17,0,0,1-2.41,4.87c-2.3,2.73-5.18,4.51-7.53,6.58a26.62,26.62,0,0,0-5.7,6.91,27.14,27.14,0,0,0-3.62,14.87,27.84,27.84,0,0,0,3.11,11.24C162.79,325,166,327.12,165.79,327.26Z" style="fill:#455a64"></path><path d="M144.31,166s-8.52-66.69,31.48-73.57l6.24.6s-31.67,13-27.41,68.25" style="fill:#92E3A9"></path><ellipse cx="142.94" cy="168.31" rx="22.57" ry="24.17" style="fill:#92E3A9"></ellipse><path d="M144.72,144.14a2.05,2.05,0,0,1,.72.16,15.43,15.43,0,0,1,2,.73,19.11,19.11,0,0,1,6.3,4.41,22.81,22.81,0,0,1,5.3,10.11,26.17,26.17,0,0,1,0,13.95,26.48,26.48,0,0,1-7.09,12,21,21,0,0,1-10,5.52,14.58,14.58,0,0,1-7.69-.21,9.43,9.43,0,0,1-1.92-.84c-.42-.24-.62-.39-.6-.42s.92.42,2.64.86a15,15,0,0,0,7.4-.13,20.77,20.77,0,0,0,9.47-5.49A26.05,26.05,0,0,0,158,173.22a25.7,25.7,0,0,0,0-13.43,22.71,22.71,0,0,0-4.9-9.84,20.5,20.5,0,0,0-5.93-4.55A25.06,25.06,0,0,1,144.72,144.14Z" style="fill:#263238"></path><path d="M162.52,180.84c-.3,0-.39-1.79-1.87-3.05s-3.28-1.07-3.31-1.36.38-.4,1.16-.45a4.16,4.16,0,0,1,4.27,3.64C162.85,180.4,162.65,180.85,162.52,180.84Z" style="fill:#263238"></path><path d="M161.58,173.41c-.1.28-.8.29-1.6.27s-1.5-.08-1.59-.37.63-.73,1.62-.7S161.68,173.14,161.58,173.41Z" style="fill:#263238"></path><path d="M161.57,153.44c-.09.29-1.2.18-2.41.68s-2,1.29-2.23,1.13.24-1.52,1.84-2.13S161.71,153.18,161.57,153.44Z" style="fill:#263238"></path><path d="M157,139.3a2,2,0,0,1,.47-.35l1.38-.89c.6-.38,1.34-.85,2.17-1.43s1.81-1.21,2.83-2c2.08-1.48,4.47-3.36,7-5.56a105,105,0,0,0,7.87-7.65,106.37,106.37,0,0,0,7-8.48c2-2.74,3.66-5.27,5-7.47.68-1.08,1.22-2.1,1.73-3s.92-1.66,1.24-2.29l.78-1.45a2.25,2.25,0,0,1,.31-.49,3.49,3.49,0,0,1-.21.53l-.7,1.5c-.3.65-.68,1.44-1.17,2.33s-1,1.94-1.66,3c-1.27,2.22-2.93,4.8-4.89,7.56a102.7,102.7,0,0,1-7,8.56,99.9,99.9,0,0,1-8,7.65A86,86,0,0,1,164,135c-1,.76-2,1.36-2.88,1.92s-1.6,1-2.23,1.36l-1.43.82A2.62,2.62,0,0,1,157,139.3Z" style="fill:#455a64"></path><path d="M256.22,147.35c-.08,0,0-1.1-.41-3a24.34,24.34,0,0,0-3.17-7.64,32.28,32.28,0,0,0-8.34-9,48.62,48.62,0,0,0-6.3-3.64c-2.26-1.15-4.63-2.27-7.06-3.45a83.18,83.18,0,0,1-13.23-7.51,35.52,35.52,0,0,1-8.66-8.9,23.16,23.16,0,0,1-3.35-7.66,17.44,17.44,0,0,1-.35-2.26,3.62,3.62,0,0,1,0-.79,7.54,7.54,0,0,1,.14.78c.06.51.22,1.26.44,2.22a24,24,0,0,0,3.47,7.51,35.75,35.75,0,0,0,8.63,8.71,85.55,85.55,0,0,0,13.18,7.43c2.42,1.17,4.8,2.3,7.06,3.46a48.57,48.57,0,0,1,6.35,3.71,32,32,0,0,1,8.37,9.16,23.52,23.52,0,0,1,3.06,7.79,14.86,14.86,0,0,1,.22,2.28A5.93,5.93,0,0,1,256.22,147.35Z" style="fill:#455a64"></path><path d="M143.05,454.79s-7.12,9.95-8.89,20H281.41l-7.74-20.68Z" style="fill:#263238"></path><path d="M216.63,372.09,213,352.26,179.45,242.37l-.9-18.53-9.47-28.27s-10.57-30.15-13.48-30.9-4.51-1.31-4.6.76,6.9,29,6.9,29l-10.64-16.33s1.85-20.2-.13-21.42-5.35-.56-6.66,5.83-2,18.7-2,18.7l4.41,10.48-6.38-9.82.26-15.12.84-6.39-3.39-.28L129,166.22l-.83,17.19,6.13,14.08-9-9.19-.67-7.14,1.22-8.55s-.58-3.1-2.74-2.07-5.81,7.44-5.81,7.44l-1.1,14,14.67,17.17.18,1.39c.76,1.79,11.5,21.8,11.5,21.8s.27.23.45.37l11.34,86.87-1-2.06-46.86,25.13c1.78,2,11.48,17.59,21.7,37.37,6.07,11.75,16.34,21.28,26.83,29.34a39.39,39.39,0,0,0,38.64,5.31h0c.43-.17.85-.35,1.27-.54C211,407,219.8,389.4,216.63,372.09Z" style="fill:#ffbe9d"></path><path d="M162.73,382.53a4.47,4.47,0,0,1-.14-.73c-.07-.54-.17-1.24-.29-2.11-.25-1.89-.59-4.53-1-7.77-.85-6.61-2-15.65-3.27-25.64s-2.49-19.07-3.4-25.62c-.45-3.24-.81-5.87-1.08-7.76-.11-.88-.21-1.58-.28-2.11a3.5,3.5,0,0,1-.06-.75,4.63,4.63,0,0,1,.17.73c.09.53.22,1.23.37,2.1.33,1.82.74,4.46,1.25,7.73,1,6.54,2.26,15.6,3.55,25.61s2.37,19.09,3.11,25.66c.36,3.25.64,5.9.85,7.79.08.88.15,1.59.2,2.12A3.54,3.54,0,0,1,162.73,382.53Z" style="fill:#eb996e"></path><path d="M421.18,253.85s0-.17,0-.5v-1.47c0-1.31,0-3.21.07-5.63,0-4.9.11-12-.3-20.72A208.4,208.4,0,0,0,417.45,195a128.55,128.55,0,0,0-4.66-17.5,83.93,83.93,0,0,0-8.3-17.52,53.23,53.23,0,0,0-12.95-14.31,48.17,48.17,0,0,0-16.14-7.87,63.23,63.23,0,0,0-16.15-2.41,48.75,48.75,0,0,0-14.1,1.76,45.86,45.86,0,0,0-18,9.8,41.08,41.08,0,0,0-3.94,4c-.42.49-.73.87-.93,1.13l-.31.39a4.54,4.54,0,0,1,.27-.42c.18-.27.48-.66.88-1.17a40.68,40.68,0,0,1,3.89-4.09,45.44,45.44,0,0,1,18-10,51.55,51.55,0,0,1,6.75-1.41,54.51,54.51,0,0,1,7.46-.44,63.68,63.68,0,0,1,16.27,2.39,48.39,48.39,0,0,1,16.32,7.93,53.38,53.38,0,0,1,13.08,14.43,84.16,84.16,0,0,1,8.34,17.63,129.06,129.06,0,0,1,4.65,17.57,205.7,205.7,0,0,1,3.39,30.57c.36,8.75.24,15.84.13,20.74-.07,2.43-.12,4.32-.16,5.63q0,.94-.06,1.47C421.2,253.68,421.18,253.85,421.18,253.85Z" style="fill:#263238"></path><ellipse cx="305.19" cy="186.75" rx="42.25" ry="21.6" transform="translate(39.54 426.42) rotate(-73.52)" style="fill:#455a64"></ellipse><path d="M303.87,217.17c-.14,0-.72-9.84-1.3-22s-.92-22-.77-22,.72,9.84,1.29,22S304,217.16,303.87,217.17Z" style="fill:#263238"></path><path d="M310.14,206.81a1.39,1.39,0,0,1-.08-.47c0-.37-.08-.82-.13-1.35-.09-1.18-.21-2.88-.32-5-.24-4.21-.47-10-.55-16.45s0-12.25.15-16.46c.06-2.11.13-3.81.2-5q.06-.8.09-1.35a1.62,1.62,0,0,1,.07-.47,1.57,1.57,0,0,1,0,.47c0,.37,0,.82,0,1.36,0,1.26,0,2.94-.05,5,0,4.21-.06,10,0,16.45s.25,12.23.39,16.44c.07,2,.13,3.72.17,5,0,.54,0,1,0,1.36A2.58,2.58,0,0,1,310.14,206.81Z" style="fill:#263238"></path><path d="M314.63,194.67c-.14,0-.21-8-.14-17.95s.24-17.95.38-17.95.21,8,.14,18S314.77,194.67,314.63,194.67Z" style="fill:#263238"></path><path d="M322.84,149.93a10.51,10.51,0,0,0-8.09-2.37,15.62,15.62,0,0,0-5.86,1.85,34,34,0,0,0-11.67,11,84,84,0,0,0-9,17.66,65.33,65.33,0,0,0-3.86,19.4,60.91,60.91,0,0,0,1.15,16.13,29.58,29.58,0,0,0,4.14,10l1,1.36c.29.4.61.68.83.94l.52.57a.94.94,0,0,1,.17.21s-.07-.05-.2-.17l-.56-.54a9.83,9.83,0,0,1-.88-.91q-.48-.58-1.08-1.35a28.58,28.58,0,0,1-4.33-10.07,60,60,0,0,1-1.28-16.23,65.1,65.1,0,0,1,3.85-19.56,83.21,83.21,0,0,1,9.09-17.75,34.11,34.11,0,0,1,11.9-11,16,16,0,0,1,6-1.81,11.23,11.23,0,0,1,4.7.54,9.52,9.52,0,0,1,2.64,1.42c.27.21.46.39.59.51S322.85,149.92,322.84,149.93Z" style="fill:#263238"></path><path d="M386,263.37a3.91,3.91,0,0,1,.64,0,17.11,17.11,0,0,1,1.85.17,19.39,19.39,0,0,1,6.46,2.19,20.13,20.13,0,0,1,7.35,6.89c1.07,1.59,2.06,3.31,3.31,4.93a11.32,11.32,0,0,0,4.82,3.86,7.82,7.82,0,0,0,3.06.59,5.33,5.33,0,0,0,2.83-.9,7.48,7.48,0,0,0,2.74-4.9,40.78,40.78,0,0,0,.49-5.33c.07-1.68.1-3.25.11-4.69,0-2.86-.11-5.18-.19-6.78-.05-.76-.08-1.37-.11-1.85a2.74,2.74,0,0,1,0-.65,4.91,4.91,0,0,1,.11.64c.06.42.12,1,.2,1.84.15,1.6.31,3.92.35,6.8,0,1.44,0,3,0,4.71a39,39,0,0,1-.45,5.4,7.92,7.92,0,0,1-2.92,5.23,5.85,5.85,0,0,1-3.1,1,8.41,8.41,0,0,1-3.27-.62,11.71,11.71,0,0,1-5-4c-1.27-1.66-2.26-3.4-3.31-5a20.07,20.07,0,0,0-7.13-6.84,20.47,20.47,0,0,0-6.31-2.31C386.91,263.45,386,263.43,386,263.37Z" style="fill:#263238"></path><rect x="326.79" y="261.73" width="24.65" height="6.88" rx="3.26" style="fill:#263238"></rect><rect x="335.27" y="265.17" width="7.12" height="17.17" rx="3.37" style="fill:#263238"></rect><rect x="321.1" y="169.3" width="36.7" height="59.67" rx="13.32" style="fill:#92E3A9"></rect><path d="M357.44,197.93c.09.11-7.4,6.33-16.73,13.89s-17,13.61-17.07,13.5,7.4-6.34,16.74-13.9S357.35,197.81,357.44,197.93Z" style="fill:#263238"></path><path d="M355,173.36c.09.12-7.29,6.2-16.48,13.59s-16.72,13.29-16.81,13.18,7.29-6.2,16.48-13.59S354.88,173.25,355,173.36Z" style="fill:#263238"></path><path d="M344.42,169.35c.1.11-4.91,4.4-11.17,9.58s-11.41,9.3-11.5,9.19,4.91-4.41,11.17-9.59S344.33,169.24,344.42,169.35Z" style="fill:#263238"></path><path d="M358,185.9a2.12,2.12,0,0,1-.34.32l-1,.85-3.89,3.05-12.85,10-12.81,10.09-3.89,3-1.08.81a2.24,2.24,0,0,1-.39.26s.1-.13.33-.34l1-.89c.88-.76,2.18-1.84,3.79-3.17,3.21-2.66,7.7-6.29,12.71-10.22s9.61-7.42,13-9.91c1.67-1.25,3-2.24,4-2.92l1.11-.77C357.89,186,358,185.88,358,185.9Z" style="fill:#263238"></path><path d="M357.63,210.69a3.83,3.83,0,0,1-.74.73c-.49.45-1.22,1.09-2.14,1.86-1.83,1.54-4.4,3.61-7.3,5.82s-5.58,4.15-7.55,5.5c-1,.68-1.79,1.22-2.36,1.58a3.78,3.78,0,0,1-.9.51,4,4,0,0,1,.79-.68l2.25-1.71,7.45-5.61,7.39-5.7,2.24-1.72A4.06,4.06,0,0,1,357.63,210.69Z" style="fill:#263238"></path><path d="M333.39,226.38c-.13.06-3.07-5.46-6.56-12.34s-6.22-12.5-6.09-12.57,3.06,5.46,6.56,12.34S333.51,226.31,333.39,226.38Z" style="fill:#263238"></path><path d="M345.77,225.48c-.12.08-5.52-9-12-20.37S322,184.54,322.11,184.47s5.53,9.05,12.06,20.38S345.9,225.41,345.77,225.48Z" style="fill:#263238"></path><path d="M354.78,221.86c-.12.07-6.16-10.91-13.49-24.52s-13.16-24.7-13-24.77,6.16,10.91,13.49,24.52S354.91,221.79,354.78,221.86Z" style="fill:#263238"></path><path d="M357.45,201.29c-.12.07-4.2-6.7-9.12-15.12s-8.79-15.3-8.67-15.37,4.21,6.69,9.12,15.11S357.58,201.22,357.45,201.29Z" style="fill:#263238"></path><path d="M319.19,225.72h40a0,0,0,0,1,0,0v20.87A15.14,15.14,0,0,1,344,261.73h-9.71a15.14,15.14,0,0,1-15.14-15.14V225.72A0,0,0,0,1,319.19,225.72Z" style="fill:#92E3A9"></path><path d="M319.19,225.72h40a0,0,0,0,1,0,0v20.87A15.14,15.14,0,0,1,344,261.73h-9.71a15.14,15.14,0,0,1-15.14-15.14V225.72A0,0,0,0,1,319.19,225.72Z" style="fill:#92E3A9"></path><path d="M319.19,225.72h40a0,0,0,0,1,0,0v20.87A15.14,15.14,0,0,1,344,261.73h-9.71a15.14,15.14,0,0,1-15.14-15.14V225.72A0,0,0,0,1,319.19,225.72Z" style="opacity:0.4"></path><path d="M357.9,225.89c0,.15-8.54.26-19.07.26s-19.06-.11-19.06-.26,8.53-.26,19.06-.26S357.9,225.75,357.9,225.89Z" style="fill:#263238"></path><rect x="336.01" y="165.89" width="6.33" height="62.09" rx="3" style="fill:#92E3A9"></rect><rect x="336.01" y="165.89" width="6.33" height="62.09" rx="3" style="opacity:0.4"></rect><rect x="336.01" y="165.89" width="6.33" height="62.09" rx="3" style="fill:#92E3A9"></rect><rect x="336.01" y="165.89" width="6.33" height="62.09" rx="3" style="opacity:0.4"></rect><path d="M357.9,225.89c0,.15-8.54.26-19.07.26s-19.06-.11-19.06-.26,8.53-.26,19.06-.26S357.9,225.75,357.9,225.89Z" style="fill:#263238"></path><path d="M384.54,237.72a7.84,7.84,0,0,0-2.68-.27,9.78,9.78,0,0,0-6.57,3.72,16.12,16.12,0,0,0-2.61,4.92,51.82,51.82,0,0,0-1.64,6.48c-1,4.71-1.94,10.1-2.74,16.1a221.55,221.55,0,0,0-1.57,42.43c.46,8,1.47,16.34,2.07,25s.76,17.82-1,27a30.61,30.61,0,0,1-5,12.75,15.12,15.12,0,0,1-5,4.58,10.56,10.56,0,0,1-6.53,1.17,11.83,11.83,0,0,1-5.89-2.84,16.15,16.15,0,0,1-3.89-5.09c-1.87-3.86-2.26-8.1-2.36-12.09.09-16,.34-30.45.47-42.57s.3-21.9.4-28.69c.05-3.38.1-6,.13-7.8,0-.88,0-1.56.05-2s0-.69,0-.69,0,.23,0,.69,0,1.15,0,2c0,1.8,0,4.43,0,7.8-.06,6.79-.13,16.59-.23,28.7s-.3,26.55-.36,42.55c.1,4,.5,8.14,2.32,11.88a15.77,15.77,0,0,0,3.78,4.93,11.24,11.24,0,0,0,5.63,2.71,10,10,0,0,0,6.22-1.12,14.54,14.54,0,0,0,4.79-4.42A30.33,30.33,0,0,0,367.31,363c1.72-9.07,1.56-18.15,1-26.82s-1.59-17.05-2-25.06a219.16,219.16,0,0,1,1.67-42.5c.83-6,1.82-11.4,2.83-16.11a49.63,49.63,0,0,1,1.69-6.51,16.36,16.36,0,0,1,2.69-5,9.84,9.84,0,0,1,6.71-3.69,7.32,7.32,0,0,1,2,.16Z" style="fill:#263238"></path><path d="M392.68,474.78h-12.6V227.17a6.3,6.3,0,0,1,6.3-6.3h0a6.3,6.3,0,0,1,6.3,6.3Z" style="fill:#263238"></path><path d="M389.41,228a3,3,0,1,1-3-3A3,3,0,0,1,389.41,228Z" style="fill:#455a64"></path><rect x="392.68" y="253.85" width="43.26" height="5.25" style="fill:#263238"></rect><path d="M305.38,231.73H382a0,0,0,0,1,0,0v5.58a0,0,0,0,1,0,0H305.38a2.65,2.65,0,0,1-2.65-2.65v-.29A2.65,2.65,0,0,1,305.38,231.73Z" style="fill:#263238"></path><path d="M408.24,296.17c.51-2.47-2-4.73-4.53-4.93s-4.9,1-7.11,2.26a54.09,54.09,0,0,0-10.31,6.83,8.25,8.25,0,0,0-2.44,3.22,3.45,3.45,0,0,0,.83,3.75c1.29,1,3.19.6,4.75.06a57.91,57.91,0,0,0,12-5.84" style="fill:#ffbe9d"></path><path d="M401.43,301.52c.11.15-2.28,2.08-6.7,4.28-1.1.55-2.33,1.11-3.68,1.65a11.88,11.88,0,0,1-4.69,1.18,3.52,3.52,0,0,1-2.69-1.33,4.14,4.14,0,0,1-.76-3c.27-2.16,1.84-3.66,3.24-4.88a48.85,48.85,0,0,1,8.87-5.87c2.78-1.52,5.59-3,8.29-2.88a5.52,5.52,0,0,1,4.94,3.3c.52,1.43,0,2.24,0,2.19s.07-.81-.53-1.94a5,5,0,0,0-4.42-2.46c-2.29,0-4.8,1.41-7.58,3a53.05,53.05,0,0,0-8.55,5.79c-1.37,1.16-2.58,2.46-2.75,3.89a2.21,2.21,0,0,0,2,2.72,11.49,11.49,0,0,0,4.15-1c1.33-.48,2.56-1,3.68-1.44C398.72,302.9,401.31,301.32,401.43,301.52Z" style="fill:#eb996e"></path><path d="M402.73,279.44c-5.55,2.57-9.24,4.76-14.8,7.33-1.81.84-3.74,1.78-4.7,3.53s-.24,4.5,1.73,4.81a4.81,4.81,0,0,0,2.08-.32l18.23-5.63" style="fill:#ffbe9d"></path><path d="M405.27,289.16c.06.18-2.54,1.16-6.79,2.61L391,294.23l-4.47,1.41a3.31,3.31,0,0,1-2.92-.39,3.85,3.85,0,0,1-1.43-2.64,4.43,4.43,0,0,1,.61-2.87,6.77,6.77,0,0,1,1.89-1.95,28,28,0,0,1,4.24-2.17l7.09-3.4c4.05-2,6.66-2.94,6.73-2.78s-2.37,1.47-6.29,3.64c-2,1.08-4.31,2.36-7,3.67a28.85,28.85,0,0,0-4,2.13,3.83,3.83,0,0,0-1.93,3.56,2.56,2.56,0,0,0,.88,1.72,2,2,0,0,0,1.79.18l4.43-1.31,7.57-2.19C402.52,289.64,405.22,289,405.27,289.16Z" style="fill:#eb996e"></path><path d="M399.93,269.79c-5.38,2.92-9,4.86-14.39,7.77-1.76.95-3.62,2-4.46,3.83s.05,4.51,2,4.68a4.63,4.63,0,0,0,2.06-.44l17.83-6.8" style="fill:#ffbe9d"></path><path d="M403,278.83c.06.18-2.46,1.33-6.59,3l-7.29,2.94-4.35,1.68a3.38,3.38,0,0,1-2.93-.13,3.77,3.77,0,0,1-1.66-2.5,4.4,4.4,0,0,1,.36-2.9,6.61,6.61,0,0,1,1.73-2.09,24.21,24.21,0,0,1,4.08-2.45l7-3.6c4-2,6.51-3.18,6.6-3s-2.26,1.63-6.14,3.86c-2.07,1.18-4.37,2.47-6.84,3.86a26.21,26.21,0,0,0-3.82,2.37,3.76,3.76,0,0,0-1.61,3.69c.62,3.59,4.54.75,7.15.05l7.39-2.66C400.28,279.48,402.93,278.66,403,278.83Z" style="fill:#eb996e"></path><path d="M409.18,305.3c-.9-2.86-3.78-2.92-6.73-2.39s-5.45,2.43-7.82,4.28l-7.07,5.49A10.19,10.19,0,0,0,385.2,315a3.56,3.56,0,0,0-.58,3.11,3.6,3.6,0,0,0,3.39,2.1,10.07,10.07,0,0,0,4.06-1.12c5.19-2.31,18.44-7.73,17.11-13.74" style="fill:#ffbe9d"></path><path d="M398.58,304.41c.09.12-1.89,1.76-5.14,4.32l-5.74,4.46a8.76,8.76,0,0,0-2.59,3.06,2.69,2.69,0,0,0-.25.93,1.46,1.46,0,0,0,.11.8,3.48,3.48,0,0,0,1.53,1.29,6,6,0,0,0,4.16.13,24.64,24.64,0,0,0,3.87-1.62,46,46,0,0,0,6.17-3.71c3.35-2.4,5.14-4.25,5.26-4.12a5.47,5.47,0,0,1-1.14,1.4,34.18,34.18,0,0,1-3.68,3.31,40.32,40.32,0,0,1-6.17,4,24,24,0,0,1-4,1.75,6.84,6.84,0,0,1-4.87-.16,4.53,4.53,0,0,1-2-1.7,2.38,2.38,0,0,1-.26-1.43,3.93,3.93,0,0,1,.34-1.24,9.56,9.56,0,0,1,2.93-3.41c2.2-1.65,4.21-3.08,5.89-4.29C396.37,305.73,398.5,304.3,398.58,304.41Z" style="fill:#eb996e"></path><path d="M410.69,301.14c-.07.14-.84-.14-2.11-.34a10.8,10.8,0,0,0-9.17,2.66c-1,.84-1.46,1.5-1.59,1.41s.17-.88,1.07-1.93a9.48,9.48,0,0,1,9.86-2.86C410.07,300.49,410.75,301,410.69,301.14Z" style="fill:#eb996e"></path></g><g id="freepik--Plant--inject-1"><path d="M429,391.91a15.51,15.51,0,0,1,8,9.1,27.35,27.35,0,0,1,1.07,12.33c-.91,8-5.45,16.08-10.35,22.47-6.73-5.88-8.28-16.13-8.74-21.39-.73-8.3,3-23.74,10-22.51" style="fill:#92E3A9"></path><path d="M435.57,449a13.27,13.27,0,0,1,4.28-12.58,17.54,17.54,0,0,1,12.95-4c2.15.16,4.46.79,5.69,2.55a5.65,5.65,0,0,1,.09,5.73,11.37,11.37,0,0,1-4.25,4.18c-5.83,3.67-12.15,6.14-18.76,4.16" style="fill:#92E3A9"></path><path d="M426.93,473.55a10.52,10.52,0,0,1,.24-1.64c.22-1.16.49-2.65.82-4.44.74-3.72,1.7-9,4.58-14.2a28.46,28.46,0,0,1,10.19-10.82,19.13,19.13,0,0,1,4.15-1.84,10.26,10.26,0,0,1,1.2-.3c.28-.06.42-.08.43-.06A30.36,30.36,0,0,0,443,442.8a29.31,29.31,0,0,0-9.89,10.76c-2.82,5.05-3.84,10.3-4.69,14-.4,1.86-.74,3.37-1,4.41A8.44,8.44,0,0,1,426.93,473.55Z" style="fill:#263238"></path><path d="M427.19,403.93a3,3,0,0,1,.08.71c0,.54.07,1.22.12,2.07.1,1.79.2,4.38.31,7.59.2,6.41.37,15.27.33,25.06s-.29,18.65-.55,25.06c-.13,3.2-.26,5.79-.37,7.58-.06.85-.1,1.53-.14,2.06a3.5,3.5,0,0,1-.09.72,3.35,3.35,0,0,1,0-.72c0-.54,0-1.22,0-2.07.05-1.86.11-4.44.19-7.59.15-6.41.33-15.26.37-25s-.05-18.63-.16-25c0-3.16-.09-5.73-.11-7.6,0-.84,0-1.53,0-2.06A3.68,3.68,0,0,1,427.19,403.93Z" style="fill:#263238"></path><path d="M423.92,453.89A31,31,0,0,0,407,431.22c-2.25-1.08-5.19-1.78-7-.11s-1.44,4.69-.53,7a26.43,26.43,0,0,0,24.31,16.42" style="fill:#92E3A9"></path><path d="M408.11,438.81a8.37,8.37,0,0,1,1.43.63,14,14,0,0,1,1.62.86,22,22,0,0,1,2,1.29,26.84,26.84,0,0,1,2.36,1.77,31.72,31.72,0,0,1,2.5,2.27,31.73,31.73,0,0,1,7.89,13.2,31.29,31.29,0,0,1,.8,3.29,26.67,26.67,0,0,1,.4,2.92,24.18,24.18,0,0,1,.11,2.43,14.66,14.66,0,0,1,0,1.83,8.29,8.29,0,0,1-.18,1.55c-.13,0,.1-2.23-.29-5.77a26.5,26.5,0,0,0-.47-2.86,30.79,30.79,0,0,0-.83-3.23,35,35,0,0,0-3.12-6.94,35.59,35.59,0,0,0-4.64-6c-.83-.83-1.62-1.62-2.43-2.28s-1.57-1.27-2.28-1.81C410.08,439.85,408.05,438.92,408.11,438.81Z" style="fill:#263238"></path></g></svg>