<svg xmlns="http://www.w3.org/2000/svg" viewBox="0 0 500 500"><g id="freepik--background-simple--inject-20"><path d="M58.74,97.09l2.43-4c20.52-33.81,57.61-54.19,96.72-51.71a100.9,100.9,0,0,1,15,2.05c35.56,7.61,66.5,34.5,79.32,68.94,7.54,20.25,9.65,43.57,24,59.65,18.63,20.92,50.26,21.58,78.06,20.71s59.45-.13,78,20.88c11.61,13.15,15.3,31.86,14.37,49.47-2.48,46.64-35,88.35-76.31,109.08s-90,22.58-135.24,13.46c-63.36-12.77-123.63-47.85-159.85-102S29.76,155.57,58.74,97.09Z" style="fill:#ebebeb"></path><circle cx="70.96" cy="369.59" r="25.08" style="fill:#ebebeb"></circle></g><g id="freepik--Floor--inject-20"><path d="M463.78,465.31c0,.15-94.83.26-211.77.26s-211.79-.11-211.79-.26,94.8-.26,211.79-.26S463.78,465.17,463.78,465.31Z" style="fill:#263238"></path></g><g id="freepik--Plant--inject-20"><path d="M96.44,411.39a10.28,10.28,0,0,1,6.47,4.81,18.34,18.34,0,0,1,2.39,7.87c.51,5.32-1.34,11.19-3.64,16-5.19-2.9-7.6-9.35-8.62-12.7-1.61-5.29-1.31-15.84,3.4-16" style="fill:#455a64"></path><path d="M108.56,447.59a8.77,8.77,0,0,1,1-8.75,11.62,11.62,0,0,1,7.86-4.41,4.94,4.94,0,0,1,4,.87,3.75,3.75,0,0,1,.84,3.72,7.65,7.65,0,0,1-2.18,3.3c-3.29,3.18-7.06,5.65-11.62,5.27" style="fill:#455a64"></path><path d="M106.32,464.72a5.66,5.66,0,0,1-.07-1.1c0-.78,0-1.79-.08-3a30.59,30.59,0,0,1,1-9.85,18.82,18.82,0,0,1,5.13-8.43,12.8,12.8,0,0,1,2.45-1.77,6.72,6.72,0,0,1,.73-.36.75.75,0,0,1,.27-.1,20.44,20.44,0,0,0-3.26,2.43,19.41,19.41,0,0,0-5,8.34,32.94,32.94,0,0,0-1.13,9.74c0,1.27,0,2.29,0,3A7.51,7.51,0,0,1,106.32,464.72Z" style="fill:#263238"></path><path d="M96.92,419.45a2.53,2.53,0,0,1,.15.45q.15.51.36,1.32c.31,1.15.74,2.82,1.24,4.89,1,4.14,2.34,9.88,3.66,16.24s2.38,12.16,3.09,16.36c.35,2.1.62,3.8.8,5,.08.56.14,1,.19,1.36a2.42,2.42,0,0,1,0,.48,3.23,3.23,0,0,1-.12-.47c-.07-.35-.15-.79-.26-1.35-.23-1.21-.54-2.9-.92-4.95-.78-4.19-1.88-10-3.2-16.33s-2.6-12.1-3.54-16.25c-.47-2-.85-3.71-1.12-4.92-.12-.55-.22-1-.29-1.34A2.12,2.12,0,0,1,96.92,419.45Z" style="fill:#263238"></path><path d="M101.66,452.36A20.57,20.57,0,0,0,87.56,440c-1.61-.39-3.61-.44-4.59.9s-.29,3.24.62,4.63a17.56,17.56,0,0,0,18,7.33" style="fill:#455a64"></path><path d="M89.32,444.73a6.16,6.16,0,0,1,1,.21,11.35,11.35,0,0,1,1.17.34c.44.16,1,.3,1.51.55s1.16.49,1.77.83a18.09,18.09,0,0,1,1.94,1.14,22.29,22.29,0,0,1,3.93,3.32,22.69,22.69,0,0,1,3,4.17,20.41,20.41,0,0,1,1,2,18.24,18.24,0,0,1,.67,1.84c.2.56.28,1.1.4,1.56a10.85,10.85,0,0,1,.22,1.2,6,6,0,0,1,.1,1c-.09,0-.25-1.46-1-3.71a18,18,0,0,0-.69-1.79,20.41,20.41,0,0,0-1-2,23.22,23.22,0,0,0-3-4.08,24.29,24.29,0,0,0-3.84-3.29c-.66-.42-1.28-.83-1.9-1.14a17.32,17.32,0,0,0-1.73-.86C90.74,445.14,89.29,444.81,89.32,444.73Z" style="fill:#263238"></path></g><g id="freepik--speech-bubble--inject-20"><path d="M121.1,151.7l-3.7-11.55a40.18,40.18,0,1,0-9.62,10.7l0,0Z" style="fill:#fafafa"></path><path d="M121.1,151.7l-.84,0-2.54-.13-10-.55a.11.11,0,0,1-.11-.12.14.14,0,0,1,0-.06l0,0,.16.16a40.07,40.07,0,0,1-24.31,8.49,45,45,0,0,1-6.65-.53,40.08,40.08,0,0,1-25.7-15.33A40.71,40.71,0,0,1,43.9,128a39.65,39.65,0,0,1,.16-18.28c.19-.76.39-1.53.59-2.29s.53-1.5.79-2.25a22.44,22.44,0,0,1,.88-2.23c.34-.72.69-1.44,1-2.17a17.46,17.46,0,0,1,1.18-2.11l1.27-2.08,1.46-2,.74-1c.25-.32.54-.61.81-.92A40,40,0,0,1,68.75,81.53,41.2,41.2,0,0,1,87.16,79a40.15,40.15,0,0,1,16.61,5.48,40.28,40.28,0,0,1,18.31,24.1,44.63,44.63,0,0,1,1.24,6.6,52.93,52.93,0,0,1,.11,6.26,39.91,39.91,0,0,1-5.94,18.76v-.09c1.18,3.76,2.08,6.66,2.7,8.64.3,1,.52,1.69.68,2.2l.22.74s-.1-.27-.27-.77l-.73-2.21c-.64-2-1.59-4.82-2.81-8.53a.13.13,0,0,1,0-.09,39.89,39.89,0,0,0,5.79-18.67,52,52,0,0,0-.14-6.2,43.7,43.7,0,0,0-1.25-6.54A40,40,0,0,0,87.12,79.51,40.7,40.7,0,0,0,68.94,82,39.6,39.6,0,0,0,53.21,93c-.26.31-.55.59-.8.91l-.73,1-1.44,1.93L49,98.9A17.93,17.93,0,0,0,47.82,101c-.34.71-.68,1.43-1,2.14a21.79,21.79,0,0,0-.86,2.2c-.26.74-.57,1.47-.79,2.22s-.39,1.51-.58,2.26a39.35,39.35,0,0,0-.18,18A39.84,39.84,0,0,0,77,158.51a45.64,45.64,0,0,0,6.59.55,39.35,39.35,0,0,0,6.15-.51,40.12,40.12,0,0,0,18-7.79.11.11,0,0,1,.16,0,.12.12,0,0,1,0,.14l0,0-.08-.18,9.88.68,2.56.18Z" style="fill:#263238"></path><path d="M71.94,119.14a4.07,4.07,0,1,1-4.07-4.07A4.08,4.08,0,0,1,71.94,119.14Z" style="fill:#263238"></path><path d="M88.24,119.14a4.07,4.07,0,1,1-4.07-4.07A4.08,4.08,0,0,1,88.24,119.14Z" style="fill:#263238"></path><path d="M104.5,117.11a4.07,4.07,0,1,1-5.57-1.49A4.07,4.07,0,0,1,104.5,117.11Z" style="fill:#263238"></path></g><g id="freepik--Character--inject-20"><path d="M106.12,299,64,294.64,46.16,254.15,32.3,257.76S42.54,300.55,54,307.18,104.61,315,104.61,315Z" style="fill:#FF725E"></path><circle cx="114.55" cy="307.18" r="18.68" transform="translate(-191.15 188.74) rotate(-48.37)" style="fill:#263238"></circle><path d="M114.55,325.88a18.71,18.71,0,1,1,13.23-5.48A18.59,18.59,0,0,1,114.55,325.88Zm0-37.36A18.66,18.66,0,1,0,127.74,294,18.54,18.54,0,0,0,114.55,288.52Z" style="fill:#263238"></path><circle cx="56.95" cy="296.76" r="14.01" transform="translate(-67.7 21.49) rotate(-13.5)" style="fill:#263238"></circle><circle cx="38.22" cy="249.33" r="11.45" transform="translate(-165.11 100.05) rotate(-45)" style="fill:#263238"></circle><path d="M45.66,241.68H58a0,0,0,0,1,0,0v5.27a0,0,0,0,1,0,0H45.66a2.45,2.45,0,0,1-2.45-2.45v-.36A2.45,2.45,0,0,1,45.66,241.68Z" transform="translate(246.88 398.32) rotate(139.82)" style="fill:#263238"></path><path d="M36.52,230.85h12a.35.35,0,0,1,.35.35v4.56a.35.35,0,0,1-.35.35h-12a2.45,2.45,0,0,1-2.45-2.45v-.36A2.45,2.45,0,0,1,36.52,230.85Z" transform="translate(274.94 192.03) rotate(90)" style="fill:#263238"></path><path d="M29.17,231.36h12a.35.35,0,0,1,.35.35v4.56a.35.35,0,0,1-.35.35h-12a2.45,2.45,0,0,1-2.45-2.45v-.36a2.45,2.45,0,0,1,2.45-2.45Z" transform="translate(255.01 149.62) rotate(77.39)" style="fill:#263238"></path><path d="M21.72,234.48h12a.35.35,0,0,1,.35.35v4.56a.35.35,0,0,1-.35.35h-12a2.45,2.45,0,0,1-2.45-2.45v-.36a2.45,2.45,0,0,1,2.45-2.45Z" transform="translate(218.67 95.48) rotate(60)" style="fill:#263238"></path><rect x="270.44" y="311.97" width="13.7" height="92.95" transform="translate(672.75 579.77) rotate(156.96)" style="fill:#FF725E"></rect><circle cx="252.96" cy="309.12" r="18.68" transform="translate(-146.41 302.29) rotate(-49.73)" style="fill:#263238"></circle><path d="M253,327.84a18.72,18.72,0,0,1-17.9-24.23A18.7,18.7,0,1,1,253,327.84Zm0-37.38a18.66,18.66,0,1,0,17.85,24.16h0a18.67,18.67,0,0,0-12.33-23.32A18.77,18.77,0,0,0,252.94,290.46Z" style="fill:#263238"></path><circle cx="277.29" cy="361.2" r="14.01" transform="translate(-144.97 531.65) rotate(-74.47)" style="fill:#263238"></circle><circle cx="298.41" cy="404.8" r="11.45" style="fill:#263238"></circle><path d="M283.32,410.85h12.32a0,0,0,0,1,0,0v5.27a0,0,0,0,1,0,0H283.32a2.45,2.45,0,0,1-2.45-2.45v-.36A2.45,2.45,0,0,1,283.32,410.85Z" transform="translate(-214.84 444.45) rotate(-58.64)" style="fill:#263238"></path><path d="M295.42,418.22h12a.35.35,0,0,1,.35.35v4.56a.35.35,0,0,1-.35.35h-12A2.45,2.45,0,0,1,293,421v-.36A2.45,2.45,0,0,1,295.42,418.22Z" transform="translate(-3.76 839.01) rotate(-108.46)" style="fill:#263238"></path><path d="M302.23,415.42h12a.35.35,0,0,1,.35.35v4.56a.35.35,0,0,1-.35.35h-12a2.45,2.45,0,0,1-2.45-2.45v-.36a2.45,2.45,0,0,1,2.45-2.45Z" transform="translate(107.6 896.9) rotate(-121.07)" style="fill:#263238"></path><path d="M308.31,410.1h12a.35.35,0,0,1,.35.35V415a.35.35,0,0,1-.35.35h-12a2.45,2.45,0,0,1-2.45-2.45v-.36A2.45,2.45,0,0,1,308.31,410.1Z" transform="translate(273.99 929.38) rotate(-138.46)" style="fill:#263238"></path><path d="M109,287.74s1.35,131.14,74.94,133.7,76.68-132.76,76.68-133.7c0,0-8.69-19.55-75.81-18.79S109,287.74,109,287.74Z" style="fill:#FF725E"></path><rect x="142.96" y="248.88" width="76.9" height="15.77" rx="7.35" transform="translate(362.83 513.54) rotate(180)" style="fill:#263238"></rect><rect x="178.74" y="120.89" width="5.37" height="27.15" transform="translate(362.85 268.94) rotate(180)" style="fill:#263238"></rect><circle cx="259.9" cy="213.5" r="15.78" transform="translate(-42.34 65.91) rotate(-13.37)" style="fill:#FF725E"></circle><circle cx="100.6" cy="212.46" r="15.78" transform="translate(-44.51 27.52) rotate(-12.78)" style="fill:#FF725E"></circle><path d="M178.3,142.16S114.14,141.39,104,197s44.1,56.61,59.71,57.66c7.07.48,22.21.53,35.57.29,29.58-.51,50.48-6.23,57.59-33.67a51.42,51.42,0,0,0,1.59-9.83C260.33,181.33,240,140.68,178.3,142.16Z" style="fill:#FF725E"></path><path d="M224.84,226.8l-93.21,1.45a17.69,17.69,0,0,1-18-17.41h0a17.7,17.7,0,0,1,17.42-18l93.21-1.45a17.68,17.68,0,0,1,18,17.41h0A17.69,17.69,0,0,1,224.84,226.8Z" style="fill:#263238"></path><path d="M151,208.91a5.68,5.68,0,1,1-4.48-6.67A5.68,5.68,0,0,1,151,208.91Z" style="fill:#fff"></path><path d="M216.09,207.87a5.68,5.68,0,1,1-4.48-6.66A5.68,5.68,0,0,1,216.09,207.87Z" style="fill:#fff"></path><path d="M206.72,339.82a25.37,25.37,0,1,1-23.46-27.15A25.38,25.38,0,0,1,206.72,339.82Z" style="fill:#263238"></path><path d="M199.85,339.32a18.49,18.49,0,1,1-17.09-19.79A18.48,18.48,0,0,1,199.85,339.32Z" style="fill:#fff"></path><path d="M190.94,342.68a18.38,18.38,0,0,1-.17-3.05c-.05-1.91-.09-4.64-.09-8l.2.37-9.51-5.55h.53l-9.6,5.39c-.26.44.35-.59.29-.48h0v1.42l0,1.43c0,.94,0,1.88-.05,2.8,0,1.84-.07,3.62-.1,5.34l-.26-.46,9.4,5.74h-.42c2.93-1.58,5.35-2.84,7-3.7a19.44,19.44,0,0,1,2.77-1.3,14.62,14.62,0,0,1-2.4,1.59c-1.62,1-4,2.41-7,4.14l-.21.12-.21-.12-9.52-5.55-.26-.15v-.32q0-2.58.06-5.34c0-.92,0-1.85,0-2.8l0-1.42V331.4h0c-.06.11.55-.91.29-.48l9.63-5.34.28-.15.26.16,9.39,5.74.21.13v.24c-.11,3.46-.22,6.24-.32,8.13A15.32,15.32,0,0,1,190.94,342.68Z" style="fill:#FF725E"></path><circle cx="181.43" cy="120.35" r="8.85" transform="translate(-31.96 163.54) rotate(-45)" style="fill:#FF725E"></circle><path d="M167.29,206.29c.42.05.21,2,1.45,4.67a11.79,11.79,0,0,0,3,4,9.77,9.77,0,0,0,5.33,2.37,9.9,9.9,0,0,0,5.68-1.36,11.84,11.84,0,0,0,3.68-3.35c1.7-2.37,1.85-4.36,2.27-4.33.17,0,.34.5.34,1.44a8.84,8.84,0,0,1-1,3.84,11.8,11.8,0,0,1-4,4.43,10.77,10.77,0,0,1-13.9-1.27,11.73,11.73,0,0,1-3.12-5.08,8.7,8.7,0,0,1-.32-4C166.87,206.72,167.13,206.26,167.29,206.29Z" style="fill:#fff"></path><path d="M252.72,232.2c-.1,0,1.05-1.8,2.16-4.95a53.6,53.6,0,0,0,2.6-12.74,93.84,93.84,0,0,0,.3-13c-.07-1.67-.15-3-.23-4a7,7,0,0,1-.05-1.46,7.82,7.82,0,0,1,.25,1.44c.14.93.28,2.28.4,4a79.05,79.05,0,0,1-.15,13.12,49.61,49.61,0,0,1-2.77,12.82,25.28,25.28,0,0,1-1.7,3.61A8.25,8.25,0,0,1,252.72,232.2Z" style="fill:#263238"></path><path d="M104.12,195.14a7.52,7.52,0,0,1-.31,1.43c-.13.45-.27,1-.4,1.66s-.33,1.38-.45,2.21a48.61,48.61,0,0,0-.7,5.83,51.27,51.27,0,0,0,.1,7.18,52.07,52.07,0,0,0,1.16,7.08,48.47,48.47,0,0,0,1.72,5.62c.27.79.58,1.48.83,2.1s.49,1.14.69,1.56a7.9,7.9,0,0,1,.56,1.35,8,8,0,0,1-.74-1.26,16.87,16.87,0,0,1-.77-1.54c-.28-.6-.62-1.29-.91-2.08a42.85,42.85,0,0,1-1.84-5.63,48.46,48.46,0,0,1-1.22-7.16,47.73,47.73,0,0,1-.06-7.25,43.47,43.47,0,0,1,.82-5.87c.15-.83.36-1.56.53-2.21s.33-1.2.48-1.65A9,9,0,0,1,104.12,195.14Z" style="fill:#263238"></path><path d="M108.66,287.63l.38.11,1.12.38,4.26,1.5,3.08,1.1c1.13.38,2.38.74,3.71,1.15,2.67.79,5.68,1.82,9.1,2.62l5.33,1.37c1.86.47,3.82.82,5.84,1.26,4,.92,8.39,1.55,13,2.29a232.19,232.19,0,0,0,30.08,2.15,230.43,230.43,0,0,0,30.08-2.15c4.58-.74,8.94-1.36,13-2.29,2-.43,4-.78,5.84-1.25l5.34-1.37c3.41-.8,6.42-1.83,9.09-2.62,1.33-.41,2.58-.77,3.71-1.15l3.08-1.1,4.26-1.5,1.12-.38a2,2,0,0,1,.39-.11l-.37.16-1.1.43-4.23,1.59L251.62,291c-1.12.39-2.37.76-3.7,1.19-2.67.82-5.67,1.87-9.09,2.7l-5.34,1.4c-1.85.48-3.82.84-5.84,1.29-4,.94-8.4,1.58-13,2.34a226.13,226.13,0,0,1-30.15,2.19,227.33,227.33,0,0,1-30.14-2.2c-4.59-.75-9-1.4-13-2.34-2-.45-4-.81-5.84-1.29l-5.34-1.4c-3.42-.83-6.42-1.88-9.09-2.7-1.33-.43-2.57-.8-3.7-1.19l-3.07-1.15-4.23-1.59-1.1-.43A2,2,0,0,1,108.66,287.63Z" style="fill:#263238"></path><g style="opacity:0.30000000000000004"><path d="M109,287.74s8.69-18,75.81-18.79,75.81,18.79,75.81,18.79S192.88,321.13,109,287.74Z"></path></g><path d="M170.17,146.32a1.22,1.22,0,0,1-.23,0l-.67.07c-.6.06-1.48.08-2.61.21a71.11,71.11,0,0,0-9.47,1.57,67.92,67.92,0,0,0-40,26.58,70.21,70.21,0,0,0-10.44,21.3c-.35,1.08-.54,1.94-.71,2.51l-.19.66a1,1,0,0,1-.08.22.67.67,0,0,1,0-.23c0-.18.08-.4.14-.67.14-.58.29-1.45.61-2.55a63.44,63.44,0,0,1,3.2-9.09,68.36,68.36,0,0,1,19-25.25,68.37,68.37,0,0,1,28.39-13.84,63,63,0,0,1,9.53-1.41c1.14-.1,2-.09,2.62-.12h.68C170.1,146.3,170.17,146.31,170.17,146.32Z" style="fill:#fff"></path><path d="M107.4,223.3a7.71,7.71,0,0,1-.92-2,28.53,28.53,0,0,1-1.63-10.42,7,7,0,0,1,.26-2.18c.16,0-.06,3.34.58,7.38S107.55,223.24,107.4,223.3Z" style="fill:#fff"></path><path d="M90.57,218.13s-.23-.16-.54-.54a9.17,9.17,0,0,1-1.13-1.75,11.38,11.38,0,0,1,1.71-12.9,8.87,8.87,0,0,1,1.55-1.4,2.16,2.16,0,0,1,.66-.38c.06.08-.84.69-1.93,2a11.8,11.8,0,0,0-1.66,12.5C89.93,217.25,90.64,218.07,90.57,218.13Z" style="fill:#fff"></path><path d="M182,114.18a13.32,13.32,0,0,0-2.35-.05,6.13,6.13,0,0,0-5.24,8.16,13.12,13.12,0,0,0,1,2.11s-.2-.12-.48-.44a5.4,5.4,0,0,1-.9-1.55,6.28,6.28,0,0,1,5.56-8.65,5.46,5.46,0,0,1,1.78.17C181.82,114,182,114.15,182,114.18Z" style="fill:#fff"></path><path d="M269.16,206c-.11.12-1.66-1.37-4-2.49s-4.47-1.45-4.45-1.61a9.2,9.2,0,0,1,4.67,1.14A9.06,9.06,0,0,1,269.16,206Z" style="fill:#fff"></path><path d="M132,381.07a1.25,1.25,0,0,1-.12-.19l-.33-.59c-.3-.57-.7-1.33-1.22-2.3-.26-.5-.54-1.06-.86-1.66l-.94-2c-.68-1.45-1.44-3.1-2.19-5-.38-.93-.78-1.91-1.2-2.92s-.78-2.11-1.19-3.22c-.86-2.21-1.59-4.64-2.44-7.16-1.57-5.1-3.11-10.75-4.46-16.75s-2.33-11.79-3.13-17.06-1.32-10-1.64-14.06c-.19-2-.31-3.82-.41-5.42s-.19-3-.22-4.1-.06-1.95-.09-2.59v-.67a.82.82,0,0,1,0-.23.77.77,0,0,1,0,.23l.06.67c0,.63.11,1.5.18,2.58s.17,2.5.31,4.09.27,3.41.49,5.41c.36,4,1,8.76,1.75,14s1.84,11,3.16,17,2.87,11.64,4.4,16.73c.85,2.52,1.56,4.94,2.4,7.15.4,1.12.78,2.19,1.16,3.22l1.16,2.94c.72,1.87,1.46,3.53,2.12,5l.9,2c.29.61.57,1.17.82,1.68l1.12,2.34.28.61A.77.77,0,0,1,132,381.07Z" style="fill:#fff"></path><path d="M92.87,299.54a49.89,49.89,0,0,1-7.31-.26,51.9,51.9,0,0,1-7.27-.77,49.89,49.89,0,0,1,7.31.26A51.65,51.65,0,0,1,92.87,299.54Z" style="fill:#fff"></path><path d="M55.25,278.19a54.11,54.11,0,0,1-3.81-6.47A54,54,0,0,1,48.1,265a54.59,54.59,0,0,1,3.8,6.48A52.8,52.8,0,0,1,55.25,278.19Z" style="fill:#fff"></path><path d="M167.5,412.6a5.86,5.86,0,0,1-1.17-.14,26,26,0,0,1-3.13-.76,33.86,33.86,0,0,1-4.46-1.71,38,38,0,0,1-5.06-2.94,37,37,0,0,1-4.48-3.77,32.7,32.7,0,0,1-3.12-3.62,23.39,23.39,0,0,1-1.77-2.69,5.19,5.19,0,0,1-.53-1.05c.08-.05.92,1.4,2.59,3.52a37.29,37.29,0,0,0,3.17,3.5,36.59,36.59,0,0,0,9.41,6.62,39,39,0,0,0,4.36,1.79C165.87,412.21,167.52,412.5,167.5,412.6Z" style="fill:#fff"></path><path d="M182.84,366.34a4.85,4.85,0,0,1-.7.07,18.35,18.35,0,0,1-2,.06,26.82,26.82,0,0,1-7.33-1.19,32.23,32.23,0,0,1-4.78-1.92,31.09,31.09,0,0,1-5-3.21,26.88,26.88,0,0,1-10.38-23.9,30.88,30.88,0,0,1,1.05-5.82,30.24,30.24,0,0,1,1.85-4.8,26.61,26.61,0,0,1,4.14-6.17,17.79,17.79,0,0,1,1.42-1.44,4.92,4.92,0,0,1,.53-.46s-.66.71-1.8,2a28.08,28.08,0,0,0-4,6.2,28.95,28.95,0,0,0-2.76,10.49,26.69,26.69,0,0,0,10.2,23.49,30.54,30.54,0,0,0,4.86,3.2,31,31,0,0,0,4.69,2,28,28,0,0,0,7.23,1.33C181.87,366.34,182.84,366.28,182.84,366.34Z" style="fill:#fff"></path><path d="M61.77,287.59c0,.08-.77-.29-2-.58a11.16,11.16,0,0,0-9.46,2.27c-1,.83-1.48,1.49-1.55,1.44A4.62,4.62,0,0,1,50,289a10.35,10.35,0,0,1,9.79-2.34A4.8,4.8,0,0,1,61.77,287.59Z" style="fill:#fff"></path><path d="M209.44,188.16c0,.14-12.28.26-27.42.26s-27.43-.12-27.43-.26,12.28-.26,27.43-.26S209.44,188,209.44,188.16Z" style="fill:#fff"></path><path d="M162.64,250.69a1.88,1.88,0,0,1-.46.07l-1.34.12c-.58.05-1.29.09-2.12.11s-1.77.06-2.81,0c-2.09,0-4.57-.15-7.32-.44a81.16,81.16,0,0,1-8.85-1.53,80.12,80.12,0,0,1-8.6-2.58,71.11,71.11,0,0,1-6.74-2.87c-1-.44-1.77-.9-2.5-1.29s-1.35-.74-1.85-1l-1.15-.7a2.09,2.09,0,0,1-.38-.27s.16,0,.43.18l1.2.61c.51.28,1.14.61,1.88,1s1.58.79,2.53,1.21c1.88.88,4.17,1.82,6.75,2.75a78.88,78.88,0,0,0,17.34,4.08c2.72.32,5.19.5,7.26.55,1,.06,2,0,2.81,0s1.53,0,2.11,0h1.34A1.43,1.43,0,0,1,162.64,250.69Z" style="fill:#fff"></path><path d="M242.47,295.75a.86.86,0,0,1-.24.11l-.72.27-2.78,1c-1.21.44-2.69.95-4.44,1.46s-3.72,1.17-5.95,1.73l-3.48.92c-1.21.31-2.49.57-3.8.88-2.62.63-5.46,1.13-8.44,1.7a177.48,177.48,0,0,1-39.33,2.41c-3-.19-5.91-.34-8.59-.65-1.34-.14-2.64-.24-3.88-.41l-3.57-.49c-2.28-.27-4.32-.68-6.11-1s-3.34-.62-4.59-.91l-2.88-.64-.75-.18a.9.9,0,0,1-.25-.08,1.62,1.62,0,0,1,.27,0l.75.13,2.9.55c1.26.25,2.8.54,4.6.81s3.83.66,6.11.91l3.56.45c1.24.16,2.54.25,3.88.38,2.67.29,5.55.42,8.57.6,6.05.25,12.7.26,19.68-.15s13.57-1.28,19.54-2.26c3-.55,5.82-1,8.44-1.64,1.31-.3,2.59-.55,3.8-.85l3.48-.89c2.23-.53,4.2-1.15,5.95-1.65s3.25-1,4.46-1.37l2.81-.9.74-.22Z" style="fill:#fff"></path></g></svg>